Foldit-Black.ufo
<glyph name="numbersign.color0" format="2">
  <advance width="600"/>
  <unicode hex="0023"/>
  <outline>
    <contour>
      <point x="374" y="0" type="line"/>
      <point x="578" y="0" type="line"/>
      <point x="872" y="729" type="line"/>
      <point x="872" y="730" type="line"/>
      <point x="668" y="730" type="line"/>
      <point x="374" y="1" type="line"/>
    </contour>
  </outline>
</glyph>
<glyph name="numbersign.color3" format="2">
  <advance width="600"/>
  <unicode hex="0023"/>
  <outline>
    <contour>
      <point x="96" y="415" type="line"/>
      <point x="876" y="415" type="line"/>
      <point x="946" y="598" type="line"/>
      <point x="946" y="599" type="line"/>
      <point x="166" y="599" type="line"/>
      <point x="96" y="416" type="line"/>
    </contour>
  </outline>
</glyph>
<glyph name="percent.color1" format="2">
  <advance width="600"/>
  <unicode hex="0025"/>
  <outline>
    <contour>
      <point x="132" y="280" type="line"/>
      <point x="508" y="280" type="line"/>
      <point x="508" y="484" type="line"/>
      <point x="25" y="484" type="line"/>
      <point x="25" y="483" type="line"/>
    </contour>
  </outline>
</glyph>
<glyph name="ampersand.color0" format="2">
  <advance width="600"/>
  <unicode hex="0026"/>
  <outline>
    <contour>
      <point x="459" y="486" type="line"/>
      <point x="561" y="486" type="line"/>
      <point x="561" y="730" type="line"/>
      <point x="459" y="730" type="line"/>
    </contour>
  </outline>
</glyph>
<glyph name="ampersand.color6" format="2">
  <advance width="600"/>
  <unicode hex="0026"/>
  <outline>
    <contour>
      <point x="642" y="0" type="line"/>
      <point x="643" y="0" type="line"/>
      <point x="885" y="230" type="line"/>
      <point x="1101" y="436" type="line"/>
      <point x="1101" y="439" type="line"/>
      <point x="830" y="439" type="line"/>
      <point x="642" y="244" type="line"/>
    </contour>
  </outline>
</glyph>
<glyph name="parenright" format="2">
  <advance width="565"/>
  <unicode hex="0029"/>
  <outline>
    <contour>
      <point x="276" y="-100" type="line"/>
      <point x="277" y="-100" type="line"/>
      <point x="530" y="107" type="line"/>
      <point x="530" y="486" type="line"/>
      <point x="276" y="486" type="line"/>
    </contour>
    <contour>
      <point x="15" y="-100" type="line"/>
      <point x="276" y="-100" type="line"/>
      <point x="276" y="144" type="line"/>
      <point x="15" y="144" type="line"/>
    </contour>
    <contour>
      <point x="15" y="486" type="line"/>
      <point x="530" y="486" type="line"/>
      <point x="530" y="487" type="line"/>
      <point x="328" y="730" type="line"/>
      <point x="15" y="730" type="line"/>
    </contour>
  </outline>
</glyph>
<glyph name="asterisk" format="2">
  <advance width="562"/>
  <unicode hex="002A"/>
  <outline>
    <contour>
      <point x="87" y="349" type="line"/>
      <point x="211" y="349" type="line"/>
      <point x="211" y="351" type="line"/>
      <point x="225" y="442" type="line"/>
      <point x="5" y="556" type="line"/>
    </contour>
    <contour>
      <point x="225" y="442" type="line"/>
      <point x="271" y="730" type="line"/>
      <point x="269" y="730" type="line"/>
      <point x="5" y="557" type="line"/>
      <point x="5" y="556" type="line"/>
    </contour>
    <contour>
      <point x="211" y="349" type="line"/>
      <point x="445" y="349" type="line"/>
      <point x="527" y="556" type="line"/>
      <point x="527" y="557" type="line"/>
      <point x="272" y="730" type="line"/>
      <point x="271" y="730" type="line"/>
      <point x="211" y="351" type="line"/>
    </contour>
  </outline>
</glyph>
<glyph name="plus.color1" format="2">
  <advance width="600"/>
  <unicode hex="002B"/>
  <outline>
    <contour>
      <point x="285" y="73" type="line"/>
      <point x="489" y="73" type="line"/>
      <point x="489" y="273" type="line"/>
      <point x="285" y="273" type="line"/>
    </contour>
  </outline>
</glyph>
<glyph name="comma.color1" format="2">
  <advance width="600"/>
  <unicode hex="002C"/>
  <outline>
    <contour>
      <point x="103" y="-200" type="line"/>
      <point x="104" y="-200" type="line"/>
      <point x="277" y="-93" type="line"/>
      <point x="277" y="0" type="line"/>
      <point x="103" y="0" type="line"/>
    </contour>
  </outline>
</glyph>
<glyph name="slash" format="2">
  <advance width="628"/>
  <unicode hex="002F"/>
  <outline>
    <contour>
      <point x="0" y="-100" type="line"/>
      <point x="234" y="-100" type="line"/>
      <point x="628" y="779" type="line"/>
      <point x="628" y="780" type="line"/>
      <point x="394" y="780" type="line"/>
      <point x="0" y="-99" type="line"/>
    </contour>
  </outline>
</glyph>
<glyph name="zero.color3" format="2">
  <advance width="600"/>
  <unicode hex="0030"/>
  <outline>
    <contour>
      <point x="521" y="0" type="line"/>
      <point x="522" y="0" type="line"/>
      <point x="775" y="197" type="line"/>
      <point x="775" y="486" type="line"/>
      <point x="521" y="486" type="line"/>
    </contour>
  </outline>
</glyph>
<glyph name="one.color2" format="2">
  <advance width="600"/>
  <unicode hex="0031"/>
  <outline>
    <contour>
      <point x="351" y="0" type="line"/>
      <point x="775" y="0" type="line"/>
      <point x="775" y="244" type="line"/>
      <point x="553" y="244" type="line"/>
    </contour>
  </outline>
</glyph>
<glyph name="two.color2" format="2">
  <advance width="600"/>
  <unicode hex="0032"/>
  <outline>
    <contour>
      <point x="31" y="0" type="line"/>
      <point x="775" y="0" type="line"/>
      <point x="775" y="244" type="line"/>
      <point x="31" y="244" type="line"/>
    </contour>
  </outline>
</glyph>
<glyph name="three.color4" format="2">
  <advance width="600"/>
  <unicode hex="0033"/>
  <outline>
    <contour>
      <point x="511" y="0" type="line"/>
      <point x="512" y="0" type="line"/>
      <point x="765" y="193" type="line"/>
      <point x="765" y="269" type="line"/>
      <point x="512" y="466" type="line"/>
      <point x="511" y="466" type="line"/>
    </contour>
  </outline>
</glyph>
<glyph name="four" format="2">
  <advance width="800"/>
  <unicode hex="0034"/>
  <outline>
    <contour>
      <point x="125" y="173" type="line"/>
      <point x="521" y="173" type="line"/>
      <point x="521" y="417" type="line"/>
      <point x="201" y="417" type="line"/>
    </contour>
    <contour>
      <point x="125" y="173" type="line"/>
      <point x="637" y="729" type="line"/>
      <point x="637" y="730" type="line"/>
      <point x="377" y="730" type="line"/>
      <point x="5" y="368" type="line"/>
    </contour>
    <contour>
      <point x="521" y="0" type="line"/>
      <point x="775" y="0" type="line"/>
      <point x="775" y="210" type="line"/>
      <point x="522" y="417" type="line"/>
      <point x="521" y="417" type="line"/>
    </contour>
  </outline>
</glyph>
<glyph name="five.color0" format="2">
  <advance width="600"/>
  <unicode hex="0035"/>
  <outline>
    <contour>
      <point x="217" y="0" type="line"/>
      <point x="511" y="0" type="line"/>
      <point x="511" y="244" type="line"/>
      <point x="15" y="244" type="line"/>
      <point x="15" y="243" type="line"/>
    </contour>
  </outline>
</glyph>
<glyph name="six.color1" format="2">
  <advance width="600"/>
  <unicode hex="0036"/>
  <outline>
    <contour>
      <point x="35" y="244" type="line"/>
      <point x="289" y="244" type="line"/>
      <point x="289" y="262" type="line"/>
      <point x="35" y="465" type="line"/>
    </contour>
  </outline>
</glyph>
<glyph name="eight" format="2">
  <advance width="800"/>
  <unicode hex="0038"/>
  <outline>
    <contour>
      <point x="319" y="486" type="line"/>
      <point x="481" y="486" type="line"/>
      <point x="481" y="730" type="line"/>
      <point x="319" y="730" type="line"/>
    </contour>
    <contour>
      <point x="279" y="0" type="line"/>
      <point x="521" y="0" type="line"/>
      <point x="521" y="244" type="line"/>
      <point x="279" y="244" type="line"/>
    </contour>
    <contour>
      <point x="65" y="366" type="line"/>
      <point x="319" y="366" type="line"/>
      <point x="319" y="730" type="line"/>
      <point x="318" y="730" type="line"/>
      <point x="65" y="523" type="line"/>
    </contour>
    <contour>
      <point x="481" y="366" type="line"/>
      <point x="735" y="366" type="line"/>
      <point x="735" y="523" type="line"/>
      <point x="482" y="730" type="line"/>
      <point x="481" y="730" type="line"/>
    </contour>
    <contour>
      <point x="279" y="262" type="line"/>
      <point x="521" y="262" type="line"/>
      <point x="521" y="466" type="line"/>
      <point x="279" y="466" type="line"/>
    </contour>
    <contour>
      <point x="521" y="0" type="line"/>
      <point x="522" y="0" type="line"/>
      <point x="775" y="193" type="line"/>
      <point x="775" y="269" type="line"/>
      <point x="522" y="466" type="line"/>
      <point x="521" y="466" type="line"/>
    </contour>
    <contour>
      <point x="278" y="0" type="line"/>
      <point x="279" y="0" type="line"/>
      <point x="279" y="466" type="line"/>
      <point x="278" y="466" type="line"/>
      <point x="25" y="269" type="line"/>
      <point x="25" y="193" type="line"/>
    </contour>
  </outline>
</glyph>
<glyph name="nine.color2" format="2">
  <advance width="600"/>
  <unicode hex="0039"/>
  <outline>
    <contour>
      <point x="237" y="0" type="line"/>
      <point x="501" y="0" type="line"/>
      <point x="501" y="244" type="line"/>
      <point x="35" y="244" type="line"/>
      <point x="35" y="243" type="line"/>
    </contour>
  </outline>
</glyph>
<glyph name="nine.color3" format="2">
  <advance width="600"/>
  <unicode hex="0039"/>
  <outline>
    <contour>
      <point x="258" y="264" type="line"/>
      <point x="259" y="264" type="line"/>
      <point x="259" y="730" type="line"/>
      <point x="258" y="730" type="line"/>
      <point x="5" y="533" type="line"/>
      <point x="5" y="457" type="line"/>
    </contour>
  </outline>
</glyph>
<glyph name="semicolon.color1" format="2">
  <advance width="600"/>
  <unicode hex="003B"/>
  <outline>
    <contour>
      <point x="76" y="0" type="line"/>
      <point x="318" y="0" type="line"/>
      <point x="211" y="204" type="line"/>
      <point x="76" y="204" type="line"/>
    </contour>
  </outline>
</glyph>
<glyph name="semicolon" format="2">
  <advance width="313"/>
  <unicode hex="003B"/>
  <outline>
    <contour>
      <point x="35" y="276" type="line"/>
      <point x="267" y="276" type="line"/>
      <point x="267" y="480" type="line"/>
      <point x="35" y="480" type="line"/>
    </contour>
    <contour>
      <point x="76" y="0" type="line"/>
      <point x="318" y="0" type="line"/>
      <point x="211" y="204" type="line"/>
      <point x="76" y="204" type="line"/>
    </contour>
    <contour>
      <point x="144" y="-200" type="line"/>
      <point x="145" y="-200" type="line"/>
      <point x="318" y="-93" type="line"/>
      <point x="318" y="0" type="line"/>
      <point x="144" y="0" type="line"/>
    </contour>
  </outline>
</glyph>
<glyph name="question" format="2">
  <advance width="892"/>
  <unicode hex="003F"/>
  <outline>
    <contour>
      <point x="-5" y="486" type="line"/>
      <point x="588" y="486" type="line"/>
      <point x="588" y="730" type="line"/>
      <point x="197" y="730" type="line"/>
      <point x="-5" y="487" type="line"/>
    </contour>
    <contour>
      <point x="588" y="466" type="line"/>
      <point x="842" y="466" type="line"/>
      <point x="842" y="523" type="line"/>
      <point x="589" y="730" type="line"/>
      <point x="588" y="730" type="line"/>
    </contour>
    <contour>
      <point x="206" y="0" type="line"/>
      <point x="438" y="0" type="line"/>
      <point x="438" y="204" type="line"/>
      <point x="206" y="204" type="line"/>
    </contour>
    <contour>
      <point x="439" y="262" type="line"/>
      <point x="640" y="262" type="line"/>
      <point x="842" y="465" type="line"/>
      <point x="842" y="466" type="line"/>
      <point x="439" y="466" type="line"/>
    </contour>
    <contour>
      <point x="185" y="232" type="line"/>
      <point x="439" y="232" type="line"/>
      <point x="439" y="466" type="line"/>
      <point x="438" y="466" type="line"/>
      <point x="185" y="269" type="line"/>
    </contour>
  </outline>
</glyph>
<glyph name="at.color4" format="2">
  <advance width="600"/>
  <unicode hex="0040"/>
  <outline>
    <contour>
      <point x="135" y="244" type="line"/>
      <point x="389" y="244" type="line"/>
      <point x="389" y="530" type="line"/>
      <point x="388" y="530" type="line"/>
      <point x="135" y="423" type="line"/>
    </contour>
  </outline>
</glyph>
<glyph name="at.color6" format="2">
  <advance width="600"/>
  <unicode hex="0040"/>
  <outline>
    <contour>
      <point x="972" y="0" type="line"/>
      <point x="1047" y="0" type="line"/>
      <point x="1070" y="23" type="line"/>
      <point x="1070" y="24" type="line"/>
      <point x="972" y="24" type="line"/>
    </contour>
  </outline>
</glyph>
<glyph name="at" format="2">
  <advance width="1123"/>
  <unicode hex="0040"/>
  <outline>
    <contour>
      <point x="389" y="286" type="line"/>
      <point x="972" y="286" type="line"/>
      <point x="972" y="287" type="line"/>
      <point x="865" y="530" type="line"/>
      <point x="389" y="530" type="line"/>
    </contour>
    <contour>
      <point x="76" y="-100" type="line"/>
      <point x="77" y="-100" type="line"/>
      <point x="77" y="606" type="line"/>
      <point x="53" y="606" type="line"/>
      <point x="53" y="-77" type="line"/>
    </contour>
    <contour>
      <point x="77" y="-100" type="line"/>
      <point x="1047" y="-100" type="line"/>
      <point x="1047" y="-76" type="line"/>
      <point x="77" y="-76" type="line"/>
    </contour>
    <contour>
      <point x="242" y="0" type="line"/>
      <point x="718" y="0" type="line"/>
      <point x="718" y="244" type="line"/>
      <point x="135" y="244" type="line"/>
      <point x="135" y="243" type="line"/>
    </contour>
    <contour>
      <point x="135" y="244" type="line"/>
      <point x="389" y="244" type="line"/>
      <point x="389" y="530" type="line"/>
      <point x="388" y="530" type="line"/>
      <point x="135" y="423" type="line"/>
    </contour>
    <contour>
      <point x="972" y="0" type="line"/>
      <point x="972" y="286" type="line"/>
      <point x="718" y="286" type="line"/>
      <point x="718" y="224" type="line"/>
    </contour>
    <contour>
      <point x="972" y="0" type="line"/>
      <point x="1047" y="0" type="line"/>
      <point x="1070" y="23" type="line"/>
      <point x="1070" y="24" type="line"/>
      <point x="972" y="24" type="line"/>
    </contour>
    <contour>
      <point x="53" y="606" type="line"/>
      <point x="1046" y="606" type="line"/>
      <point x="1046" y="630" type="line"/>
      <point x="76" y="630" type="line"/>
      <point x="53" y="607" type="line"/>
    </contour>
    <contour>
      <point x="1046" y="24" type="line"/>
      <point x="1070" y="24" type="line"/>
      <point x="1070" y="607" type="line"/>
      <point x="1047" y="630" type="line"/>
      <point x="1046" y="630" type="line"/>
    </contour>
  </outline>
</glyph>
<glyph name="B.color3" format="2">
  <advance width="600"/>
  <unicode hex="0042"/>
  <outline>
    <contour>
      <point x="289" y="486" type="line"/>
      <point x="584" y="486" type="line"/>
      <point x="584" y="730" type="line"/>
      <point x="289" y="730" type="line"/>
    </contour>
  </outline>
</glyph>
<glyph name="B.color4" format="2">
  <advance width="600"/>
  <unicode hex="0042"/>
  <outline>
    <contour>
      <point x="858" y="376" type="line"/>
      <point x="858" y="533" type="line"/>
      <point x="585" y="730" type="line"/>
      <point x="584" y="730" type="line"/>
      <point x="584" y="467" type="line"/>
      <point x="739" y="467" type="line"/>
    </contour>
  </outline>
</glyph>
<glyph name="G.color3" format="2">
  <advance width="600"/>
  <unicode hex="0047"/>
  <outline>
    <contour>
      <point x="299" y="263" type="line"/>
      <point x="728" y="263" type="line"/>
      <point x="728" y="467" type="line"/>
      <point x="299" y="466" type="line"/>
    </contour>
  </outline>
</glyph>
<glyph name="H.color0" format="2">
  <advance width="600"/>
  <unicode hex="0048"/>
  <outline>
    <contour>
      <point x="638" y="0" type="line"/>
      <point x="892" y="0" type="line"/>
      <point x="892" y="730" type="line"/>
      <point x="638" y="730" type="line"/>
    </contour>
  </outline>
</glyph>
<glyph name="I" format="2">
  <advance width="697"/>
  <unicode hex="0049"/>
  <anchor x="340" y="0" name="bottom"/>
  <anchor x="351" y="730" name="top"/>
  <outline>
    <contour>
      <point x="246" y="0" type="line"/>
      <point x="298" y="0" type="line"/>
      <point x="500" y="244" type="line"/>
      <point x="500" y="730" type="line"/>
      <point x="448" y="730" type="line"/>
      <point x="246" y="486" type="line"/>
    </contour>
    <contour>
      <point x="25" y="0" type="line"/>
      <point x="246" y="0" type="line"/>
      <point x="246" y="244" type="line"/>
      <point x="25" y="244" type="line"/>
    </contour>
    <contour>
      <point x="298" y="0" type="line"/>
      <point x="672" y="0" type="line"/>
      <point x="672" y="244" type="line"/>
      <point x="500" y="244" type="line"/>
    </contour>
    <contour>
      <point x="25" y="486" type="line"/>
      <point x="246" y="486" type="line"/>
      <point x="448" y="730" type="line"/>
      <point x="25" y="730" type="line"/>
    </contour>
    <contour>
      <point x="500" y="486" type="line"/>
      <point x="671" y="486" type="line"/>
      <point x="671" y="730" type="line"/>
      <point x="500" y="730" type="line"/>
    </contour>
  </outline>
</glyph>
<glyph name="J.color1" format="2">
  <advance width="600"/>
  <unicode hex="004A"/>
  <outline>
    <contour>
      <point x="47" y="-4" type="line"/>
      <point x="298" y="-4" type="line"/>
      <point x="500" y="239" type="line"/>
      <point x="500" y="240" type="line"/>
      <point x="47" y="240" type="line"/>
    </contour>
  </outline>
</glyph>
<glyph name="K.color0" format="2">
  <advance width="600"/>
  <unicode hex="004B"/>
  <outline>
    <contour>
      <point x="640" y="0" type="line"/>
      <point x="951" y="0" type="line"/>
      <point x="951" y="1" type="line"/>
      <point x="678" y="363" type="line"/>
      <point x="464" y="240" type="line"/>
    </contour>
  </outline>
</glyph>
<glyph name="M.color1" format="2">
  <advance width="600"/>
  <unicode hex="004D"/>
  <outline>
    <contour>
      <point x="35" y="0" type="line"/>
      <point x="289" y="0" type="line"/>
      <point x="289" y="326" type="line"/>
      <point x="35" y="736" type="line"/>
    </contour>
  </outline>
</glyph>
<glyph name="Q.color2" format="2">
  <advance width="600"/>
  <unicode hex="0051"/>
  <outline>
    <contour>
      <point x="25" y="240" type="line"/>
      <point x="279" y="240" type="line"/>
      <point x="279" y="730" type="line"/>
      <point x="278" y="730" type="line"/>
      <point x="25" y="523" type="line"/>
    </contour>
  </outline>
</glyph>
<glyph name="T" format="2">
  <advance width="886"/>
  <unicode hex="0054"/>
  <anchor x="433" y="0" name="bottom"/>
  <anchor x="433" y="365" name="stroke"/>
  <anchor x="436" y="730" name="top"/>
  <outline>
    <contour>
      <point x="305" y="0" type="line"/>
      <point x="560" y="0" type="line"/>
      <point x="560" y="730" type="line"/>
      <point x="508" y="730" type="line"/>
      <point x="306" y="486" type="line"/>
    </contour>
    <contour>
      <point x="25" y="486" type="line"/>
      <point x="306" y="486" type="line"/>
      <point x="508" y="730" type="line"/>
      <point x="25" y="730" type="line"/>
    </contour>
    <contour>
      <point x="560" y="486" type="line"/>
      <point x="861" y="486" type="line"/>
      <point x="861" y="730" type="line"/>
      <point x="560" y="730" type="line"/>
    </contour>
  </outline>
</glyph>
<glyph name="W.color3" format="2">
  <advance width="600"/>
  <unicode hex="0057"/>
  <outline>
    <contour>
      <point x="776" y="0" type="line"/>
      <point x="1060" y="0" type="line"/>
      <point x="1328" y="729" type="line"/>
      <point x="1328" y="730" type="line"/>
      <point x="1044" y="730" type="line"/>
    </contour>
  </outline>
</glyph>
<glyph name="Y.color0" format="2">
  <advance width="600"/>
  <unicode hex="0059"/>
  <outline>
    <contour>
      <point x="288" y="285" type="line"/>
      <point x="289" y="285" type="line"/>
      <point x="436" y="467" type="line"/>
      <point x="273" y="730" type="line"/>
      <point x="0" y="730" type="line"/>
      <point x="0" y="729" type="line"/>
    </contour>
  </outline>
</glyph>
<glyph name="Z.color1" format="2">
  <advance width="600"/>
  <unicode hex="005A"/>
  <outline>
    <contour>
      <point x="244" y="119" type="line"/>
      <point x="784" y="535" type="line"/>
      <point x="644" y="730" type="line"/>
      <point x="41" y="245" type="line"/>
      <point x="41" y="244" type="line"/>
    </contour>
  </outline>
</glyph>
<glyph name="bracketleft.color0" format="2">
  <advance width="600"/>
  <unicode hex="005B"/>
  <outline>
    <contour>
      <point x="35" y="144" type="line"/>
      <point x="289" y="144" type="line"/>
      <point x="289" y="730" type="line"/>
      <point x="35" y="730" type="line"/>
    </contour>
  </outline>
</glyph>
<glyph name="bracketleft.color1" format="2">
  <advance width="600"/>
  <unicode hex="005B"/>
  <outline>
    <contour>
      <point x="35" y="-100" type="line"/>
      <point x="550" y="-100" type="line"/>
      <point x="550" y="144" type="line"/>
      <point x="35" y="144" type="line"/>
    </contour>
  </outline>
</glyph>
<glyph name="backslash" format="2">
  <advance width="628"/>
  <unicode hex="005C"/>
  <outline>
    <contour>
      <point x="399" y="-100" type="line"/>
      <point x="633" y="-100" type="line"/>
      <point x="633" y="-99" type="line"/>
      <point x="239" y="780" type="line"/>
      <point x="5" y="780" type="line"/>
      <point x="5" y="779" type="line"/>
    </contour>
  </outline>
</glyph>
<glyph name="bracketright.color2" format="2">
  <advance width="600"/>
  <unicode hex="005D"/>
  <outline>
    <contour>
      <point x="15" y="486" type="line"/>
      <point x="530" y="486" type="line"/>
      <point x="530" y="730" type="line"/>
      <point x="15" y="730" type="line"/>
    </contour>
  </outline>
</glyph>
<glyph name="asciicircum.color0" format="2">
  <advance width="600"/>
  <unicode hex="005E"/>
  <outline>
    <contour>
      <point x="35" y="308" type="line"/>
      <point x="291" y="308" type="line"/>
      <point x="546" y="730" type="line"/>
      <point x="314" y="730" type="line"/>
      <point x="35" y="309" type="line"/>
    </contour>
  </outline>
</glyph>
<glyph name="asciicircum.color1" format="2">
  <advance width="600"/>
  <unicode hex="005E"/>
  <outline>
    <contour>
      <point x="569" y="308" type="line"/>
      <point x="825" y="308" type="line"/>
      <point x="825" y="309" type="line"/>
      <point x="546" y="730" type="line"/>
      <point x="314" y="730" type="line"/>
    </contour>
  </outline>
</glyph>
<glyph name="d.color0" format="2">
  <advance width="600"/>
  <unicode hex="0064"/>
  <outline>
    <contour>
      <point x="862" y="289" type="line"/>
      <point x="863" y="289" type="line"/>
      <point x="863" y="794" type="line"/>
      <point x="609" y="794" type="line"/>
      <point x="609" y="530" type="line"/>
    </contour>
  </outline>
</glyph>
<glyph name="d.color1" format="2">
  <advance width="600"/>
  <unicode hex="0064"/>
  <outline>
    <contour>
      <point x="299" y="286" type="line"/>
      <point x="863" y="286" type="line"/>
      <point x="863" y="287" type="line"/>
      <point x="701" y="530" type="line"/>
      <point x="299" y="530" type="line"/>
    </contour>
  </outline>
</glyph>
<glyph name="f.color0" format="2">
  <advance width="600"/>
  <unicode hex="0066"/>
  <outline>
    <contour>
      <point x="289" y="173" type="line"/>
      <point x="623" y="173" type="line"/>
      <point x="623" y="417" type="line"/>
      <point x="36" y="417" type="line"/>
    </contour>
  </outline>
</glyph>
<glyph name="g.color0" format="2">
  <advance width="600"/>
  <unicode hex="0067"/>
  <outline>
    <contour>
      <point x="289" y="286" type="line"/>
      <point x="824" y="286" type="line"/>
      <point x="910" y="529" type="line"/>
      <point x="910" y="530" type="line"/>
      <point x="289" y="530" type="line"/>
    </contour>
  </outline>
</glyph>
<glyph name="g.color3" format="2">
  <advance width="600"/>
  <unicode hex="0067"/>
  <outline>
    <contour>
      <point x="35" y="266" type="line"/>
      <point x="289" y="266" type="line"/>
      <point x="289" y="530" type="line"/>
      <point x="288" y="530" type="line"/>
      <point x="35" y="423" type="line"/>
    </contour>
  </outline>
</glyph>
<glyph name="k" format="2">
  <advance width="865"/>
  <unicode hex="006B"/>
  <anchor x="395" y="0" name="bottom"/>
  <outline>
    <contour>
      <point x="35" y="0" type="line"/>
      <point x="289" y="0" type="line"/>
      <point x="288" y="794" type="line"/>
      <point x="35" y="794" type="line"/>
    </contour>
    <contour>
      <point x="588" y="0" type="line"/>
      <point x="842" y="0" type="line"/>
      <point x="842" y="193" type="line"/>
      <point x="588" y="193" type="line"/>
    </contour>
    <contour>
      <point x="289" y="193" type="line"/>
      <point x="842" y="193" type="line"/>
      <point x="842" y="194" type="line"/>
      <point x="735" y="437" type="line"/>
      <point x="289" y="437" type="line"/>
    </contour>
    <contour>
      <point x="481" y="437" type="line"/>
      <point x="735" y="437" type="line"/>
      <point x="735" y="703" type="line"/>
      <point x="734" y="703" type="line"/>
      <point x="481" y="596" type="line"/>
    </contour>
  </outline>
</glyph>
<glyph name="l.color0" format="2">
  <advance width="600"/>
  <unicode hex="006C"/>
  <outline>
    <contour>
      <point x="288" y="0" type="line"/>
      <point x="289" y="0" type="line"/>
      <point x="289" y="794" type="line"/>
      <point x="35" y="794" type="line"/>
      <point x="35" y="107" type="line"/>
    </contour>
  </outline>
</glyph>
<glyph name="m.color2" format="2">
  <advance width="600"/>
  <unicode hex="006D"/>
  <outline>
    <contour>
      <point x="289" y="286" type="line"/>
      <point x="772" y="286" type="line"/>
      <point x="772" y="287" type="line"/>
      <point x="705" y="530" type="line"/>
      <point x="289" y="530" type="line"/>
    </contour>
  </outline>
</glyph>
<glyph name="m.color4" format="2">
  <advance width="600"/>
  <unicode hex="006D"/>
  <outline>
    <contour>
      <point x="772" y="286" type="line"/>
      <point x="1275" y="286" type="line"/>
      <point x="1275" y="287" type="line"/>
      <point x="1168" y="530" type="line"/>
      <point x="772" y="530" type="line"/>
    </contour>
  </outline>
</glyph>
<glyph name="m" format="2">
  <advance width="1310"/>
  <unicode hex="006D"/>
  <outline>
    <contour>
      <point x="35" y="0" type="line"/>
      <point x="289" y="0" type="line"/>
      <point x="289" y="530" type="line"/>
      <point x="288" y="530" type="line"/>
      <point x="35" y="423" type="line"/>
    </contour>
    <contour>
      <point x="538" y="0" type="line"/>
      <point x="772" y="0" type="line"/>
      <point x="772" y="286" type="line"/>
      <point x="538" y="286" type="line"/>
    </contour>
    <contour>
      <point x="289" y="286" type="line"/>
      <point x="772" y="286" type="line"/>
      <point x="772" y="287" type="line"/>
      <point x="705" y="530" type="line"/>
      <point x="289" y="530" type="line"/>
    </contour>
    <contour>
      <point x="1021" y="-6" type="line"/>
      <point x="1022" y="-6" type="line"/>
      <point x="1275" y="41" type="line"/>
      <point x="1275" y="286" type="line"/>
      <point x="1021" y="286" type="line"/>
    </contour>
    <contour>
      <point x="772" y="286" type="line"/>
      <point x="1275" y="286" type="line"/>
      <point x="1275" y="287" type="line"/>
      <point x="1168" y="530" type="line"/>
      <point x="772" y="530" type="line"/>
    </contour>
  </outline>
</glyph>
<glyph name="p.color4" format="2">
  <advance width="600"/>
  <unicode hex="0070"/>
  <outline>
    <contour>
      <point x="599" y="0" type="line"/>
      <point x="600" y="0" type="line"/>
      <point x="853" y="107" type="line"/>
      <point x="853" y="286" type="line"/>
      <point x="599" y="286" type="line"/>
    </contour>
  </outline>
</glyph>
<glyph name="t.color3" format="2">
  <advance width="600"/>
  <unicode hex="0074"/>
  <outline>
    <contour>
      <point x="289" y="0" type="line"/>
      <point x="639" y="0" type="line"/>
      <point x="662" y="243" type="line"/>
      <point x="662" y="244" type="line"/>
      <point x="289" y="244" type="line"/>
    </contour>
  </outline>
</glyph>
<glyph name="v.color2" format="2">
  <advance width="600"/>
  <unicode hex="0076"/>
  <outline>
    <contour>
      <point x="35" y="244" type="line"/>
      <point x="289" y="244" type="line"/>
      <point x="289" y="530" type="line"/>
      <point x="288" y="530" type="line"/>
      <point x="35" y="530" type="line"/>
    </contour>
  </outline>
</glyph>
<glyph name="w.color2" format="2">
  <advance width="600"/>
  <unicode hex="0077"/>
  <outline>
    <contour>
      <point x="35" y="245" type="line"/>
      <point x="289" y="245" type="line"/>
      <point x="289" y="537" type="line"/>
      <point x="288" y="537" type="line"/>
      <point x="35" y="490" type="line"/>
    </contour>
  </outline>
</glyph>
<glyph name="x" format="2">
  <advance width="889"/>
  <unicode hex="0078"/>
  <outline>
    <contour>
      <point x="278" y="265" type="line"/>
      <point x="289" y="265" type="line"/>
      <point x="471" y="400" type="line"/>
      <point x="334" y="530" type="line"/>
      <point x="20" y="530" type="line"/>
      <point x="20" y="529" type="line"/>
    </contour>
    <contour>
      <point x="565" y="0" type="line"/>
      <point x="879" y="0" type="line"/>
      <point x="879" y="1" type="line"/>
      <point x="611" y="265" type="line"/>
      <point x="600" y="265" type="line"/>
      <point x="428" y="130" type="line"/>
    </contour>
    <contour>
      <point x="0" y="0" type="line"/>
      <point x="322" y="0" type="line"/>
      <point x="610" y="265" type="line"/>
      <point x="278" y="265" type="line"/>
      <point x="0" y="1" type="line"/>
    </contour>
    <contour>
      <point x="279" y="265" type="line"/>
      <point x="611" y="265" type="line"/>
      <point x="889" y="529" type="line"/>
      <point x="889" y="530" type="line"/>
      <point x="567" y="530" type="line"/>
    </contour>
  </outline>
</glyph>
<glyph name="y.color3" format="2">
  <advance width="600"/>
  <unicode hex="0079"/>
  <outline>
    <contour>
      <point x="35" y="266" type="line"/>
      <point x="289" y="266" type="line"/>
      <point x="289" y="536" type="line"/>
      <point x="288" y="536" type="line"/>
      <point x="35" y="489" type="line"/>
    </contour>
  </outline>
</glyph>
<glyph name="z.color1" format="2">
  <advance width="600"/>
  <unicode hex="007A"/>
  <outline>
    <contour>
      <point x="393" y="149" type="line"/>
      <point x="763" y="325" type="line"/>
      <point x="673" y="530" type="line"/>
      <point x="30" y="220" type="line"/>
      <point x="30" y="219" type="line"/>
    </contour>
  </outline>
</glyph>
<glyph name="z" format="2">
  <advance width="793"/>
  <unicode hex="007A"/>
  <anchor x="417" y="530" name="top"/>
  <outline>
    <contour>
      <point x="36" y="311" type="line"/>
      <point x="647" y="311" type="line"/>
      <point x="673" y="530" type="line"/>
      <point x="143" y="530" type="line"/>
      <point x="36" y="312" type="line"/>
    </contour>
    <contour>
      <point x="393" y="149" type="line"/>
      <point x="763" y="325" type="line"/>
      <point x="673" y="530" type="line"/>
      <point x="30" y="220" type="line"/>
      <point x="30" y="219" type="line"/>
    </contour>
    <contour>
      <point x="137" y="0" type="line"/>
      <point x="757" y="0" type="line"/>
      <point x="757" y="219" type="line"/>
      <point x="30" y="219" type="line"/>
    </contour>
  </outline>
</glyph>
<glyph name="braceleft.color2" format="2">
  <advance width="600"/>
  <unicode hex="007B"/>
  <outline>
    <contour>
      <point x="441" y="486" type="line"/>
      <point x="652" y="486" type="line"/>
      <point x="652" y="730" type="line"/>
      <point x="441" y="730" type="line"/>
    </contour>
  </outline>
</glyph>
<glyph name="braceleft.color4" format="2">
  <advance width="600"/>
  <unicode hex="007B"/>
  <outline>
    <contour>
      <point x="187" y="194" type="line"/>
      <point x="188" y="194" type="line"/>
      <point x="441" y="401" type="line"/>
      <point x="441" y="730" type="line"/>
      <point x="187" y="730" type="line"/>
    </contour>
  </outline>
</glyph>
<glyph name="braceleft" format="2">
  <advance width="687"/>
  <unicode hex="007B"/>
  <outline>
    <contour>
      <point x="441" y="-100" type="line"/>
      <point x="652" y="-100" type="line"/>
      <point x="652" y="144" type="line"/>
      <point x="441" y="144" type="line"/>
    </contour>
    <contour>
      <point x="35" y="194" type="line"/>
      <point x="187" y="194" type="line"/>
      <point x="187" y="438" type="line"/>
      <point x="35" y="438" type="line"/>
    </contour>
    <contour>
      <point x="441" y="486" type="line"/>
      <point x="652" y="486" type="line"/>
      <point x="652" y="730" type="line"/>
      <point x="441" y="730" type="line"/>
    </contour>
    <contour>
      <point x="187" y="-100" type="line"/>
      <point x="441" y="-100" type="line"/>
      <point x="441" y="229" type="line"/>
      <point x="188" y="436" type="line"/>
      <point x="187" y="436" type="line"/>
    </contour>
    <contour>
      <point x="187" y="194" type="line"/>
      <point x="188" y="194" type="line"/>
      <point x="441" y="401" type="line"/>
      <point x="441" y="730" type="line"/>
      <point x="187" y="730" type="line"/>
    </contour>
  </outline>
</glyph>
<glyph name="bar" format="2">
  <advance width="266"/>
  <unicode hex="007C"/>
  <outline>
    <contour>
      <point x="35" y="-100" type="line"/>
      <point x="231" y="-100" type="line"/>
      <point x="231" y="786" type="line"/>
      <point x="35" y="786" type="line"/>
    </contour>
  </outline>
</glyph>
<glyph name="braceright.color0" format="2">
  <advance width="600"/>
  <unicode hex="007D"/>
  <outline>
    <contour>
      <point x="479" y="194" type="line"/>
      <point x="480" y="194" type="line"/>
      <point x="480" y="730" type="line"/>
      <point x="226" y="730" type="line"/>
      <point x="226" y="401" type="line"/>
    </contour>
  </outline>
</glyph>
<glyph name="braceright.color2" format="2">
  <advance width="600"/>
  <unicode hex="007D"/>
  <outline>
    <contour>
      <point x="15" y="486" type="line"/>
      <point x="226" y="486" type="line"/>
      <point x="226" y="730" type="line"/>
      <point x="15" y="730" type="line"/>
    </contour>
  </outline>
</glyph>
<glyph name="braceright.color3" format="2">
  <advance width="600"/>
  <unicode hex="007D"/>
  <outline>
    <contour>
      <point x="480" y="192" type="line"/>
      <point x="632" y="192" type="line"/>
      <point x="632" y="436" type="line"/>
      <point x="480" y="436" type="line"/>
    </contour>
  </outline>
</glyph>
<glyph name="asciitilde.color0" format="2">
  <advance width="600"/>
  <unicode hex="007E"/>
  <outline>
    <contour>
      <point x="25" y="211" type="line"/>
      <point x="239" y="211" type="line"/>
      <point x="239" y="572" type="line"/>
      <point x="25" y="512" type="line"/>
    </contour>
  </outline>
</glyph>
<glyph name="asciitilde.color1" format="2">
  <advance width="600"/>
  <unicode hex="007E"/>
  <outline>
    <contour>
      <point x="569" y="260" type="line"/>
      <point x="783" y="260" type="line"/>
      <point x="783" y="559" type="line"/>
      <point x="569" y="559" type="line"/>
    </contour>
  </outline>
</glyph>
<glyph name="exclamdown.color1" format="2">
  <advance width="600"/>
  <unicode hex="00A1"/>
  <outline>
    <contour>
      <point x="35" y="496" type="line"/>
      <point x="267" y="496" type="line"/>
      <point x="267" y="700" type="line"/>
      <point x="35" y="700" type="line"/>
    </contour>
  </outline>
</glyph>
<glyph name="cent.color4" format="2">
  <advance width="600"/>
  <unicode hex="00A2"/>
  <outline>
    <contour>
      <point x="274" y="286" type="line"/>
      <point x="767" y="286" type="line"/>
      <point x="767" y="287" type="line"/>
      <point x="660" y="530" type="line"/>
      <point x="274" y="530" type="line"/>
    </contour>
  </outline>
</glyph>
<glyph name="cent" format="2">
  <advance width="767"/>
  <unicode hex="00A2"/>
  <anchor x="390" y="0" name="bottom"/>
  <anchor x="407" y="530" name="top"/>
  <outline>
    <contour>
      <point x="315" y="477" type="line"/>
      <point x="548" y="477" type="line"/>
      <point x="547" y="586" type="line"/>
      <point x="545" y="586" type="line"/>
      <point x="314" y="563" type="line"/>
    </contour>
    <contour>
      <point x="315" y="-56" type="line"/>
      <point x="317" y="-56" type="line"/>
      <point x="548" y="-33" type="line"/>
      <point x="548" y="34" type="line"/>
      <point x="315" y="34" type="line"/>
    </contour>
    <contour>
      <point x="127" y="0" type="line"/>
      <point x="660" y="0" type="line"/>
      <point x="767" y="243" type="line"/>
      <point x="767" y="244" type="line"/>
      <point x="20" y="244" type="line"/>
      <point x="20" y="243" type="line"/>
    </contour>
    <contour>
      <point x="20" y="244" type="line"/>
      <point x="274" y="244" type="line"/>
      <point x="274" y="530" type="line"/>
      <point x="273" y="530" type="line"/>
      <point x="20" y="423" type="line"/>
    </contour>
    <contour>
      <point x="274" y="286" type="line"/>
      <point x="767" y="286" type="line"/>
      <point x="767" y="287" type="line"/>
      <point x="660" y="530" type="line"/>
      <point x="274" y="530" type="line"/>
    </contour>
  </outline>
</glyph>
<glyph name="sterling.color2" format="2">
  <advance width="600"/>
  <unicode hex="00A3"/>
  <outline>
    <contour>
      <point x="135" y="244" type="line"/>
      <point x="388" y="244" type="line"/>
      <point x="389" y="730" type="line"/>
      <point x="388" y="730" type="line"/>
      <point x="135" y="523" type="line"/>
    </contour>
  </outline>
</glyph>
<glyph name="sterling" format="2">
  <advance width="1017"/>
  <unicode hex="00A3"/>
  <outline>
    <contour>
      <point x="35" y="0" type="line"/>
      <point x="982" y="0" type="line"/>
      <point x="982" y="244" type="line"/>
      <point x="35" y="244" type="line"/>
    </contour>
    <contour>
      <point x="70" y="279" type="line"/>
      <point x="892" y="280" type="line"/>
      <point x="892" y="454" type="line"/>
      <point x="70" y="453" type="line"/>
    </contour>
    <contour>
      <point x="135" y="244" type="line"/>
      <point x="388" y="244" type="line"/>
      <point x="389" y="730" type="line"/>
      <point x="388" y="730" type="line"/>
      <point x="135" y="523" type="line"/>
    </contour>
    <contour>
      <point x="389" y="486" type="line"/>
      <point x="982" y="486" type="line"/>
      <point x="982" y="487" type="line"/>
      <point x="780" y="730" type="line"/>
      <point x="389" y="730" type="line"/>
    </contour>
  </outline>
</glyph>
<glyph name="currency.color3" format="2">
  <advance width="600"/>
  <unicode hex="00A4"/>
  <outline>
    <contour>
      <point x="155" y="354" type="line"/>
      <point x="369" y="354" type="line"/>
      <point x="369" y="580" type="line"/>
      <point x="155" y="453" type="line"/>
    </contour>
  </outline>
</glyph>
<glyph name="currency.color4" format="2">
  <advance width="600"/>
  <unicode hex="00A4"/>
  <outline>
    <contour>
      <point x="155" y="453" type="line"/>
      <point x="369" y="580" type="line"/>
      <point x="279" y="706" type="line"/>
      <point x="65" y="579" type="line"/>
    </contour>
  </outline>
</glyph>
<glyph name="currency.color6" format="2">
  <advance width="600"/>
  <unicode hex="00A4"/>
  <outline>
    <contour>
      <point x="728" y="150" type="line"/>
      <point x="942" y="277" type="line"/>
      <point x="942" y="376" type="line"/>
      <point x="728" y="376" type="line"/>
    </contour>
  </outline>
</glyph>
<glyph name="yen.color2" format="2">
  <advance width="600"/>
  <unicode hex="00A5"/>
  <outline>
    <contour>
      <point x="288" y="285" type="line"/>
      <point x="289" y="285" type="line"/>
      <point x="436" y="467" type="line"/>
      <point x="273" y="730" type="line"/>
      <point x="0" y="730" type="line"/>
      <point x="0" y="729" type="line"/>
    </contour>
  </outline>
</glyph>
<glyph name="section.color0" format="2">
  <advance width="600"/>
  <unicode hex="00A7"/>
  <outline>
    <contour>
      <point x="244" y="143" type="line"/>
      <point x="427" y="398" type="line"/>
      <point x="204" y="509" type="line"/>
      <point x="165" y="453" type="line"/>
    </contour>
  </outline>
</glyph>
<glyph name="section.color2" format="2">
  <advance width="600"/>
  <unicode hex="00A7"/>
  <outline>
    <contour>
      <point x="233" y="-56" type="line"/>
      <point x="635" y="-56" type="line"/>
      <point x="609" y="188" type="line"/>
      <point x="31" y="188" type="line"/>
      <point x="31" y="187" type="line"/>
    </contour>
  </outline>
</glyph>
<glyph name="section.color3" format="2">
  <advance width="600"/>
  <unicode hex="00A7"/>
  <outline>
    <contour>
      <point x="224" y="486" type="line"/>
      <point x="802" y="486" type="line"/>
      <point x="802" y="487" type="line"/>
      <point x="600" y="730" type="line"/>
      <point x="198" y="730" type="line"/>
    </contour>
  </outline>
</glyph>
<glyph name="section.color4" format="2">
  <advance width="600"/>
  <unicode hex="00A7"/>
  <outline>
    <contour>
      <point x="635" y="-56" type="line"/>
      <point x="775" y="139" type="line"/>
      <point x="165" y="453" type="line"/>
      <point x="25" y="249" type="line"/>
      <point x="25" y="248" type="line"/>
    </contour>
  </outline>
</glyph>
<glyph name="section.color5" format="2">
  <advance width="600"/>
  <unicode hex="00A7"/>
  <outline>
    <contour>
      <point x="656" y="230" type="line"/>
      <point x="796" y="425" type="line"/>
      <point x="796" y="426" type="line"/>
      <point x="198" y="730" type="line"/>
      <point x="58" y="535" type="line"/>
    </contour>
  </outline>
</glyph>
<glyph name="dieresis.color1" format="2">
  <advance width="600"/>
  <unicode hex="00A8"/>
  <outline>
    <contour>
      <point x="82" y="640" type="line"/>
      <point x="258" y="640" type="line"/>
      <point x="258" y="772" type="line"/>
      <point x="82" y="772" type="line"/>
    </contour>
  </outline>
</glyph>
<glyph name="copyright.color2" format="2">
  <advance width="600"/>
  <unicode hex="00A9"/>
  <outline>
    <contour>
      <point x="77" y="-50" type="line"/>
      <point x="941" y="-50" type="line"/>
      <point x="964" y="-27" type="line"/>
      <point x="964" y="-26" type="line"/>
      <point x="77" y="-26" type="line"/>
    </contour>
  </outline>
</glyph>
<glyph name="copyright.color4" format="2">
  <advance width="600"/>
  <unicode hex="00A9"/>
  <outline>
    <contour>
      <point x="395" y="377" type="line"/>
      <point x="888" y="377" type="line"/>
      <point x="888" y="378" type="line"/>
      <point x="781" y="596" type="line"/>
      <point x="395" y="596" type="line"/>
    </contour>
  </outline>
</glyph>
<glyph name="ordfeminine" format="2">
  <advance width="557"/>
  <unicode hex="00AA"/>
  <outline>
    <contour>
      <point x="169" y="686" type="line"/>
      <point x="512" y="686" type="line"/>
      <point x="512" y="687" type="line"/>
      <point x="405" y="800" type="line"/>
      <point x="169" y="800" type="line"/>
    </contour>
    <contour>
      <point x="152" y="490" type="line"/>
      <point x="388" y="490" type="line"/>
      <point x="388" y="604" type="line"/>
      <point x="45" y="604" type="line"/>
      <point x="45" y="603" type="line"/>
    </contour>
    <contour>
      <point x="45" y="604" type="line"/>
      <point x="169" y="604" type="line"/>
      <point x="169" y="800" type="line"/>
      <point x="168" y="800" type="line"/>
      <point x="45" y="693" type="line"/>
    </contour>
    <contour>
      <point x="388" y="490" type="line"/>
      <point x="512" y="490" type="line"/>
      <point x="512" y="686" type="line"/>
      <point x="388" y="686" type="line"/>
    </contour>
  </outline>
</glyph>
<glyph name="guillemetleft.color3" format="2">
  <advance width="600"/>
  <unicode hex="00AB"/>
  <outline>
    <contour>
      <point x="566" y="0" type="line"/>
      <point x="803" y="0" type="line"/>
      <point x="803" y="4" type="line"/>
      <point x="562" y="261" type="line"/>
      <point x="324" y="261" type="line"/>
      <point x="324" y="260" type="line"/>
    </contour>
  </outline>
</glyph>
<glyph name="guillemetleft" format="2">
  <advance width="828"/>
  <unicode hex="00AB"/>
  <outline>
    <contour>
      <point x="324" y="261" type="line"/>
      <point x="562" y="261" type="line"/>
      <point x="803" y="529" type="line"/>
      <point x="803" y="530" type="line"/>
      <point x="566" y="530" type="line"/>
      <point x="324" y="262" type="line"/>
    </contour>
    <contour>
      <point x="277" y="0" type="line"/>
      <point x="514" y="0" type="line"/>
      <point x="514" y="4" type="line"/>
      <point x="273" y="261" type="line"/>
      <point x="35" y="261" type="line"/>
      <point x="35" y="260" type="line"/>
    </contour>
    <contour>
      <point x="35" y="261" type="line"/>
      <point x="273" y="261" type="line"/>
      <point x="514" y="529" type="line"/>
      <point x="514" y="530" type="line"/>
      <point x="277" y="530" type="line"/>
      <point x="35" y="262" type="line"/>
    </contour>
    <contour>
      <point x="566" y="0" type="line"/>
      <point x="803" y="0" type="line"/>
      <point x="803" y="4" type="line"/>
      <point x="562" y="261" type="line"/>
      <point x="324" y="261" type="line"/>
      <point x="324" y="260" type="line"/>
    </contour>
  </outline>
</glyph>
<glyph name="registered.color2" format="2">
  <advance width="600"/>
  <unicode hex="00AE"/>
  <outline>
    <contour>
      <point x="59" y="431" type="line"/>
      <point x="617" y="431" type="line"/>
      <point x="640" y="454" type="line"/>
      <point x="640" y="455" type="line"/>
      <point x="59" y="455" type="line"/>
    </contour>
  </outline>
</glyph>
<glyph name="registered.color5" format="2">
  <advance width="600"/>
  <unicode hex="00AE"/>
  <outline>
    <contour>
      <point x="404" y="528" type="line"/>
      <point x="405" y="528" type="line"/>
      <point x="558" y="575" type="line"/>
      <point x="558" y="652" type="line"/>
      <point x="404" y="652" type="line"/>
    </contour>
  </outline>
</glyph>
<glyph name="registered.color6" format="2">
  <advance width="600"/>
  <unicode hex="00AE"/>
  <outline>
    <contour>
      <point x="261" y="652" type="line"/>
      <point x="558" y="652" type="line"/>
      <point x="558" y="653" type="line"/>
      <point x="456" y="746" type="line"/>
      <point x="261" y="746" type="line"/>
    </contour>
  </outline>
</glyph>
<glyph name="registered.color8" format="2">
  <advance width="600"/>
  <unicode hex="00AE"/>
  <outline>
    <contour>
      <point x="616" y="455" type="line"/>
      <point x="640" y="455" type="line"/>
      <point x="640" y="777" type="line"/>
      <point x="617" y="800" type="line"/>
      <point x="616" y="800" type="line"/>
    </contour>
  </outline>
</glyph>
<glyph name="degree.color2" format="2">
  <advance width="600"/>
  <unicode hex="00B0"/>
  <outline>
    <contour>
      <point x="0" y="637" type="line"/>
      <point x="115" y="637" type="line"/>
      <point x="115" y="800" type="line"/>
      <point x="114" y="800" type="line"/>
      <point x="0" y="726" type="line"/>
    </contour>
  </outline>
</glyph>
<glyph name="plusminus.color1" format="2">
  <advance width="600"/>
  <unicode hex="00B1"/>
  <outline>
    <contour>
      <point x="25" y="418" type="line"/>
      <point x="264" y="418" type="line"/>
      <point x="264" y="622" type="line"/>
      <point x="25" y="622" type="line"/>
    </contour>
  </outline>
</glyph>
<glyph name="plusminus.color4" format="2">
  <advance width="600"/>
  <unicode hex="00B1"/>
  <outline>
    <contour>
      <point x="265" y="418" type="line"/>
      <point x="708" y="418" type="line"/>
      <point x="708" y="622" type="line"/>
      <point x="468" y="622" type="line"/>
    </contour>
  </outline>
</glyph>
<glyph name="micro.color3" format="2">
  <advance width="600"/>
  <unicode hex="00B5"/>
  <outline>
    <contour>
      <point x="498" y="0" type="line"/>
      <point x="499" y="0" type="line"/>
      <point x="692" y="204" type="line"/>
      <point x="692" y="530" type="line"/>
      <point x="498" y="530" type="line"/>
    </contour>
  </outline>
</glyph>
<glyph name="paragraph.color2" format="2">
  <advance width="600"/>
  <unicode hex="00B6"/>
  <outline>
    <contour>
      <point x="5" y="417" type="line"/>
      <point x="259" y="417" type="line"/>
      <point x="259" y="730" type="line"/>
      <point x="258" y="730" type="line"/>
      <point x="5" y="533" type="line"/>
    </contour>
  </outline>
</glyph>
<glyph name="paragraph.color4" format="2">
  <advance width="600"/>
  <unicode hex="00B6"/>
  <outline>
    <contour>
      <point x="754" y="0" type="line"/>
      <point x="1008" y="0" type="line"/>
      <point x="1008" y="486" type="line"/>
      <point x="754" y="486" type="line"/>
    </contour>
  </outline>
</glyph>
<glyph name="cedilla.color3" format="2">
  <advance width="600"/>
  <unicode hex="00B8"/>
  <outline>
    <contour>
      <point x="350" y="-260" type="line"/>
      <point x="351" y="-260" type="line"/>
      <point x="458" y="-204" type="line"/>
      <point x="458" y="-126" type="line"/>
      <point x="350" y="-126" type="line"/>
    </contour>
  </outline>
</glyph>
<glyph name="onesuperior.color3" format="2">
  <advance width="600"/>
  <unicode hex="00B9"/>
  <outline>
    <contour>
      <point x="105" y="660" type="line"/>
      <point x="179" y="660" type="line"/>
      <point x="281" y="794" type="line"/>
      <point x="105" y="794" type="line"/>
    </contour>
  </outline>
</glyph>
<glyph name="ordmasculine.color1" format="2">
  <advance width="600"/>
  <unicode hex="00BA"/>
  <outline>
    <contour>
      <point x="152" y="490" type="line"/>
      <point x="388" y="490" type="line"/>
      <point x="388" y="604" type="line"/>
      <point x="45" y="604" type="line"/>
      <point x="45" y="603" type="line"/>
    </contour>
  </outline>
</glyph>
<glyph name="onequarter.color5" format="2">
  <advance width="600"/>
  <unicode hex="00BC"/>
  <outline>
    <contour>
      <point x="606" y="59" type="line"/>
      <point x="787" y="59" type="line"/>
      <point x="787" y="196" type="line"/>
      <point x="617" y="196" type="line"/>
    </contour>
  </outline>
</glyph>
<glyph name="questiondown.color0" format="2">
  <advance width="600"/>
  <unicode hex="00BF"/>
  <outline>
    <contour>
      <point x="309" y="-30" type="line"/>
      <point x="700" y="-30" type="line"/>
      <point x="902" y="213" type="line"/>
      <point x="902" y="214" type="line"/>
      <point x="309" y="214" type="line"/>
    </contour>
  </outline>
</glyph>
<glyph name="questiondown.color4" format="2">
  <advance width="600"/>
  <unicode hex="00BF"/>
  <outline>
    <contour>
      <point x="459" y="496" type="line"/>
      <point x="691" y="496" type="line"/>
      <point x="691" y="700" type="line"/>
      <point x="459" y="700" type="line"/>
    </contour>
  </outline>
</glyph>
<glyph name="questiondown" format="2">
  <advance width="907"/>
  <unicode hex="00BF"/>
  <outline>
    <contour>
      <point x="309" y="-30" type="line"/>
      <point x="700" y="-30" type="line"/>
      <point x="902" y="213" type="line"/>
      <point x="902" y="214" type="line"/>
      <point x="309" y="214" type="line"/>
    </contour>
    <contour>
      <point x="55" y="234" type="line"/>
      <point x="458" y="234" type="line"/>
      <point x="458" y="438" type="line"/>
      <point x="257" y="438" type="line"/>
      <point x="55" y="235" type="line"/>
    </contour>
    <contour>
      <point x="308" y="-30" type="line"/>
      <point x="309" y="-30" type="line"/>
      <point x="309" y="234" type="line"/>
      <point x="55" y="234" type="line"/>
      <point x="55" y="177" type="line"/>
    </contour>
    <contour>
      <point x="458" y="234" type="line"/>
      <point x="459" y="234" type="line"/>
      <point x="712" y="431" type="line"/>
      <point x="712" y="468" type="line"/>
      <point x="458" y="468" type="line"/>
    </contour>
    <contour>
      <point x="459" y="496" type="line"/>
      <point x="691" y="496" type="line"/>
      <point x="691" y="700" type="line"/>
      <point x="459" y="700" type="line"/>
    </contour>
  </outline>
</glyph>
<glyph name="Aacute.color0" format="2">
  <advance width="600"/>
  <unicode hex="00C1"/>
  <outline>
    <contour>
      <point x="35" y="0" type="line"/>
      <point x="289" y="0" type="line"/>
      <point x="289" y="730" type="line"/>
      <point x="288" y="730" type="line"/>
      <point x="35" y="523" type="line"/>
    </contour>
  </outline>
</glyph>
<glyph name="Acircumflex.color0" format="2">
  <advance width="600"/>
  <unicode hex="00C2"/>
  <outline>
    <contour>
      <point x="35" y="0" type="line"/>
      <point x="289" y="0" type="line"/>
      <point x="289" y="730" type="line"/>
      <point x="288" y="730" type="line"/>
      <point x="35" y="523" type="line"/>
    </contour>
  </outline>
</glyph>
<glyph name="Acircumflex" format="2">
  <advance width="927"/>
  <unicode hex="00C2"/>
  <anchor x="462" y="0" name="bottom"/>
  <anchor x="486" y="730" name="top"/>
  <outline>
    <contour>
      <point x="35" y="0" type="line"/>
      <point x="289" y="0" type="line"/>
      <point x="289" y="730" type="line"/>
      <point x="288" y="730" type="line"/>
      <point x="35" y="523" type="line"/>
    </contour>
    <contour>
      <point x="289" y="173" type="line"/>
      <point x="638" y="173" type="line"/>
      <point x="638" y="417" type="line"/>
      <point x="289" y="417" type="line"/>
    </contour>
    <contour>
      <point x="638" y="0" type="line"/>
      <point x="892" y="0" type="line"/>
      <point x="892" y="486" type="line"/>
      <point x="638" y="486" type="line"/>
    </contour>
    <contour>
      <point x="289" y="486" type="line"/>
      <point x="892" y="486" type="line"/>
      <point x="892" y="487" type="line"/>
      <point x="690" y="730" type="line"/>
      <point x="289" y="730" type="line"/>
    </contour>
    <contour>
      <point x="569" y="760" type="line"/>
      <point x="746" y="760" type="line"/>
      <point x="746" y="761" type="line"/>
      <point x="578" y="900" type="line"/>
      <point x="425" y="867" type="line"/>
    </contour>
    <contour>
      <point x="240" y="760" type="line"/>
      <point x="414" y="760" type="line"/>
      <point x="578" y="900" type="line"/>
      <point x="394" y="900" type="line"/>
      <point x="240" y="761" type="line"/>
    </contour>
  </outline>
</glyph>
<glyph name="Atilde.color4" format="2">
  <advance width="600"/>
  <unicode hex="00C3"/>
  <outline>
    <contour>
      <point x="248" y="772" type="line"/>
      <point x="388" y="772" type="line"/>
      <point x="388" y="864" type="line"/>
      <point x="248" y="853" type="line"/>
    </contour>
  </outline>
</glyph>
<glyph name="Atilde.color5" format="2">
  <advance width="600"/>
  <unicode hex="00C3"/>
  <outline>
    <contour>
      <point x="577" y="806" type="line"/>
      <point x="716" y="827" type="line"/>
      <point x="716" y="915" type="line"/>
      <point x="577" y="915" type="line"/>
    </contour>
  </outline>
</glyph>
<glyph name="Adieresis.color3" format="2">
  <advance width="600"/>
  <unicode hex="00C4"/>
  <outline>
    <contour>
      <point x="289" y="486" type="line"/>
      <point x="892" y="486" type="line"/>
      <point x="892" y="487" type="line"/>
      <point x="690" y="730" type="line"/>
      <point x="289" y="730" type="line"/>
    </contour>
  </outline>
</glyph>
<glyph name="Aring.color7" format="2">
  <advance width="600"/>
  <unicode hex="00C5"/>
  <outline>
    <contour>
      <point x="414" y="864" type="line"/>
      <point x="644" y="864" type="line"/>
      <point x="644" y="865" type="line"/>
      <point x="584" y="948" type="line"/>
      <point x="414" y="948" type="line"/>
    </contour>
  </outline>
</glyph>
<glyph name="AE.color3" format="2">
  <advance width="600"/>
  <unicode hex="00C6"/>
  <outline>
    <contour>
      <point x="598" y="244" type="line"/>
      <point x="852" y="244" type="line"/>
      <point x="852" y="486" type="line"/>
      <point x="598" y="486" type="line"/>
    </contour>
  </outline>
</glyph>
<glyph name="Ccedilla.color3" format="2">
  <advance width="600"/>
  <unicode hex="00C7"/>
  <outline>
    <contour>
      <point x="451" y="-126" type="line"/>
      <point x="611" y="-126" type="line"/>
      <point x="611" y="-125" type="line"/>
      <point x="541" y="-32" type="line"/>
      <point x="487" y="-32" type="line"/>
    </contour>
  </outline>
</glyph>
<glyph name="Ccedilla.color4" format="2">
  <advance width="600"/>
  <unicode hex="00C7"/>
  <outline>
    <contour>
      <point x="335" y="-126" type="line"/>
      <point x="451" y="-126" type="line"/>
      <point x="527" y="-1" type="line"/>
      <point x="527" y="0" type="line"/>
      <point x="412" y="0" type="line"/>
      <point x="335" y="-125" type="line"/>
    </contour>
  </outline>
</glyph>
<glyph name="Egrave.color4" format="2">
  <advance width="600"/>
  <unicode hex="00C8"/>
  <outline>
    <contour>
      <point x="409" y="760" type="line"/>
      <point x="535" y="760" type="line"/>
      <point x="500" y="900" type="line"/>
      <point x="294" y="900" type="line"/>
      <point x="294" y="899" type="line"/>
    </contour>
  </outline>
</glyph>
<glyph name="Eacute" format="2">
  <advance width="832"/>
  <unicode hex="00C9"/>
  <anchor x="442" y="0" name="bottom"/>
  <anchor x="456" y="730" name="top"/>
  <outline>
    <contour>
      <point x="237" y="0" type="line"/>
      <point x="801" y="0" type="line"/>
      <point x="801" y="244" type="line"/>
      <point x="35" y="244" type="line"/>
      <point x="35" y="243" type="line"/>
    </contour>
    <contour>
      <point x="35" y="244" type="line"/>
      <point x="289" y="244" type="line"/>
      <point x="289" y="730" type="line"/>
      <point x="35" y="730" type="line"/>
    </contour>
    <contour>
      <point x="289" y="263" type="line"/>
      <point x="698" y="263" type="line"/>
      <point x="698" y="467" type="line"/>
      <point x="289" y="467" type="line"/>
    </contour>
    <contour>
      <point x="289" y="486" type="line"/>
      <point x="650" y="486" type="line"/>
      <point x="852" y="729" type="line"/>
      <point x="852" y="730" type="line"/>
      <point x="289" y="730" type="line"/>
    </contour>
    <contour>
      <point x="352" y="760" type="line"/>
      <point x="518" y="760" type="line"/>
      <point x="633" y="899" type="line"/>
      <point x="633" y="900" type="line"/>
      <point x="387" y="900" type="line"/>
    </contour>
  </outline>
</glyph>
<glyph name="Ecircumflex.color4" format="2">
  <advance width="600"/>
  <unicode hex="00CA"/>
  <outline>
    <contour>
      <point x="539" y="760" type="line"/>
      <point x="716" y="760" type="line"/>
      <point x="716" y="761" type="line"/>
      <point x="548" y="900" type="line"/>
      <point x="395" y="867" type="line"/>
    </contour>
  </outline>
</glyph>
<glyph name="Ecircumflex" format="2">
  <advance width="832"/>
  <unicode hex="00CA"/>
  <anchor x="442" y="0" name="bottom"/>
  <anchor x="456" y="730" name="top"/>
  <outline>
    <contour>
      <point x="237" y="0" type="line"/>
      <point x="801" y="0" type="line"/>
      <point x="801" y="244" type="line"/>
      <point x="35" y="244" type="line"/>
      <point x="35" y="243" type="line"/>
    </contour>
    <contour>
      <point x="35" y="244" type="line"/>
      <point x="289" y="244" type="line"/>
      <point x="289" y="730" type="line"/>
      <point x="35" y="730" type="line"/>
    </contour>
    <contour>
      <point x="289" y="263" type="line"/>
      <point x="698" y="263" type="line"/>
      <point x="698" y="467" type="line"/>
      <point x="289" y="467" type="line"/>
    </contour>
    <contour>
      <point x="289" y="486" type="line"/>
      <point x="650" y="486" type="line"/>
      <point x="852" y="729" type="line"/>
      <point x="852" y="730" type="line"/>
      <point x="289" y="730" type="line"/>
    </contour>
    <contour>
      <point x="539" y="760" type="line"/>
      <point x="716" y="760" type="line"/>
      <point x="716" y="761" type="line"/>
      <point x="548" y="900" type="line"/>
      <point x="395" y="867" type="line"/>
    </contour>
    <contour>
      <point x="210" y="760" type="line"/>
      <point x="384" y="760" type="line"/>
      <point x="548" y="900" type="line"/>
      <point x="364" y="900" type="line"/>
      <point x="210" y="761" type="line"/>
    </contour>
  </outline>
</glyph>
<glyph name="Igrave.color5" format="2">
  <advance width="600"/>
  <unicode hex="00CC"/>
  <outline>
    <contour>
      <point x="304" y="760" type="line"/>
      <point x="430" y="760" type="line"/>
      <point x="395" y="900" type="line"/>
      <point x="189" y="900" type="line"/>
      <point x="189" y="899" type="line"/>
    </contour>
  </outline>
</glyph>
<glyph name="Iacute.color5" format="2">
  <advance width="600"/>
  <unicode hex="00CD"/>
  <outline>
    <contour>
      <point x="247" y="760" type="line"/>
      <point x="413" y="760" type="line"/>
      <point x="528" y="899" type="line"/>
      <point x="528" y="900" type="line"/>
      <point x="282" y="900" type="line"/>
    </contour>
  </outline>
</glyph>
<glyph name="Eth.color0" format="2">
  <advance width="600"/>
  <unicode hex="00D0"/>
  <outline>
    <contour>
      <point x="5" y="269" type="line"/>
      <point x="599" y="269" type="line"/>
      <point x="599" y="453" type="line"/>
      <point x="5" y="453" type="line"/>
    </contour>
  </outline>
</glyph>
<glyph name="Ntilde" format="2">
  <advance width="897"/>
  <unicode hex="00D1"/>
  <anchor x="445" y="0" name="bottom"/>
  <anchor x="456" y="730" name="top"/>
  <outline>
    <contour>
      <point x="862" y="172" type="line"/>
      <point x="862" y="730" type="line"/>
      <point x="608" y="730" type="line"/>
      <point x="608" y="397" type="line"/>
    </contour>
    <contour>
      <point x="35" y="0" type="line"/>
      <point x="289" y="0" type="line"/>
      <point x="289" y="345" type="line"/>
      <point x="35" y="571" type="line"/>
    </contour>
    <contour>
      <point x="682" y="-6" type="line"/>
      <point x="683" y="-6" type="line"/>
      <point x="862" y="171" type="line"/>
      <point x="862" y="172" type="line"/>
      <point x="228" y="736" type="line"/>
      <point x="227" y="736" type="line"/>
      <point x="35" y="572" type="line"/>
      <point x="35" y="571" type="line"/>
    </contour>
    <contour>
      <point x="218" y="772" type="line"/>
      <point x="358" y="772" type="line"/>
      <point x="358" y="864" type="line"/>
      <point x="218" y="853" type="line"/>
    </contour>
    <contour>
      <point x="547" y="806" type="line"/>
      <point x="686" y="827" type="line"/>
      <point x="686" y="915" type="line"/>
      <point x="547" y="915" type="line"/>
    </contour>
    <contour>
      <point x="537" y="756" type="line"/>
      <point x="548" y="756" type="line"/>
      <point x="686" y="826" type="line"/>
      <point x="686" y="827" type="line"/>
      <point x="367" y="923" type="line"/>
      <point x="356" y="923" type="line"/>
      <point x="218" y="854" type="line"/>
      <point x="218" y="853" type="line"/>
    </contour>
  </outline>
</glyph>
<glyph name="Ograve.color2" format="2">
  <advance width="600"/>
  <unicode hex="00D2"/>
  <outline>
    <contour>
      <point x="25" y="244" type="line"/>
      <point x="279" y="244" type="line"/>
      <point x="279" y="730" type="line"/>
      <point x="278" y="730" type="line"/>
      <point x="25" y="523" type="line"/>
    </contour>
  </outline>
</glyph>
<glyph name="Uacute" format="2">
  <advance width="907"/>
  <unicode hex="00DA"/>
  <anchor x="442" y="0" name="bottom"/>
  <anchor x="811" y="730" name="horn"/>
  <anchor x="476" y="730" name="top"/>
  <outline>
    <contour>
      <point x="628" y="0" type="line"/>
      <point x="629" y="0" type="line"/>
      <point x="882" y="207" type="line"/>
      <point x="882" y="730" type="line"/>
      <point x="628" y="730" type="line"/>
    </contour>
    <contour>
      <point x="237" y="0" type="line"/>
      <point x="628" y="0" type="line"/>
      <point x="628" y="244" type="line"/>
      <point x="35" y="244" type="line"/>
      <point x="35" y="243" type="line"/>
    </contour>
    <contour>
      <point x="35" y="244" type="line"/>
      <point x="289" y="244" type="line"/>
      <point x="289" y="730" type="line"/>
      <point x="35" y="730" type="line"/>
    </contour>
    <contour>
      <point x="372" y="760" type="line"/>
      <point x="538" y="760" type="line"/>
      <point x="653" y="899" type="line"/>
      <point x="653" y="900" type="line"/>
      <point x="407" y="900" type="line"/>
    </contour>
  </outline>
</glyph>
<glyph name="Yacute.color3" format="2">
  <advance width="600"/>
  <unicode hex="00DD"/>
  <outline>
    <contour>
      <point x="339" y="760" type="line"/>
      <point x="505" y="760" type="line"/>
      <point x="620" y="899" type="line"/>
      <point x="620" y="900" type="line"/>
      <point x="374" y="900" type="line"/>
    </contour>
  </outline>
</glyph>
<glyph name="germandbls.color2" format="2">
  <advance width="600"/>
  <unicode hex="00DF"/>
  <outline>
    <contour>
      <point x="279" y="556" type="line"/>
      <point x="414" y="556" type="line"/>
      <point x="414" y="800" type="line"/>
      <point x="279" y="800" type="line"/>
    </contour>
  </outline>
</glyph>
<glyph name="germandbls.color3" format="2">
  <advance width="600"/>
  <unicode hex="00DF"/>
  <outline>
    <contour>
      <point x="668" y="416" type="line"/>
      <point x="668" y="603" type="line"/>
      <point x="415" y="800" type="line"/>
      <point x="414" y="800" type="line"/>
      <point x="414" y="507" type="line"/>
    </contour>
  </outline>
</glyph>
<glyph name="agrave" format="2">
  <advance width="907"/>
  <unicode hex="00E0"/>
  <anchor x="431" y="0" name="bottom"/>
  <anchor x="492" y="530" name="top"/>
  <outline>
    <contour>
      <point x="279" y="286" type="line"/>
      <point x="862" y="286" type="line"/>
      <point x="862" y="287" type="line"/>
      <point x="755" y="530" type="line"/>
      <point x="279" y="530" type="line"/>
    </contour>
    <contour>
      <point x="132" y="0" type="line"/>
      <point x="608" y="0" type="line"/>
      <point x="608" y="244" type="line"/>
      <point x="25" y="244" type="line"/>
      <point x="25" y="243" type="line"/>
    </contour>
    <contour>
      <point x="25" y="244" type="line"/>
      <point x="279" y="244" type="line"/>
      <point x="279" y="530" type="line"/>
      <point x="278" y="530" type="line"/>
      <point x="25" y="423" type="line"/>
    </contour>
    <contour>
      <point x="608" y="0" type="line"/>
      <point x="862" y="0" type="line"/>
      <point x="862" y="286" type="line"/>
      <point x="608" y="286" type="line"/>
    </contour>
    <contour>
      <point x="443" y="590" type="line"/>
      <point x="549" y="590" type="line"/>
      <point x="514" y="820" type="line"/>
      <point x="338" y="820" type="line"/>
      <point x="338" y="819" type="line"/>
    </contour>
  </outline>
</glyph>
<glyph name="adieresis.color4" format="2">
  <advance width="600"/>
  <unicode hex="00E4"/>
  <outline>
    <contour>
      <point x="518" y="640" type="line"/>
      <point x="694" y="640" type="line"/>
      <point x="694" y="772" type="line"/>
      <point x="518" y="772" type="line"/>
    </contour>
  </outline>
</glyph>
<glyph name="adieresis" format="2">
  <advance width="907"/>
  <unicode hex="00E4"/>
  <anchor x="431" y="0" name="bottom"/>
  <anchor x="492" y="750" name="top"/>
  <outline>
    <contour>
      <point x="279" y="286" type="line"/>
      <point x="862" y="286" type="line"/>
      <point x="862" y="287" type="line"/>
      <point x="755" y="530" type="line"/>
      <point x="279" y="530" type="line"/>
    </contour>
    <contour>
      <point x="132" y="0" type="line"/>
      <point x="608" y="0" type="line"/>
      <point x="608" y="244" type="line"/>
      <point x="25" y="244" type="line"/>
      <point x="25" y="243" type="line"/>
    </contour>
    <contour>
      <point x="25" y="244" type="line"/>
      <point x="279" y="244" type="line"/>
      <point x="279" y="530" type="line"/>
      <point x="278" y="530" type="line"/>
      <point x="25" y="423" type="line"/>
    </contour>
    <contour>
      <point x="608" y="0" type="line"/>
      <point x="862" y="0" type="line"/>
      <point x="862" y="286" type="line"/>
      <point x="608" y="286" type="line"/>
    </contour>
    <contour>
      <point x="518" y="640" type="line"/>
      <point x="694" y="640" type="line"/>
      <point x="694" y="772" type="line"/>
      <point x="518" y="772" type="line"/>
    </contour>
    <contour>
      <point x="270" y="640" type="line"/>
      <point x="446" y="640" type="line"/>
      <point x="446" y="772" type="line"/>
      <point x="270" y="772" type="line"/>
    </contour>
  </outline>
</glyph>
<glyph name="aring.color6" format="2">
  <advance width="600"/>
  <unicode hex="00E5"/>
  <outline>
    <contour>
      <point x="324" y="684" type="line"/>
      <point x="420" y="684" type="line"/>
      <point x="420" y="820" type="line"/>
      <point x="419" y="820" type="line"/>
      <point x="324" y="758" type="line"/>
    </contour>
  </outline>
</glyph>
<glyph name="aring.color7" format="2">
  <advance width="600"/>
  <unicode hex="00E5"/>
  <outline>
    <contour>
      <point x="554" y="602" type="line"/>
      <point x="555" y="602" type="line"/>
      <point x="650" y="658" type="line"/>
      <point x="650" y="736" type="line"/>
      <point x="554" y="736" type="line"/>
    </contour>
  </outline>
</glyph>
<glyph name="aring" format="2">
  <advance width="907"/>
  <unicode hex="00E5"/>
  <anchor x="431" y="0" name="bottom"/>
  <anchor x="486" y="770" name="top"/>
  <outline>
    <contour>
      <point x="279" y="286" type="line"/>
      <point x="862" y="286" type="line"/>
      <point x="862" y="287" type="line"/>
      <point x="755" y="530" type="line"/>
      <point x="279" y="530" type="line"/>
    </contour>
    <contour>
      <point x="132" y="0" type="line"/>
      <point x="608" y="0" type="line"/>
      <point x="608" y="244" type="line"/>
      <point x="25" y="244" type="line"/>
      <point x="25" y="243" type="line"/>
    </contour>
    <contour>
      <point x="25" y="244" type="line"/>
      <point x="279" y="244" type="line"/>
      <point x="279" y="530" type="line"/>
      <point x="278" y="530" type="line"/>
      <point x="25" y="423" type="line"/>
    </contour>
    <contour>
      <point x="608" y="0" type="line"/>
      <point x="862" y="0" type="line"/>
      <point x="862" y="286" type="line"/>
      <point x="608" y="286" type="line"/>
    </contour>
    <contour>
      <point x="420" y="736" type="line"/>
      <point x="650" y="736" type="line"/>
      <point x="650" y="737" type="line"/>
      <point x="590" y="820" type="line"/>
      <point x="420" y="820" type="line"/>
    </contour>
    <contour>
      <point x="384" y="602" type="line"/>
      <point x="554" y="602" type="line"/>
      <point x="554" y="684" type="line"/>
      <point x="324" y="684" type="line"/>
      <point x="324" y="683" type="line"/>
    </contour>
    <contour>
      <point x="324" y="684" type="line"/>
      <point x="420" y="684" type="line"/>
      <point x="420" y="820" type="line"/>
      <point x="419" y="820" type="line"/>
      <point x="324" y="758" type="line"/>
    </contour>
    <contour>
      <point x="554" y="602" type="line"/>
      <point x="555" y="602" type="line"/>
      <point x="650" y="658" type="line"/>
      <point x="650" y="736" type="line"/>
      <point x="554" y="736" type="line"/>
    </contour>
  </outline>
</glyph>
<glyph name="ae.color5" format="2">
  <advance width="600"/>
  <unicode hex="00E6"/>
  <outline>
    <contour>
      <point x="862" y="0" type="line"/>
      <point x="1348" y="0" type="line"/>
      <point x="1455" y="199" type="line"/>
      <point x="1455" y="200" type="line"/>
      <point x="862" y="200" type="line"/>
    </contour>
  </outline>
</glyph>
<glyph name="ae" format="2">
  <advance width="1485"/>
  <unicode hex="00E6"/>
  <anchor x="442" y="530" name="top"/>
  <outline>
    <contour>
      <point x="132" y="0" type="line"/>
      <point x="862" y="0" type="line"/>
      <point x="608" y="244" type="line"/>
      <point x="25" y="244" type="line"/>
      <point x="25" y="243" type="line"/>
    </contour>
    <contour>
      <point x="608" y="330" type="line"/>
      <point x="1455" y="330" type="line"/>
      <point x="1455" y="331" type="line"/>
      <point x="1348" y="530" type="line"/>
      <point x="862" y="530" type="line"/>
    </contour>
    <contour>
      <point x="25" y="244" type="line"/>
      <point x="279" y="244" type="line"/>
      <point x="279" y="530" type="line"/>
      <point x="278" y="530" type="line"/>
      <point x="25" y="423" type="line"/>
    </contour>
    <contour>
      <point x="862" y="0" type="line"/>
      <point x="862" y="286" type="line"/>
      <point x="608" y="286" type="line"/>
      <point x="608" y="239" type="line"/>
    </contour>
    <contour>
      <point x="279" y="286" type="line"/>
      <point x="862" y="286" type="line"/>
      <point x="862" y="287" type="line"/>
      <point x="755" y="530" type="line"/>
      <point x="279" y="530" type="line"/>
    </contour>
    <contour>
      <point x="862" y="0" type="line"/>
      <point x="1348" y="0" type="line"/>
      <point x="1455" y="199" type="line"/>
      <point x="1455" y="200" type="line"/>
      <point x="862" y="200" type="line"/>
    </contour>
    <contour>
      <point x="862" y="220" type="line"/>
      <point x="1201" y="221" type="line"/>
      <point x="1201" y="311" type="line"/>
      <point x="851" y="311" type="line"/>
    </contour>
    <contour>
      <point x="1201" y="221" type="line"/>
      <point x="1202" y="221" type="line"/>
      <point x="1455" y="298" type="line"/>
      <point x="1455" y="330" type="line"/>
      <point x="1201" y="330" type="line"/>
    </contour>
  </outline>
</glyph>
<glyph name="ccedilla" format="2">
  <advance width="782"/>
  <unicode hex="00E7"/>
  <anchor x="395" y="0" name="bottom"/>
  <anchor x="412" y="530" name="top"/>
  <outline>
    <contour>
      <point x="132" y="0" type="line"/>
      <point x="665" y="0" type="line"/>
      <point x="772" y="243" type="line"/>
      <point x="772" y="244" type="line"/>
      <point x="25" y="244" type="line"/>
      <point x="25" y="243" type="line"/>
    </contour>
    <contour>
      <point x="25" y="244" type="line"/>
      <point x="279" y="244" type="line"/>
      <point x="279" y="530" type="line"/>
      <point x="278" y="530" type="line"/>
      <point x="25" y="423" type="line"/>
    </contour>
    <contour>
      <point x="279" y="286" type="line"/>
      <point x="772" y="286" type="line"/>
      <point x="772" y="287" type="line"/>
      <point x="665" y="530" type="line"/>
      <point x="279" y="530" type="line"/>
    </contour>
    <contour>
      <point x="364" y="-126" type="line"/>
      <point x="524" y="-126" type="line"/>
      <point x="524" y="-125" type="line"/>
      <point x="454" y="-32" type="line"/>
      <point x="400" y="-32" type="line"/>
    </contour>
    <contour>
      <point x="248" y="-126" type="line"/>
      <point x="364" y="-126" type="line"/>
      <point x="440" y="-1" type="line"/>
      <point x="440" y="0" type="line"/>
      <point x="325" y="0" type="line"/>
      <point x="248" y="-125" type="line"/>
    </contour>
    <contour>
      <point x="258" y="-260" type="line"/>
      <point x="416" y="-260" type="line"/>
      <point x="416" y="-168" type="line"/>
      <point x="198" y="-168" type="line"/>
      <point x="198" y="-169" type="line"/>
    </contour>
    <contour>
      <point x="416" y="-260" type="line"/>
      <point x="417" y="-260" type="line"/>
      <point x="524" y="-204" type="line"/>
      <point x="524" y="-126" type="line"/>
      <point x="416" y="-126" type="line"/>
    </contour>
  </outline>
</glyph>
<glyph name="egrave.color5" format="2">
  <advance width="600"/>
  <unicode hex="00E8"/>
  <outline>
    <contour>
      <point x="423" y="590" type="line"/>
      <point x="529" y="590" type="line"/>
      <point x="494" y="820" type="line"/>
      <point x="318" y="820" type="line"/>
      <point x="318" y="819" type="line"/>
    </contour>
  </outline>
</glyph>
<glyph name="egrave" format="2">
  <advance width="902"/>
  <unicode hex="00E8"/>
  <anchor x="411" y="0" name="bottom"/>
  <anchor x="472" y="530" name="top"/>
  <outline>
    <contour>
      <point x="132" y="0" type="line"/>
      <point x="765" y="0" type="line"/>
      <point x="872" y="199" type="line"/>
      <point x="872" y="200" type="line"/>
      <point x="25" y="200" type="line"/>
      <point x="25" y="199" type="line"/>
    </contour>
    <contour>
      <point x="25" y="200" type="line"/>
      <point x="279" y="200" type="line"/>
      <point x="279" y="530" type="line"/>
      <point x="278" y="530" type="line"/>
      <point x="25" y="423" type="line"/>
    </contour>
    <contour>
      <point x="279" y="220" type="line"/>
      <point x="618" y="221" type="line"/>
      <point x="618" y="311" type="line"/>
      <point x="279" y="311" type="line"/>
    </contour>
    <contour>
      <point x="279" y="330" type="line"/>
      <point x="872" y="330" type="line"/>
      <point x="872" y="331" type="line"/>
      <point x="765" y="530" type="line"/>
      <point x="279" y="530" type="line"/>
    </contour>
    <contour>
      <point x="618" y="221" type="line"/>
      <point x="619" y="221" type="line"/>
      <point x="872" y="298" type="line"/>
      <point x="872" y="330" type="line"/>
      <point x="618" y="330" type="line"/>
    </contour>
    <contour>
      <point x="423" y="590" type="line"/>
      <point x="529" y="590" type="line"/>
      <point x="494" y="820" type="line"/>
      <point x="318" y="820" type="line"/>
      <point x="318" y="819" type="line"/>
    </contour>
  </outline>
</glyph>
<glyph name="eacute.color2" format="2">
  <advance width="600"/>
  <unicode hex="00E9"/>
  <outline>
    <contour>
      <point x="279" y="220" type="line"/>
      <point x="618" y="221" type="line"/>
      <point x="618" y="311" type="line"/>
      <point x="279" y="311" type="line"/>
    </contour>
  </outline>
</glyph>
<glyph name="eacute.color5" format="2">
  <advance width="600"/>
  <unicode hex="00E9"/>
  <outline>
    <contour>
      <point x="379" y="590" type="line"/>
      <point x="525" y="590" type="line"/>
      <point x="630" y="819" type="line"/>
      <point x="630" y="820" type="line"/>
      <point x="414" y="820" type="line"/>
    </contour>
  </outline>
</glyph>
<glyph name="igrave.color1" format="2">
  <advance width="600"/>
  <unicode hex="00EC"/>
  <outline>
    <contour>
      <point x="130" y="590" type="line"/>
      <point x="236" y="590" type="line"/>
      <point x="201" y="820" type="line"/>
      <point x="25" y="820" type="line"/>
      <point x="25" y="819" type="line"/>
    </contour>
  </outline>
</glyph>
<glyph name="eth.color1" format="2">
  <advance width="600"/>
  <unicode hex="00F0"/>
  <outline>
    <contour>
      <point x="862" y="289" type="line"/>
      <point x="863" y="289" type="line"/>
      <point x="573" y="794" type="line"/>
      <point x="299" y="794" type="line"/>
      <point x="299" y="793" type="line"/>
      <point x="479" y="530" type="line"/>
    </contour>
  </outline>
</glyph>
<glyph name="eth.color2" format="2">
  <advance width="600"/>
  <unicode hex="00F0"/>
  <outline>
    <contour>
      <point x="147" y="0" type="line"/>
      <point x="609" y="0" type="line"/>
      <point x="609" y="244" type="line"/>
      <point x="45" y="244" type="line"/>
      <point x="45" y="243" type="line"/>
    </contour>
  </outline>
</glyph>
<glyph name="eth.color4" format="2">
  <advance width="600"/>
  <unicode hex="00F0"/>
  <outline>
    <contour>
      <point x="609" y="0" type="line"/>
      <point x="610" y="0" type="line"/>
      <point x="863" y="107" type="line"/>
      <point x="863" y="286" type="line"/>
      <point x="609" y="286" type="line"/>
    </contour>
  </outline>
</glyph>
<glyph name="eth" format="2">
  <advance width="898"/>
  <unicode hex="00F0"/>
  <anchor x="462" y="530" name="top"/>
  <outline>
    <contour>
      <point x="234" y="543" type="line"/>
      <point x="800" y="659" type="line"/>
      <point x="800" y="660" type="line"/>
      <point x="764" y="799" type="line"/>
      <point x="198" y="683" type="line"/>
      <point x="198" y="682" type="line"/>
    </contour>
    <contour>
      <point x="862" y="289" type="line"/>
      <point x="863" y="289" type="line"/>
      <point x="573" y="794" type="line"/>
      <point x="299" y="794" type="line"/>
      <point x="299" y="793" type="line"/>
      <point x="479" y="530" type="line"/>
    </contour>
    <contour>
      <point x="147" y="0" type="line"/>
      <point x="609" y="0" type="line"/>
      <point x="609" y="244" type="line"/>
      <point x="45" y="244" type="line"/>
      <point x="45" y="243" type="line"/>
    </contour>
    <contour>
      <point x="45" y="244" type="line"/>
      <point x="299" y="244" type="line"/>
      <point x="299" y="530" type="line"/>
      <point x="298" y="530" type="line"/>
      <point x="45" y="423" type="line"/>
    </contour>
    <contour>
      <point x="609" y="0" type="line"/>
      <point x="610" y="0" type="line"/>
      <point x="863" y="107" type="line"/>
      <point x="863" y="286" type="line"/>
      <point x="609" y="286" type="line"/>
    </contour>
    <contour>
      <point x="299" y="286" type="line"/>
      <point x="863" y="286" type="line"/>
      <point x="863" y="287" type="line"/>
      <point x="711" y="530" type="line"/>
      <point x="299" y="530" type="line"/>
    </contour>
  </outline>
</glyph>
<glyph name="ntilde.color4" format="2">
  <advance width="600"/>
  <unicode hex="00F1"/>
  <outline>
    <contour>
      <point x="532" y="640" type="line"/>
      <point x="671" y="630" type="line"/>
      <point x="671" y="749" type="line"/>
      <point x="532" y="749" type="line"/>
    </contour>
  </outline>
</glyph>
<glyph name="ograve" format="2">
  <advance width="917"/>
  <unicode hex="00F2"/>
  <anchor x="462" y="0" name="bottom"/>
  <anchor x="745" y="530" name="horn"/>
  <anchor x="492" y="530" name="top"/>
  <outline>
    <contour>
      <point x="279" y="286" type="line"/>
      <point x="892" y="286" type="line"/>
      <point x="892" y="287" type="line"/>
      <point x="785" y="530" type="line"/>
      <point x="279" y="530" type="line"/>
    </contour>
    <contour>
      <point x="132" y="0" type="line"/>
      <point x="638" y="0" type="line"/>
      <point x="638" y="244" type="line"/>
      <point x="25" y="244" type="line"/>
      <point x="25" y="243" type="line"/>
    </contour>
    <contour>
      <point x="25" y="244" type="line"/>
      <point x="279" y="244" type="line"/>
      <point x="279" y="530" type="line"/>
      <point x="278" y="530" type="line"/>
      <point x="25" y="423" type="line"/>
    </contour>
    <contour>
      <point x="638" y="0" type="line"/>
      <point x="639" y="0" type="line"/>
      <point x="892" y="107" type="line"/>
      <point x="892" y="286" type="line"/>
      <point x="638" y="286" type="line"/>
    </contour>
    <contour>
      <point x="443" y="590" type="line"/>
      <point x="549" y="590" type="line"/>
      <point x="514" y="820" type="line"/>
      <point x="338" y="820" type="line"/>
      <point x="338" y="819" type="line"/>
    </contour>
  </outline>
</glyph>
<glyph name="ocircumflex.color4" format="2">
  <advance width="600"/>
  <unicode hex="00F4"/>
  <outline>
    <contour>
      <point x="535" y="592" type="line"/>
      <point x="712" y="592" type="line"/>
      <point x="712" y="593" type="line"/>
      <point x="567" y="770" type="line"/>
      <point x="424" y="739" type="line"/>
    </contour>
  </outline>
</glyph>
<glyph name="ocircumflex.color5" format="2">
  <advance width="600"/>
  <unicode hex="00F4"/>
  <outline>
    <contour>
      <point x="246" y="592" type="line"/>
      <point x="420" y="592" type="line"/>
      <point x="567" y="770" type="line"/>
      <point x="393" y="770" type="line"/>
      <point x="246" y="593" type="line"/>
    </contour>
  </outline>
</glyph>
<glyph name="otilde" format="2">
  <advance width="917"/>
  <unicode hex="00F5"/>
  <anchor x="462" y="0" name="bottom"/>
  <anchor x="745" y="530" name="horn"/>
  <anchor x="492" y="530" name="top"/>
  <outline>
    <contour>
      <point x="279" y="286" type="line"/>
      <point x="892" y="286" type="line"/>
      <point x="892" y="287" type="line"/>
      <point x="785" y="530" type="line"/>
      <point x="279" y="530" type="line"/>
    </contour>
    <contour>
      <point x="132" y="0" type="line"/>
      <point x="638" y="0" type="line"/>
      <point x="638" y="244" type="line"/>
      <point x="25" y="244" type="line"/>
      <point x="25" y="243" type="line"/>
    </contour>
    <contour>
      <point x="25" y="244" type="line"/>
      <point x="279" y="244" type="line"/>
      <point x="279" y="530" type="line"/>
      <point x="278" y="530" type="line"/>
      <point x="25" y="423" type="line"/>
    </contour>
    <contour>
      <point x="638" y="0" type="line"/>
      <point x="639" y="0" type="line"/>
      <point x="892" y="107" type="line"/>
      <point x="892" y="286" type="line"/>
      <point x="638" y="286" type="line"/>
    </contour>
    <contour>
      <point x="259" y="601" type="line"/>
      <point x="399" y="601" type="line"/>
      <point x="399" y="703" type="line"/>
      <point x="259" y="722" type="line"/>
    </contour>
    <contour>
      <point x="558" y="640" type="line"/>
      <point x="697" y="630" type="line"/>
      <point x="697" y="749" type="line"/>
      <point x="558" y="749" type="line"/>
    </contour>
    <contour>
      <point x="548" y="590" type="line"/>
      <point x="549" y="590" type="line"/>
      <point x="697" y="629" type="line"/>
      <point x="697" y="630" type="line"/>
      <point x="409" y="762" type="line"/>
      <point x="408" y="762" type="line"/>
      <point x="259" y="723" type="line"/>
      <point x="259" y="722" type="line"/>
    </contour>
  </outline>
</glyph>
<glyph name="odieresis.color3" format="2">
  <advance width="600"/>
  <unicode hex="00F6"/>
  <outline>
    <contour>
      <point x="638" y="0" type="line"/>
      <point x="639" y="0" type="line"/>
      <point x="892" y="107" type="line"/>
      <point x="892" y="286" type="line"/>
      <point x="638" y="286" type="line"/>
    </contour>
  </outline>
</glyph>
<glyph name="divide.color1" format="2">
  <advance width="600"/>
  <unicode hex="00F7"/>
  <outline>
    <contour>
      <point x="215" y="25" type="line"/>
      <point x="447" y="25" type="line"/>
      <point x="447" y="229" type="line"/>
      <point x="215" y="229" type="line"/>
    </contour>
  </outline>
</glyph>
<glyph name="divide.color2" format="2">
  <advance width="600"/>
  <unicode hex="00F7"/>
  <outline>
    <contour>
      <point x="215" y="473" type="line"/>
      <point x="447" y="473" type="line"/>
      <point x="447" y="677" type="line"/>
      <point x="215" y="677" type="line"/>
    </contour>
  </outline>
</glyph>
<glyph name="oslash.color0" format="2">
  <advance width="600"/>
  <unicode hex="00F8"/>
  <outline>
    <contour>
      <point x="35" y="0" type="line"/>
      <point x="148" y="0" type="line"/>
      <point x="914" y="529" type="line"/>
      <point x="914" y="530" type="line"/>
      <point x="801" y="530" type="line"/>
      <point x="35" y="2" type="line"/>
    </contour>
  </outline>
</glyph>
<glyph name="oslash.color1" format="2">
  <advance width="600"/>
  <unicode hex="00F8"/>
  <outline>
    <contour>
      <point x="325" y="286" type="line"/>
      <point x="938" y="286" type="line"/>
      <point x="938" y="287" type="line"/>
      <point x="831" y="530" type="line"/>
      <point x="325" y="530" type="line"/>
    </contour>
  </outline>
</glyph>
<glyph name="oslash" format="2">
  <advance width="949"/>
  <unicode hex="00F8"/>
  <anchor x="508" y="0" name="bottom"/>
  <anchor x="791" y="530" name="horn"/>
  <anchor x="538" y="530" name="top"/>
  <outline>
    <contour>
      <point x="35" y="0" type="line"/>
      <point x="148" y="0" type="line"/>
      <point x="914" y="529" type="line"/>
      <point x="914" y="530" type="line"/>
      <point x="801" y="530" type="line"/>
      <point x="35" y="2" type="line"/>
    </contour>
    <contour>
      <point x="325" y="286" type="line"/>
      <point x="938" y="286" type="line"/>
      <point x="938" y="287" type="line"/>
      <point x="831" y="530" type="line"/>
      <point x="325" y="530" type="line"/>
    </contour>
    <contour>
      <point x="178" y="0" type="line"/>
      <point x="684" y="0" type="line"/>
      <point x="684" y="244" type="line"/>
      <point x="71" y="244" type="line"/>
      <point x="71" y="243" type="line"/>
    </contour>
    <contour>
      <point x="71" y="244" type="line"/>
      <point x="325" y="244" type="line"/>
      <point x="325" y="530" type="line"/>
      <point x="324" y="530" type="line"/>
      <point x="71" y="423" type="line"/>
    </contour>
    <contour>
      <point x="684" y="0" type="line"/>
      <point x="685" y="0" type="line"/>
      <point x="938" y="107" type="line"/>
      <point x="938" y="286" type="line"/>
      <point x="684" y="286" type="line"/>
    </contour>
  </outline>
</glyph>
<glyph name="ugrave" format="2">
  <advance width="887"/>
  <unicode hex="00F9"/>
  <anchor x="442" y="0" name="bottom"/>
  <anchor x="812" y="530" name="horn"/>
  <anchor x="462" y="530" name="top"/>
  <outline>
    <contour>
      <point x="598" y="0" type="line"/>
      <point x="599" y="0" type="line"/>
      <point x="852" y="0" type="line"/>
      <point x="852" y="530" type="line"/>
      <point x="598" y="530" type="line"/>
    </contour>
    <contour>
      <point x="142" y="0" type="line"/>
      <point x="598" y="0" type="line"/>
      <point x="598" y="244" type="line"/>
      <point x="35" y="244" type="line"/>
      <point x="35" y="243" type="line"/>
    </contour>
    <contour>
      <point x="35" y="244" type="line"/>
      <point x="289" y="244" type="line"/>
      <point x="289" y="536" type="line"/>
      <point x="288" y="536" type="line"/>
      <point x="35" y="489" type="line"/>
    </contour>
    <contour>
      <point x="413" y="590" type="line"/>
      <point x="519" y="590" type="line"/>
      <point x="484" y="820" type="line"/>
      <point x="308" y="820" type="line"/>
      <point x="308" y="819" type="line"/>
    </contour>
  </outline>
</glyph>
<glyph name="udieresis.color4" format="2">
  <advance width="600"/>
  <unicode hex="00FC"/>
  <outline>
    <contour>
      <point x="240" y="640" type="line"/>
      <point x="416" y="640" type="line"/>
      <point x="416" y="772" type="line"/>
      <point x="240" y="772" type="line"/>
    </contour>
  </outline>
</glyph>
<glyph name="yacute.color2" format="2">
  <advance width="600"/>
  <unicode hex="00FD"/>
  <outline>
    <contour>
      <point x="142" y="22" type="line"/>
      <point x="570" y="22" type="line"/>
      <point x="570" y="266" type="line"/>
      <point x="35" y="266" type="line"/>
      <point x="35" y="265" type="line"/>
    </contour>
  </outline>
</glyph>
<glyph name="yacute.color4" format="2">
  <advance width="600"/>
  <unicode hex="00FD"/>
  <outline>
    <contour>
      <point x="349" y="590" type="line"/>
      <point x="495" y="590" type="line"/>
      <point x="600" y="819" type="line"/>
      <point x="600" y="820" type="line"/>
      <point x="384" y="820" type="line"/>
    </contour>
  </outline>
</glyph>
<glyph name="amacron" format="2">
  <advance width="907"/>
  <unicode hex="0101"/>
  <anchor x="431" y="0" name="bottom"/>
  <anchor x="492" y="530" name="top"/>
  <outline>
    <contour>
      <point x="279" y="286" type="line"/>
      <point x="862" y="286" type="line"/>
      <point x="862" y="287" type="line"/>
      <point x="755" y="530" type="line"/>
      <point x="279" y="530" type="line"/>
    </contour>
    <contour>
      <point x="132" y="0" type="line"/>
      <point x="608" y="0" type="line"/>
      <point x="608" y="244" type="line"/>
      <point x="25" y="244" type="line"/>
      <point x="25" y="243" type="line"/>
    </contour>
    <contour>
      <point x="25" y="244" type="line"/>
      <point x="279" y="244" type="line"/>
      <point x="279" y="530" type="line"/>
      <point x="278" y="530" type="line"/>
      <point x="25" y="423" type="line"/>
    </contour>
    <contour>
      <point x="608" y="0" type="line"/>
      <point x="862" y="0" type="line"/>
      <point x="862" y="286" type="line"/>
      <point x="608" y="286" type="line"/>
    </contour>
    <contour>
      <point x="279" y="628" type="line"/>
      <point x="705" y="628" type="line"/>
      <point x="705" y="740" type="line"/>
      <point x="279" y="740" type="line"/>
    </contour>
  </outline>
</glyph>
<glyph name="Abreve.color4" format="2">
  <advance width="600"/>
  <unicode hex="0102"/>
  <outline>
    <contour>
      <point x="354" y="760" type="line"/>
      <point x="599" y="760" type="line"/>
      <point x="693" y="860" type="line"/>
      <point x="260" y="860" type="line"/>
    </contour>
  </outline>
</glyph>
<glyph name="abreve.color5" format="2">
  <advance width="600"/>
  <unicode hex="0103"/>
  <outline>
    <contour>
      <point x="269" y="720" type="line"/>
      <point x="415" y="720" type="line"/>
      <point x="378" y="780" type="line"/>
      <point x="232" y="780" type="line"/>
      <point x="232" y="778" type="line"/>
    </contour>
  </outline>
</glyph>
<glyph name="Aogonek.color4" format="2">
  <advance width="600"/>
  <unicode hex="0104"/>
  <outline>
    <contour>
      <point x="631" y="-86" type="line"/>
      <point x="789" y="-86" type="line"/>
      <point x="873" y="-1" type="line"/>
      <point x="873" y="0" type="line"/>
      <point x="688" y="0" type="line"/>
      <point x="631" y="-85" type="line"/>
    </contour>
  </outline>
</glyph>
<glyph name="Aogonek.color5" format="2">
  <advance width="600"/>
  <unicode hex="0104"/>
  <outline>
    <contour>
      <point x="788" y="-240" type="line"/>
      <point x="789" y="-240" type="line"/>
      <point x="789" y="-86" type="line"/>
      <point x="631" y="-86" type="line"/>
      <point x="631" y="-184" type="line"/>
    </contour>
  </outline>
</glyph>
<glyph name="Aogonek.color6" format="2">
  <advance width="600"/>
  <unicode hex="0104"/>
  <outline>
    <contour>
      <point x="789" y="-240" type="line"/>
      <point x="897" y="-240" type="line"/>
      <point x="957" y="-129" type="line"/>
      <point x="957" y="-128" type="line"/>
      <point x="789" y="-128" type="line"/>
    </contour>
  </outline>
</glyph>
<glyph name="Aogonek" format="2">
  <advance width="927"/>
  <unicode hex="0104"/>
  <anchor x="462" y="0" name="bottom"/>
  <anchor x="486" y="730" name="top"/>
  <outline>
    <contour>
      <point x="35" y="0" type="line"/>
      <point x="289" y="0" type="line"/>
      <point x="289" y="730" type="line"/>
      <point x="288" y="730" type="line"/>
      <point x="35" y="523" type="line"/>
    </contour>
    <contour>
      <point x="289" y="173" type="line"/>
      <point x="638" y="173" type="line"/>
      <point x="638" y="417" type="line"/>
      <point x="289" y="417" type="line"/>
    </contour>
    <contour>
      <point x="638" y="0" type="line"/>
      <point x="892" y="0" type="line"/>
      <point x="892" y="486" type="line"/>
      <point x="638" y="486" type="line"/>
    </contour>
    <contour>
      <point x="289" y="486" type="line"/>
      <point x="892" y="486" type="line"/>
      <point x="892" y="487" type="line"/>
      <point x="690" y="730" type="line"/>
      <point x="289" y="730" type="line"/>
    </contour>
    <contour>
      <point x="631" y="-86" type="line"/>
      <point x="789" y="-86" type="line"/>
      <point x="873" y="-1" type="line"/>
      <point x="873" y="0" type="line"/>
      <point x="688" y="0" type="line"/>
      <point x="631" y="-85" type="line"/>
    </contour>
    <contour>
      <point x="788" y="-240" type="line"/>
      <point x="789" y="-240" type="line"/>
      <point x="789" y="-86" type="line"/>
      <point x="631" y="-86" type="line"/>
      <point x="631" y="-184" type="line"/>
    </contour>
    <contour>
      <point x="789" y="-240" type="line"/>
      <point x="897" y="-240" type="line"/>
      <point x="957" y="-129" type="line"/>
      <point x="957" y="-128" type="line"/>
      <point x="789" y="-128" type="line"/>
    </contour>
  </outline>
</glyph>
<glyph name="aogonek" format="2">
  <advance width="907"/>
  <unicode hex="0105"/>
  <anchor x="431" y="0" name="bottom"/>
  <anchor x="492" y="530" name="top"/>
  <outline>
    <contour>
      <point x="279" y="286" type="line"/>
      <point x="862" y="286" type="line"/>
      <point x="862" y="287" type="line"/>
      <point x="755" y="530" type="line"/>
      <point x="279" y="530" type="line"/>
    </contour>
    <contour>
      <point x="132" y="0" type="line"/>
      <point x="608" y="0" type="line"/>
      <point x="608" y="244" type="line"/>
      <point x="25" y="244" type="line"/>
      <point x="25" y="243" type="line"/>
    </contour>
    <contour>
      <point x="25" y="244" type="line"/>
      <point x="279" y="244" type="line"/>
      <point x="279" y="530" type="line"/>
      <point x="278" y="530" type="line"/>
      <point x="25" y="423" type="line"/>
    </contour>
    <contour>
      <point x="608" y="0" type="line"/>
      <point x="862" y="0" type="line"/>
      <point x="862" y="286" type="line"/>
      <point x="608" y="286" type="line"/>
    </contour>
    <contour>
      <point x="304" y="-86" type="line"/>
      <point x="462" y="-86" type="line"/>
      <point x="546" y="-1" type="line"/>
      <point x="546" y="0" type="line"/>
      <point x="361" y="0" type="line"/>
      <point x="304" y="-85" type="line"/>
    </contour>
    <contour>
      <point x="461" y="-240" type="line"/>
      <point x="462" y="-240" type="line"/>
      <point x="462" y="-86" type="line"/>
      <point x="304" y="-86" type="line"/>
      <point x="304" y="-184" type="line"/>
    </contour>
    <contour>
      <point x="462" y="-240" type="line"/>
      <point x="570" y="-240" type="line"/>
      <point x="630" y="-129" type="line"/>
      <point x="630" y="-128" type="line"/>
      <point x="462" y="-128" type="line"/>
    </contour>
  </outline>
</glyph>
<glyph name="Cacute" format="2">
  <advance width="862"/>
  <unicode hex="0106"/>
  <anchor x="482" y="0" name="bottom"/>
  <anchor x="476" y="730" name="top"/>
  <outline>
    <contour>
      <point x="227" y="0" type="line"/>
      <point x="660" y="0" type="line"/>
      <point x="862" y="243" type="line"/>
      <point x="862" y="244" type="line"/>
      <point x="25" y="244" type="line"/>
      <point x="25" y="243" type="line"/>
    </contour>
    <contour>
      <point x="25" y="244" type="line"/>
      <point x="279" y="244" type="line"/>
      <point x="279" y="730" type="line"/>
      <point x="278" y="730" type="line"/>
      <point x="25" y="523" type="line"/>
    </contour>
    <contour>
      <point x="279" y="486" type="line"/>
      <point x="862" y="486" type="line"/>
      <point x="862" y="487" type="line"/>
      <point x="660" y="730" type="line"/>
      <point x="279" y="730" type="line"/>
    </contour>
    <contour>
      <point x="372" y="760" type="line"/>
      <point x="538" y="760" type="line"/>
      <point x="653" y="899" type="line"/>
      <point x="653" y="900" type="line"/>
      <point x="407" y="900" type="line"/>
    </contour>
  </outline>
</glyph>
<glyph name="cacute.color3" format="2">
  <advance width="600"/>
  <unicode hex="0107"/>
  <outline>
    <contour>
      <point x="319" y="590" type="line"/>
      <point x="465" y="590" type="line"/>
      <point x="570" y="819" type="line"/>
      <point x="570" y="820" type="line"/>
      <point x="354" y="820" type="line"/>
    </contour>
  </outline>
</glyph>
<glyph name="Ccircumflex.color3" format="2">
  <advance width="600"/>
  <unicode hex="0108"/>
  <outline>
    <contour>
      <point x="559" y="760" type="line"/>
      <point x="736" y="760" type="line"/>
      <point x="736" y="761" type="line"/>
      <point x="568" y="900" type="line"/>
      <point x="415" y="867" type="line"/>
    </contour>
  </outline>
</glyph>
<glyph name="Ccircumflex" format="2">
  <advance width="862"/>
  <unicode hex="0108"/>
  <anchor x="482" y="0" name="bottom"/>
  <anchor x="476" y="730" name="top"/>
  <outline>
    <contour>
      <point x="227" y="0" type="line"/>
      <point x="660" y="0" type="line"/>
      <point x="862" y="243" type="line"/>
      <point x="862" y="244" type="line"/>
      <point x="25" y="244" type="line"/>
      <point x="25" y="243" type="line"/>
    </contour>
    <contour>
      <point x="25" y="244" type="line"/>
      <point x="279" y="244" type="line"/>
      <point x="279" y="730" type="line"/>
      <point x="278" y="730" type="line"/>
      <point x="25" y="523" type="line"/>
    </contour>
    <contour>
      <point x="279" y="486" type="line"/>
      <point x="862" y="486" type="line"/>
      <point x="862" y="487" type="line"/>
      <point x="660" y="730" type="line"/>
      <point x="279" y="730" type="line"/>
    </contour>
    <contour>
      <point x="559" y="760" type="line"/>
      <point x="736" y="760" type="line"/>
      <point x="736" y="761" type="line"/>
      <point x="568" y="900" type="line"/>
      <point x="415" y="867" type="line"/>
    </contour>
    <contour>
      <point x="230" y="760" type="line"/>
      <point x="404" y="760" type="line"/>
      <point x="568" y="900" type="line"/>
      <point x="384" y="900" type="line"/>
      <point x="230" y="761" type="line"/>
    </contour>
  </outline>
</glyph>
<glyph name="ccircumflex.color4" format="2">
  <advance width="600"/>
  <unicode hex="0109"/>
  <outline>
    <contour>
      <point x="166" y="592" type="line"/>
      <point x="340" y="592" type="line"/>
      <point x="487" y="770" type="line"/>
      <point x="313" y="770" type="line"/>
      <point x="166" y="593" type="line"/>
    </contour>
  </outline>
</glyph>
<glyph name="ccircumflex" format="2">
  <advance width="782"/>
  <unicode hex="0109"/>
  <anchor x="395" y="0" name="bottom"/>
  <anchor x="414" y="750" name="top"/>
  <outline>
    <contour>
      <point x="132" y="0" type="line"/>
      <point x="665" y="0" type="line"/>
      <point x="772" y="243" type="line"/>
      <point x="772" y="244" type="line"/>
      <point x="25" y="244" type="line"/>
      <point x="25" y="243" type="line"/>
    </contour>
    <contour>
      <point x="25" y="244" type="line"/>
      <point x="279" y="244" type="line"/>
      <point x="279" y="530" type="line"/>
      <point x="278" y="530" type="line"/>
      <point x="25" y="423" type="line"/>
    </contour>
    <contour>
      <point x="279" y="286" type="line"/>
      <point x="772" y="286" type="line"/>
      <point x="772" y="287" type="line"/>
      <point x="665" y="530" type="line"/>
      <point x="279" y="530" type="line"/>
    </contour>
    <contour>
      <point x="455" y="592" type="line"/>
      <point x="632" y="592" type="line"/>
      <point x="632" y="593" type="line"/>
      <point x="487" y="770" type="line"/>
      <point x="344" y="739" type="line"/>
    </contour>
    <contour>
      <point x="166" y="592" type="line"/>
      <point x="340" y="592" type="line"/>
      <point x="487" y="770" type="line"/>
      <point x="313" y="770" type="line"/>
      <point x="166" y="593" type="line"/>
    </contour>
  </outline>
</glyph>
<glyph name="Ccaron.color1" format="2">
  <advance width="600"/>
  <unicode hex="010C"/>
  <outline>
    <contour>
      <point x="25" y="244" type="line"/>
      <point x="279" y="244" type="line"/>
      <point x="279" y="730" type="line"/>
      <point x="278" y="730" type="line"/>
      <point x="25" y="523" type="line"/>
    </contour>
  </outline>
</glyph>
<glyph name="Ccaron.color3" format="2">
  <advance width="600"/>
  <unicode hex="010C"/>
  <outline>
    <contour>
      <point x="392" y="760" type="line"/>
      <point x="545" y="793" type="line"/>
      <point x="401" y="900" type="line"/>
      <point x="224" y="900" type="line"/>
      <point x="224" y="899" type="line"/>
    </contour>
  </outline>
</glyph>
<glyph name="Ccaron" format="2">
  <advance width="862"/>
  <unicode hex="010C"/>
  <anchor x="482" y="0" name="bottom"/>
  <anchor x="476" y="730" name="top"/>
  <outline>
    <contour>
      <point x="227" y="0" type="line"/>
      <point x="660" y="0" type="line"/>
      <point x="862" y="243" type="line"/>
      <point x="862" y="244" type="line"/>
      <point x="25" y="244" type="line"/>
      <point x="25" y="243" type="line"/>
    </contour>
    <contour>
      <point x="25" y="244" type="line"/>
      <point x="279" y="244" type="line"/>
      <point x="279" y="730" type="line"/>
      <point x="278" y="730" type="line"/>
      <point x="25" y="523" type="line"/>
    </contour>
    <contour>
      <point x="279" y="486" type="line"/>
      <point x="862" y="486" type="line"/>
      <point x="862" y="487" type="line"/>
      <point x="660" y="730" type="line"/>
      <point x="279" y="730" type="line"/>
    </contour>
    <contour>
      <point x="392" y="760" type="line"/>
      <point x="545" y="793" type="line"/>
      <point x="401" y="900" type="line"/>
      <point x="224" y="900" type="line"/>
      <point x="224" y="899" type="line"/>
    </contour>
    <contour>
      <point x="392" y="760" type="line"/>
      <point x="566" y="760" type="line"/>
      <point x="730" y="899" type="line"/>
      <point x="730" y="900" type="line"/>
      <point x="556" y="900" type="line"/>
    </contour>
  </outline>
</glyph>
<glyph name="ccaron.color3" format="2">
  <advance width="600"/>
  <unicode hex="010D"/>
  <outline>
    <contour>
      <point x="311" y="582" type="line"/>
      <point x="454" y="613" type="line"/>
      <point x="340" y="750" type="line"/>
      <point x="163" y="750" type="line"/>
      <point x="163" y="749" type="line"/>
    </contour>
  </outline>
</glyph>
<glyph name="Dcaron.color0" format="2">
  <advance width="600"/>
  <unicode hex="010E"/>
  <outline>
    <contour>
      <point x="289" y="486" type="line"/>
      <point x="922" y="486" type="line"/>
      <point x="922" y="487" type="line"/>
      <point x="720" y="730" type="line"/>
      <point x="289" y="730" type="line"/>
    </contour>
  </outline>
</glyph>
<glyph name="Dcaron.color4" format="2">
  <advance width="600"/>
  <unicode hex="010E"/>
  <outline>
    <contour>
      <point x="392" y="760" type="line"/>
      <point x="545" y="793" type="line"/>
      <point x="401" y="900" type="line"/>
      <point x="224" y="900" type="line"/>
      <point x="224" y="899" type="line"/>
    </contour>
  </outline>
</glyph>
<glyph name="Dcaron.color5" format="2">
  <advance width="600"/>
  <unicode hex="010E"/>
  <outline>
    <contour>
      <point x="392" y="760" type="line"/>
      <point x="566" y="760" type="line"/>
      <point x="730" y="899" type="line"/>
      <point x="730" y="900" type="line"/>
      <point x="556" y="900" type="line"/>
    </contour>
  </outline>
</glyph>
<glyph name="dcaron.color3" format="2">
  <advance width="600"/>
  <unicode hex="010F"/>
  <outline>
    <contour>
      <point x="45" y="244" type="line"/>
      <point x="299" y="244" type="line"/>
      <point x="299" y="530" type="line"/>
      <point x="298" y="530" type="line"/>
      <point x="45" y="423" type="line"/>
    </contour>
  </outline>
</glyph>
<glyph name="Dcroat.color4" format="2">
  <advance width="600"/>
  <unicode hex="0110"/>
  <outline>
    <contour>
      <point x="714" y="-4" type="line"/>
      <point x="715" y="-4" type="line"/>
      <point x="968" y="193" type="line"/>
      <point x="968" y="486" type="line"/>
      <point x="714" y="486" type="line"/>
    </contour>
  </outline>
</glyph>
<glyph name="ebreve.color3" format="2">
  <advance width="600"/>
  <unicode hex="0115"/>
  <outline>
    <contour>
      <point x="279" y="330" type="line"/>
      <point x="872" y="330" type="line"/>
      <point x="872" y="331" type="line"/>
      <point x="765" y="530" type="line"/>
      <point x="279" y="530" type="line"/>
    </contour>
  </outline>
</glyph>
<glyph name="Edotaccent.color4" format="2">
  <advance width="600"/>
  <unicode hex="0116"/>
  <outline>
    <contour>
      <point x="368" y="768" type="line"/>
      <point x="544" y="768" type="line"/>
      <point x="544" y="900" type="line"/>
      <point x="368" y="900" type="line"/>
    </contour>
  </outline>
</glyph>
<glyph name="eogonek.color5" format="2">
  <advance width="600"/>
  <unicode hex="0119"/>
  <outline>
    <contour>
      <point x="284" y="-86" type="line"/>
      <point x="442" y="-86" type="line"/>
      <point x="526" y="-1" type="line"/>
      <point x="526" y="0" type="line"/>
      <point x="341" y="0" type="line"/>
      <point x="284" y="-85" type="line"/>
    </contour>
  </outline>
</glyph>
<glyph name="eogonek" format="2">
  <advance width="902"/>
  <unicode hex="0119"/>
  <anchor x="411" y="0" name="bottom"/>
  <anchor x="472" y="530" name="top"/>
  <outline>
    <contour>
      <point x="132" y="0" type="line"/>
      <point x="765" y="0" type="line"/>
      <point x="872" y="199" type="line"/>
      <point x="872" y="200" type="line"/>
      <point x="25" y="200" type="line"/>
      <point x="25" y="199" type="line"/>
    </contour>
    <contour>
      <point x="25" y="200" type="line"/>
      <point x="279" y="200" type="line"/>
      <point x="279" y="530" type="line"/>
      <point x="278" y="530" type="line"/>
      <point x="25" y="423" type="line"/>
    </contour>
    <contour>
      <point x="279" y="220" type="line"/>
      <point x="618" y="221" type="line"/>
      <point x="618" y="311" type="line"/>
      <point x="279" y="311" type="line"/>
    </contour>
    <contour>
      <point x="279" y="330" type="line"/>
      <point x="872" y="330" type="line"/>
      <point x="872" y="331" type="line"/>
      <point x="765" y="530" type="line"/>
      <point x="279" y="530" type="line"/>
    </contour>
    <contour>
      <point x="618" y="221" type="line"/>
      <point x="619" y="221" type="line"/>
      <point x="872" y="298" type="line"/>
      <point x="872" y="330" type="line"/>
      <point x="618" y="330" type="line"/>
    </contour>
    <contour>
      <point x="284" y="-86" type="line"/>
      <point x="442" y="-86" type="line"/>
      <point x="526" y="-1" type="line"/>
      <point x="526" y="0" type="line"/>
      <point x="341" y="0" type="line"/>
      <point x="284" y="-85" type="line"/>
    </contour>
    <contour>
      <point x="441" y="-240" type="line"/>
      <point x="442" y="-240" type="line"/>
      <point x="442" y="-86" type="line"/>
      <point x="284" y="-86" type="line"/>
      <point x="284" y="-184" type="line"/>
    </contour>
    <contour>
      <point x="442" y="-240" type="line"/>
      <point x="550" y="-240" type="line"/>
      <point x="610" y="-129" type="line"/>
      <point x="610" y="-128" type="line"/>
      <point x="442" y="-128" type="line"/>
    </contour>
  </outline>
</glyph>
<glyph name="Ecaron.color4" format="2">
  <advance width="600"/>
  <unicode hex="011A"/>
  <outline>
    <contour>
      <point x="372" y="760" type="line"/>
      <point x="525" y="793" type="line"/>
      <point x="381" y="900" type="line"/>
      <point x="204" y="900" type="line"/>
      <point x="204" y="899" type="line"/>
    </contour>
  </outline>
</glyph>
<glyph name="Ecaron" format="2">
  <advance width="832"/>
  <unicode hex="011A"/>
  <anchor x="442" y="0" name="bottom"/>
  <anchor x="456" y="730" name="top"/>
  <outline>
    <contour>
      <point x="237" y="0" type="line"/>
      <point x="801" y="0" type="line"/>
      <point x="801" y="244" type="line"/>
      <point x="35" y="244" type="line"/>
      <point x="35" y="243" type="line"/>
    </contour>
    <contour>
      <point x="35" y="244" type="line"/>
      <point x="289" y="244" type="line"/>
      <point x="289" y="730" type="line"/>
      <point x="35" y="730" type="line"/>
    </contour>
    <contour>
      <point x="289" y="263" type="line"/>
      <point x="698" y="263" type="line"/>
      <point x="698" y="467" type="line"/>
      <point x="289" y="467" type="line"/>
    </contour>
    <contour>
      <point x="289" y="486" type="line"/>
      <point x="650" y="486" type="line"/>
      <point x="852" y="729" type="line"/>
      <point x="852" y="730" type="line"/>
      <point x="289" y="730" type="line"/>
    </contour>
    <contour>
      <point x="372" y="760" type="line"/>
      <point x="525" y="793" type="line"/>
      <point x="381" y="900" type="line"/>
      <point x="204" y="900" type="line"/>
      <point x="204" y="899" type="line"/>
    </contour>
    <contour>
      <point x="372" y="760" type="line"/>
      <point x="546" y="760" type="line"/>
      <point x="710" y="899" type="line"/>
      <point x="710" y="900" type="line"/>
      <point x="536" y="900" type="line"/>
    </contour>
  </outline>
</glyph>
<glyph name="ecaron.color5" format="2">
  <advance width="600"/>
  <unicode hex="011B"/>
  <outline>
    <contour>
      <point x="371" y="582" type="line"/>
      <point x="514" y="613" type="line"/>
      <point x="400" y="750" type="line"/>
      <point x="223" y="750" type="line"/>
      <point x="223" y="749" type="line"/>
    </contour>
  </outline>
</glyph>
<glyph name="Gcircumflex.color6" format="2">
  <advance width="600"/>
  <unicode hex="011C"/>
  <outline>
    <contour>
      <point x="277" y="760" type="line"/>
      <point x="451" y="760" type="line"/>
      <point x="615" y="900" type="line"/>
      <point x="431" y="900" type="line"/>
      <point x="277" y="761" type="line"/>
    </contour>
  </outline>
</glyph>
<glyph name="gcircumflex.color5" format="2">
  <advance width="600"/>
  <unicode hex="011D"/>
  <outline>
    <contour>
      <point x="585" y="592" type="line"/>
      <point x="762" y="592" type="line"/>
      <point x="762" y="593" type="line"/>
      <point x="617" y="770" type="line"/>
      <point x="474" y="739" type="line"/>
    </contour>
  </outline>
</glyph>
<glyph name="gcircumflex.color6" format="2">
  <advance width="600"/>
  <unicode hex="011D"/>
  <outline>
    <contour>
      <point x="296" y="592" type="line"/>
      <point x="470" y="592" type="line"/>
      <point x="617" y="770" type="line"/>
      <point x="443" y="770" type="line"/>
      <point x="296" y="593" type="line"/>
    </contour>
  </outline>
</glyph>
<glyph name="gcircumflex" format="2">
  <advance width="910"/>
  <unicode hex="011D"/>
  <anchor x="544" y="750" name="top"/>
  <outline>
    <contour>
      <point x="289" y="286" type="line"/>
      <point x="824" y="286" type="line"/>
      <point x="910" y="529" type="line"/>
      <point x="910" y="530" type="line"/>
      <point x="289" y="530" type="line"/>
    </contour>
    <contour>
      <point x="137" y="-206" type="line"/>
      <point x="570" y="-206" type="line"/>
      <point x="570" y="-20" type="line"/>
      <point x="35" y="-20" type="line"/>
      <point x="35" y="-21" type="line"/>
    </contour>
    <contour>
      <point x="137" y="22" type="line"/>
      <point x="570" y="22" type="line"/>
      <point x="570" y="266" type="line"/>
      <point x="35" y="266" type="line"/>
      <point x="35" y="265" type="line"/>
    </contour>
    <contour>
      <point x="35" y="266" type="line"/>
      <point x="289" y="266" type="line"/>
      <point x="289" y="530" type="line"/>
      <point x="288" y="530" type="line"/>
      <point x="35" y="423" type="line"/>
    </contour>
    <contour>
      <point x="570" y="-206" type="line"/>
      <point x="571" y="-206" type="line"/>
      <point x="824" y="-104" type="line"/>
      <point x="824" y="286" type="line"/>
      <point x="570" y="286" type="line"/>
    </contour>
    <contour>
      <point x="585" y="592" type="line"/>
      <point x="762" y="592" type="line"/>
      <point x="762" y="593" type="line"/>
      <point x="617" y="770" type="line"/>
      <point x="474" y="739" type="line"/>
    </contour>
    <contour>
      <point x="296" y="592" type="line"/>
      <point x="470" y="592" type="line"/>
      <point x="617" y="770" type="line"/>
      <point x="443" y="770" type="line"/>
      <point x="296" y="593" type="line"/>
    </contour>
  </outline>
</glyph>
<glyph name="Gbreve.color5" format="2">
  <advance width="600"/>
  <unicode hex="011E"/>
  <outline>
    <contour>
      <point x="391" y="760" type="line"/>
      <point x="636" y="760" type="line"/>
      <point x="730" y="860" type="line"/>
      <point x="297" y="860" type="line"/>
    </contour>
  </outline>
</glyph>
<glyph name="gbreve.color4" format="2">
  <advance width="600"/>
  <unicode hex="011F"/>
  <outline>
    <contour>
      <point x="570" y="-206" type="line"/>
      <point x="571" y="-206" type="line"/>
      <point x="824" y="-104" type="line"/>
      <point x="824" y="286" type="line"/>
      <point x="570" y="286" type="line"/>
    </contour>
  </outline>
</glyph>
<glyph name="gbreve.color5" format="2">
  <advance width="600"/>
  <unicode hex="011F"/>
  <outline>
    <contour>
      <point x="580" y="720" type="line"/>
      <point x="716" y="720" type="line"/>
      <point x="753" y="779" type="line"/>
      <point x="753" y="780" type="line"/>
      <point x="617" y="780" type="line"/>
    </contour>
  </outline>
</glyph>
<glyph name="Gdotaccent.color1" format="2">
  <advance width="600"/>
  <unicode hex="0120"/>
  <outline>
    <contour>
      <point x="227" y="0" type="line"/>
      <point x="728" y="0" type="line"/>
      <point x="728" y="244" type="line"/>
      <point x="25" y="244" type="line"/>
      <point x="25" y="243" type="line"/>
    </contour>
  </outline>
</glyph>
<glyph name="gdotaccent.color4" format="2">
  <advance width="600"/>
  <unicode hex="0121"/>
  <outline>
    <contour>
      <point x="570" y="-206" type="line"/>
      <point x="571" y="-206" type="line"/>
      <point x="824" y="-104" type="line"/>
      <point x="824" y="286" type="line"/>
      <point x="570" y="286" type="line"/>
    </contour>
  </outline>
</glyph>
<glyph name="gdotaccent.color5" format="2">
  <advance width="600"/>
  <unicode hex="0121"/>
  <outline>
    <contour>
      <point x="415" y="640" type="line"/>
      <point x="669" y="640" type="line"/>
      <point x="669" y="812" type="line"/>
      <point x="415" y="812" type="line"/>
    </contour>
  </outline>
</glyph>
<glyph name="Gcommaaccent.color5" format="2">
  <advance width="600"/>
  <unicode hex="0122"/>
  <outline>
    <contour>
      <point x="630" y="-260" type="line"/>
      <point x="631" y="-260" type="line"/>
      <point x="631" y="-50" type="line"/>
      <point x="439" y="-50" type="line"/>
      <point x="439" y="-158" type="line"/>
    </contour>
  </outline>
</glyph>
<glyph name="gcommaaccent" format="2">
  <advance width="910"/>
  <unicode hex="0123"/>
  <anchor x="542" y="530" name="top"/>
  <outline>
    <contour>
      <point x="289" y="286" type="line"/>
      <point x="824" y="286" type="line"/>
      <point x="910" y="529" type="line"/>
      <point x="910" y="530" type="line"/>
      <point x="289" y="530" type="line"/>
    </contour>
    <contour>
      <point x="137" y="-206" type="line"/>
      <point x="570" y="-206" type="line"/>
      <point x="570" y="-20" type="line"/>
      <point x="35" y="-20" type="line"/>
      <point x="35" y="-21" type="line"/>
    </contour>
    <contour>
      <point x="137" y="22" type="line"/>
      <point x="570" y="22" type="line"/>
      <point x="570" y="266" type="line"/>
      <point x="35" y="266" type="line"/>
      <point x="35" y="265" type="line"/>
    </contour>
    <contour>
      <point x="35" y="266" type="line"/>
      <point x="289" y="266" type="line"/>
      <point x="289" y="530" type="line"/>
      <point x="288" y="530" type="line"/>
      <point x="35" y="423" type="line"/>
    </contour>
    <contour>
      <point x="570" y="-206" type="line"/>
      <point x="571" y="-206" type="line"/>
      <point x="824" y="-104" type="line"/>
      <point x="824" y="286" type="line"/>
      <point x="570" y="286" type="line"/>
    </contour>
    <contour>
      <point x="476" y="590" type="line"/>
      <point x="608" y="590" type="line"/>
      <point x="608" y="800" type="line"/>
      <point x="607" y="800" type="line"/>
      <point x="476" y="698" type="line"/>
    </contour>
  </outline>
</glyph>
<glyph name="hcircumflex.color4" format="2">
  <advance width="600"/>
  <unicode hex="0125"/>
  <outline>
    <contour>
      <point x="302" y="590" type="line"/>
      <point x="476" y="590" type="line"/>
      <point x="640" y="730" type="line"/>
      <point x="456" y="730" type="line"/>
      <point x="302" y="591" type="line"/>
    </contour>
  </outline>
</glyph>
<glyph name="Hbar.color0" format="2">
  <advance width="600"/>
  <unicode hex="0126"/>
  <outline>
    <contour>
      <point x="20" y="519" type="line"/>
      <point x="997" y="519" type="line"/>
      <point x="997" y="693" type="line"/>
      <point x="20" y="693" type="line"/>
    </contour>
  </outline>
</glyph>
<glyph name="Itilde.color7" format="2">
  <advance width="600"/>
  <unicode hex="0128"/>
  <outline>
    <contour>
      <point x="432" y="756" type="line"/>
      <point x="443" y="756" type="line"/>
      <point x="581" y="826" type="line"/>
      <point x="581" y="827" type="line"/>
      <point x="262" y="923" type="line"/>
      <point x="251" y="923" type="line"/>
      <point x="113" y="854" type="line"/>
      <point x="113" y="853" type="line"/>
    </contour>
  </outline>
</glyph>
<glyph name="itilde.color1" format="2">
  <advance width="600"/>
  <unicode hex="0129"/>
  <outline>
    <contour>
      <point x="12" y="603" type="line"/>
      <point x="132" y="603" type="line"/>
      <point x="132" y="713" type="line"/>
      <point x="12" y="732" type="line"/>
    </contour>
  </outline>
</glyph>
<glyph name="itilde" format="2">
  <advance width="344"/>
  <unicode hex="0129"/>
  <anchor x="171" y="0" name="bottom"/>
  <anchor x="179" y="530" name="top"/>
  <outline>
    <contour>
      <point x="45" y="0" type="line"/>
      <point x="299" y="0" type="line"/>
      <point x="299" y="530" type="line"/>
      <point x="298" y="530" type="line"/>
      <point x="45" y="530" type="line"/>
    </contour>
    <contour>
      <point x="12" y="603" type="line"/>
      <point x="132" y="603" type="line"/>
      <point x="132" y="713" type="line"/>
      <point x="12" y="732" type="line"/>
    </contour>
    <contour>
      <point x="210" y="630" type="line"/>
      <point x="330" y="630" type="line"/>
      <point x="330" y="759" type="line"/>
      <point x="210" y="759" type="line"/>
    </contour>
    <contour>
      <point x="231" y="590" type="line"/>
      <point x="232" y="590" type="line"/>
      <point x="330" y="629" type="line"/>
      <point x="330" y="630" type="line"/>
      <point x="111" y="772" type="line"/>
      <point x="110" y="772" type="line"/>
      <point x="12" y="733" type="line"/>
      <point x="12" y="732" type="line"/>
    </contour>
  </outline>
</glyph>
<glyph name="Ibreve.color5" format="2">
  <advance width="600"/>
  <unicode hex="012C"/>
  <outline>
    <contour>
      <point x="219" y="760" type="line"/>
      <point x="464" y="760" type="line"/>
      <point x="558" y="860" type="line"/>
      <point x="125" y="860" type="line"/>
    </contour>
  </outline>
</glyph>
<glyph name="ibreve.color0" format="2">
  <advance width="600"/>
  <unicode hex="012D"/>
  <outline>
    <contour>
      <point x="116" y="598" type="line"/>
      <point x="311" y="598" type="line"/>
      <point x="372" y="700" type="line"/>
      <point x="55" y="700" type="line"/>
    </contour>
  </outline>
</glyph>
<glyph name="ibreve.color1" format="2">
  <advance width="600"/>
  <unicode hex="012D"/>
  <outline>
    <contour>
      <point x="86" y="0" type="line"/>
      <point x="340" y="0" type="line"/>
      <point x="340" y="530" type="line"/>
      <point x="339" y="530" type="line"/>
      <point x="86" y="530" type="line"/>
    </contour>
  </outline>
</glyph>
<glyph name="ibreve" format="2">
  <advance width="427"/>
  <unicode hex="012D"/>
  <anchor x="212" y="0" name="bottom"/>
  <anchor x="220" y="530" name="top"/>
  <outline>
    <contour>
      <point x="116" y="598" type="line"/>
      <point x="311" y="598" type="line"/>
      <point x="372" y="700" type="line"/>
      <point x="55" y="700" type="line"/>
    </contour>
    <contour>
      <point x="86" y="0" type="line"/>
      <point x="340" y="0" type="line"/>
      <point x="340" y="530" type="line"/>
      <point x="339" y="530" type="line"/>
      <point x="86" y="530" type="line"/>
    </contour>
    <contour>
      <point x="55" y="700" type="line"/>
      <point x="191" y="700" type="line"/>
      <point x="144" y="780" type="line"/>
      <point x="8" y="780" type="line"/>
      <point x="8" y="778" type="line"/>
    </contour>
    <contour>
      <point x="246" y="700" type="line"/>
      <point x="372" y="700" type="line"/>
      <point x="419" y="779" type="line"/>
      <point x="419" y="780" type="line"/>
      <point x="293" y="780" type="line"/>
    </contour>
  </outline>
</glyph>
<glyph name="Iogonek.color5" format="2">
  <advance width="600"/>
  <unicode hex="012E"/>
  <outline>
    <contour>
      <point x="213" y="-86" type="line"/>
      <point x="371" y="-86" type="line"/>
      <point x="455" y="-1" type="line"/>
      <point x="455" y="0" type="line"/>
      <point x="270" y="0" type="line"/>
      <point x="213" y="-85" type="line"/>
    </contour>
  </outline>
</glyph>
<glyph name="Iogonek.color7" format="2">
  <advance width="600"/>
  <unicode hex="012E"/>
  <outline>
    <contour>
      <point x="371" y="-240" type="line"/>
      <point x="479" y="-240" type="line"/>
      <point x="539" y="-129" type="line"/>
      <point x="539" y="-128" type="line"/>
      <point x="371" y="-128" type="line"/>
    </contour>
  </outline>
</glyph>
<glyph name="iogonek.color0" format="2">
  <advance width="600"/>
  <unicode hex="012F"/>
  <outline>
    <contour>
      <point x="45" y="0" type="line"/>
      <point x="299" y="0" type="line"/>
      <point x="299" y="530" type="line"/>
      <point x="298" y="530" type="line"/>
      <point x="45" y="530" type="line"/>
    </contour>
  </outline>
</glyph>
<glyph name="iogonek.color2" format="2">
  <advance width="600"/>
  <unicode hex="012F"/>
  <outline>
    <contour>
      <point x="44" y="-86" type="line"/>
      <point x="202" y="-86" type="line"/>
      <point x="286" y="-1" type="line"/>
      <point x="286" y="0" type="line"/>
      <point x="101" y="0" type="line"/>
      <point x="44" y="-85" type="line"/>
    </contour>
  </outline>
</glyph>
<glyph name="iogonek.color3" format="2">
  <advance width="600"/>
  <unicode hex="012F"/>
  <outline>
    <contour>
      <point x="201" y="-240" type="line"/>
      <point x="202" y="-240" type="line"/>
      <point x="202" y="-86" type="line"/>
      <point x="44" y="-86" type="line"/>
      <point x="44" y="-184" type="line"/>
    </contour>
  </outline>
</glyph>
<glyph name="iogonek.color4" format="2">
  <advance width="600"/>
  <unicode hex="012F"/>
  <outline>
    <contour>
      <point x="202" y="-240" type="line"/>
      <point x="310" y="-240" type="line"/>
      <point x="370" y="-129" type="line"/>
      <point x="370" y="-128" type="line"/>
      <point x="202" y="-128" type="line"/>
    </contour>
  </outline>
</glyph>
<glyph name="iogonek" format="2">
  <advance width="344"/>
  <unicode hex="012F"/>
  <anchor x="171" y="0" name="bottom"/>
  <anchor x="179" y="750" name="top"/>
  <outline>
    <contour>
      <point x="45" y="0" type="line"/>
      <point x="299" y="0" type="line"/>
      <point x="299" y="530" type="line"/>
      <point x="298" y="530" type="line"/>
      <point x="45" y="530" type="line"/>
    </contour>
    <contour>
      <point x="52" y="640" type="line"/>
      <point x="306" y="640" type="line"/>
      <point x="306" y="812" type="line"/>
      <point x="52" y="812" type="line"/>
    </contour>
    <contour>
      <point x="44" y="-86" type="line"/>
      <point x="202" y="-86" type="line"/>
      <point x="286" y="-1" type="line"/>
      <point x="286" y="0" type="line"/>
      <point x="101" y="0" type="line"/>
      <point x="44" y="-85" type="line"/>
    </contour>
    <contour>
      <point x="201" y="-240" type="line"/>
      <point x="202" y="-240" type="line"/>
      <point x="202" y="-86" type="line"/>
      <point x="44" y="-86" type="line"/>
      <point x="44" y="-184" type="line"/>
    </contour>
    <contour>
      <point x="202" y="-240" type="line"/>
      <point x="310" y="-240" type="line"/>
      <point x="370" y="-129" type="line"/>
      <point x="370" y="-128" type="line"/>
      <point x="202" y="-128" type="line"/>
    </contour>
  </outline>
</glyph>
<glyph name="jcircumflex" format="2">
  <advance width="301"/>
  <unicode hex="0135"/>
  <anchor x="161" y="750" name="top"/>
  <outline>
    <contour>
      <point x="62" y="-206" type="line"/>
      <point x="63" y="-206" type="line"/>
      <point x="296" y="-99" type="line"/>
      <point x="296" y="530" type="line"/>
      <point x="295" y="530" type="line"/>
      <point x="62" y="530" type="line"/>
    </contour>
    <contour>
      <point x="-150" y="-206" type="line"/>
      <point x="62" y="-206" type="line"/>
      <point x="62" y="-26" type="line"/>
      <point x="-150" y="-26" type="line"/>
    </contour>
    <contour>
      <point x="202" y="592" type="line"/>
      <point x="379" y="592" type="line"/>
      <point x="379" y="593" type="line"/>
      <point x="234" y="770" type="line"/>
      <point x="91" y="739" type="line"/>
    </contour>
    <contour>
      <point x="-87" y="592" type="line"/>
      <point x="87" y="592" type="line"/>
      <point x="234" y="770" type="line"/>
      <point x="60" y="770" type="line"/>
      <point x="-87" y="593" type="line"/>
    </contour>
  </outline>
</glyph>
<glyph name="Kcommaaccent.color2" format="2">
  <advance width="600"/>
  <unicode hex="0136"/>
  <outline>
    <contour>
      <point x="289" y="223" type="line"/>
      <point x="588" y="223" type="line"/>
      <point x="588" y="467" type="line"/>
      <point x="289" y="467" type="line"/>
    </contour>
  </outline>
</glyph>
<glyph name="Kcommaaccent.color4" format="2">
  <advance width="600"/>
  <unicode hex="0136"/>
  <outline>
    <contour>
      <point x="530" y="-260" type="line"/>
      <point x="531" y="-260" type="line"/>
      <point x="531" y="-50" type="line"/>
      <point x="339" y="-50" type="line"/>
      <point x="339" y="-158" type="line"/>
    </contour>
  </outline>
</glyph>
<glyph name="kgreenlandic.color0" format="2">
  <advance width="600"/>
  <unicode hex="0138"/>
  <outline>
    <contour>
      <point x="530" y="0" type="line"/>
      <point x="841" y="0" type="line"/>
      <point x="841" y="1" type="line"/>
      <point x="568" y="363" type="line"/>
      <point x="354" y="240" type="line"/>
    </contour>
  </outline>
</glyph>
<glyph name="kgreenlandic.color2" format="2">
  <advance width="600"/>
  <unicode hex="0138"/>
  <outline>
    <contour>
      <point x="249" y="193" type="line"/>
      <point x="478" y="193" type="line"/>
      <point x="478" y="437" type="line"/>
      <point x="249" y="437" type="line"/>
    </contour>
  </outline>
</glyph>
<glyph name="Lacute.color2" format="2">
  <advance width="600"/>
  <unicode hex="0139"/>
  <outline>
    <contour>
      <point x="69" y="760" type="line"/>
      <point x="235" y="760" type="line"/>
      <point x="350" y="899" type="line"/>
      <point x="350" y="900" type="line"/>
      <point x="104" y="900" type="line"/>
    </contour>
  </outline>
</glyph>
<glyph name="lacute.color1" format="2">
  <advance width="600"/>
  <unicode hex="013A"/>
  <outline>
    <contour>
      <point x="289" y="0" type="line"/>
      <point x="501" y="0" type="line"/>
      <point x="501" y="244" type="line"/>
      <point x="289" y="244" type="line"/>
    </contour>
  </outline>
</glyph>
<glyph name="lacute" format="2">
  <advance width="536"/>
  <unicode hex="013A"/>
  <anchor x="279" y="0" name="bottom"/>
  <anchor x="169" y="794" name="top"/>
  <outline>
    <contour>
      <point x="288" y="0" type="line"/>
      <point x="289" y="0" type="line"/>
      <point x="289" y="794" type="line"/>
      <point x="35" y="794" type="line"/>
      <point x="35" y="107" type="line"/>
    </contour>
    <contour>
      <point x="289" y="0" type="line"/>
      <point x="501" y="0" type="line"/>
      <point x="501" y="244" type="line"/>
      <point x="289" y="244" type="line"/>
    </contour>
    <contour>
      <point x="65" y="824" type="line"/>
      <point x="231" y="824" type="line"/>
      <point x="346" y="963" type="line"/>
      <point x="346" y="964" type="line"/>
      <point x="100" y="964" type="line"/>
    </contour>
  </outline>
</glyph>
<glyph name="Lcommaaccent.color0" format="2">
  <advance width="600"/>
  <unicode hex="013B"/>
  <outline>
    <contour>
      <point x="237" y="1" type="line"/>
      <point x="768" y="1" type="line"/>
      <point x="768" y="245" type="line"/>
      <point x="35" y="245" type="line"/>
      <point x="35" y="244" type="line"/>
    </contour>
  </outline>
</glyph>
<glyph name="Ldot.color2" format="2">
  <advance width="600"/>
  <unicode hex="013F"/>
  <outline>
    <contour>
      <point x="409" y="380" type="line"/>
      <point x="641" y="380" type="line"/>
      <point x="641" y="584" type="line"/>
      <point x="409" y="584" type="line"/>
    </contour>
  </outline>
</glyph>
<glyph name="Ldot" format="2">
  <advance width="793"/>
  <unicode hex="013F"/>
  <anchor x="445" y="0" name="bottom"/>
  <anchor x="173" y="730" name="top"/>
  <outline>
    <contour>
      <point x="237" y="1" type="line"/>
      <point x="768" y="1" type="line"/>
      <point x="768" y="245" type="line"/>
      <point x="35" y="245" type="line"/>
      <point x="35" y="244" type="line"/>
    </contour>
    <contour>
      <point x="35" y="245" type="line"/>
      <point x="289" y="245" type="line"/>
      <point x="289" y="730" type="line"/>
      <point x="35" y="730" type="line"/>
    </contour>
    <contour>
      <point x="409" y="380" type="line"/>
      <point x="641" y="380" type="line"/>
      <point x="641" y="584" type="line"/>
      <point x="409" y="584" type="line"/>
    </contour>
  </outline>
</glyph>
<glyph name="Lslash.color0" format="2">
  <advance width="600"/>
  <unicode hex="0141"/>
  <outline>
    <contour>
      <point x="75" y="273" type="line"/>
      <point x="592" y="558" type="line"/>
      <point x="592" y="559" type="line"/>
      <point x="516" y="699" type="line"/>
      <point x="0" y="413" type="line"/>
      <point x="0" y="412" type="line"/>
    </contour>
  </outline>
</glyph>
<glyph name="nacute" format="2">
  <advance width="897"/>
  <unicode hex="0144"/>
  <anchor x="445" y="0" name="bottom"/>
  <anchor x="466" y="530" name="top"/>
  <outline>
    <contour>
      <point x="35" y="0" type="line"/>
      <point x="289" y="0" type="line"/>
      <point x="289" y="530" type="line"/>
      <point x="288" y="530" type="line"/>
      <point x="35" y="423" type="line"/>
    </contour>
    <contour>
      <point x="598" y="-6" type="line"/>
      <point x="599" y="-6" type="line"/>
      <point x="852" y="41" type="line"/>
      <point x="852" y="286" type="line"/>
      <point x="598" y="286" type="line"/>
    </contour>
    <contour>
      <point x="289" y="286" type="line"/>
      <point x="852" y="286" type="line"/>
      <point x="852" y="287" type="line"/>
      <point x="745" y="530" type="line"/>
      <point x="289" y="530" type="line"/>
    </contour>
    <contour>
      <point x="373" y="590" type="line"/>
      <point x="519" y="590" type="line"/>
      <point x="624" y="819" type="line"/>
      <point x="624" y="820" type="line"/>
      <point x="408" y="820" type="line"/>
    </contour>
  </outline>
</glyph>
<glyph name="ncaron.color3" format="2">
  <advance width="600"/>
  <unicode hex="0148"/>
  <outline>
    <contour>
      <point x="365" y="582" type="line"/>
      <point x="508" y="613" type="line"/>
      <point x="394" y="750" type="line"/>
      <point x="217" y="750" type="line"/>
      <point x="217" y="749" type="line"/>
    </contour>
  </outline>
</glyph>
<glyph name="ncaron" format="2">
  <advance width="897"/>
  <unicode hex="0148"/>
  <anchor x="445" y="0" name="bottom"/>
  <anchor x="466" y="530" name="top"/>
  <outline>
    <contour>
      <point x="35" y="0" type="line"/>
      <point x="289" y="0" type="line"/>
      <point x="289" y="530" type="line"/>
      <point x="288" y="530" type="line"/>
      <point x="35" y="423" type="line"/>
    </contour>
    <contour>
      <point x="598" y="-6" type="line"/>
      <point x="599" y="-6" type="line"/>
      <point x="852" y="41" type="line"/>
      <point x="852" y="286" type="line"/>
      <point x="598" y="286" type="line"/>
    </contour>
    <contour>
      <point x="289" y="286" type="line"/>
      <point x="852" y="286" type="line"/>
      <point x="852" y="287" type="line"/>
      <point x="745" y="530" type="line"/>
      <point x="289" y="530" type="line"/>
    </contour>
    <contour>
      <point x="365" y="582" type="line"/>
      <point x="508" y="613" type="line"/>
      <point x="394" y="750" type="line"/>
      <point x="217" y="750" type="line"/>
      <point x="217" y="749" type="line"/>
    </contour>
    <contour>
      <point x="365" y="582" type="line"/>
      <point x="529" y="582" type="line"/>
      <point x="683" y="749" type="line"/>
      <point x="683" y="750" type="line"/>
      <point x="509" y="750" type="line"/>
    </contour>
  </outline>
</glyph>
<glyph name="Eng.color0" format="2">
  <advance width="600"/>
  <unicode hex="014A"/>
  <outline>
    <contour>
      <point x="25" y="0" type="line"/>
      <point x="279" y="0" type="line"/>
      <point x="279" y="345" type="line"/>
      <point x="25" y="571" type="line"/>
    </contour>
  </outline>
</glyph>
<glyph name="Eng.color2" format="2">
  <advance width="600"/>
  <unicode hex="014A"/>
  <outline>
    <contour>
      <point x="598" y="-24" type="line"/>
      <point x="852" y="-24" type="line"/>
      <point x="852" y="730" type="line"/>
      <point x="598" y="730" type="line"/>
    </contour>
  </outline>
</glyph>
<glyph name="Omacron.color4" format="2">
  <advance width="600"/>
  <unicode hex="014C"/>
  <outline>
    <contour>
      <point x="278" y="798" type="line"/>
      <point x="674" y="798" type="line"/>
      <point x="674" y="900" type="line"/>
      <point x="278" y="900" type="line"/>
    </contour>
  </outline>
</glyph>
<glyph name="omacron" format="2">
  <advance width="917"/>
  <unicode hex="014D"/>
  <anchor x="462" y="0" name="bottom"/>
  <anchor x="745" y="530" name="horn"/>
  <anchor x="492" y="530" name="top"/>
  <outline>
    <contour>
      <point x="279" y="286" type="line"/>
      <point x="892" y="286" type="line"/>
      <point x="892" y="287" type="line"/>
      <point x="785" y="530" type="line"/>
      <point x="279" y="530" type="line"/>
    </contour>
    <contour>
      <point x="132" y="0" type="line"/>
      <point x="638" y="0" type="line"/>
      <point x="638" y="244" type="line"/>
      <point x="25" y="244" type="line"/>
      <point x="25" y="243" type="line"/>
    </contour>
    <contour>
      <point x="25" y="244" type="line"/>
      <point x="279" y="244" type="line"/>
      <point x="279" y="530" type="line"/>
      <point x="278" y="530" type="line"/>
      <point x="25" y="423" type="line"/>
    </contour>
    <contour>
      <point x="638" y="0" type="line"/>
      <point x="639" y="0" type="line"/>
      <point x="892" y="107" type="line"/>
      <point x="892" y="286" type="line"/>
      <point x="638" y="286" type="line"/>
    </contour>
    <contour>
      <point x="279" y="628" type="line"/>
      <point x="705" y="628" type="line"/>
      <point x="705" y="740" type="line"/>
      <point x="279" y="740" type="line"/>
    </contour>
  </outline>
</glyph>
<glyph name="Ohungarumlaut.color5" format="2">
  <advance width="600"/>
  <unicode hex="0150"/>
  <outline>
    <contour>
      <point x="263" y="760" type="line"/>
      <point x="389" y="760" type="line"/>
      <point x="504" y="899" type="line"/>
      <point x="504" y="900" type="line"/>
      <point x="298" y="900" type="line"/>
    </contour>
  </outline>
</glyph>
<glyph name="ohungarumlaut.color4" format="2">
  <advance width="600"/>
  <unicode hex="0151"/>
  <outline>
    <contour>
      <point x="529" y="590" type="line"/>
      <point x="625" y="590" type="line"/>
      <point x="740" y="819" type="line"/>
      <point x="740" y="820" type="line"/>
      <point x="564" y="820" type="line"/>
    </contour>
  </outline>
</glyph>
<glyph name="ohungarumlaut.color5" format="2">
  <advance width="600"/>
  <unicode hex="0151"/>
  <outline>
    <contour>
      <point x="329" y="590" type="line"/>
      <point x="425" y="590" type="line"/>
      <point x="540" y="819" type="line"/>
      <point x="540" y="820" type="line"/>
      <point x="364" y="820" type="line"/>
    </contour>
  </outline>
</glyph>
<glyph name="OE.color0" format="2">
  <advance width="600"/>
  <unicode hex="0152"/>
  <outline>
    <contour>
      <point x="227" y="0" type="line"/>
      <point x="628" y="0" type="line"/>
      <point x="882" y="244" type="line"/>
      <point x="25" y="244" type="line"/>
      <point x="25" y="243" type="line"/>
    </contour>
  </outline>
</glyph>
<glyph name="OE.color2" format="2">
  <advance width="600"/>
  <unicode hex="0152"/>
  <outline>
    <contour>
      <point x="830" y="0" type="line"/>
      <point x="1355" y="0" type="line"/>
      <point x="1355" y="244" type="line"/>
      <point x="628" y="244" type="line"/>
      <point x="628" y="243" type="line"/>
    </contour>
  </outline>
</glyph>
<glyph name="OE.color5" format="2">
  <advance width="600"/>
  <unicode hex="0152"/>
  <outline>
    <contour>
      <point x="882" y="263" type="line"/>
      <point x="1252" y="263" type="line"/>
      <point x="1252" y="467" type="line"/>
      <point x="882" y="467" type="line"/>
    </contour>
  </outline>
</glyph>
<glyph name="oe.color2" format="2">
  <advance width="600"/>
  <unicode hex="0153"/>
  <outline>
    <contour>
      <point x="25" y="244" type="line"/>
      <point x="279" y="244" type="line"/>
      <point x="279" y="530" type="line"/>
      <point x="278" y="530" type="line"/>
      <point x="25" y="423" type="line"/>
    </contour>
  </outline>
</glyph>
<glyph name="oe.color7" format="2">
  <advance width="600"/>
  <unicode hex="0153"/>
  <outline>
    <contour>
      <point x="1201" y="221" type="line"/>
      <point x="1202" y="221" type="line"/>
      <point x="1455" y="298" type="line"/>
      <point x="1455" y="330" type="line"/>
      <point x="1201" y="330" type="line"/>
    </contour>
  </outline>
</glyph>
<glyph name="oe" format="2">
  <advance width="1485"/>
  <unicode hex="0153"/>
  <outline>
    <contour>
      <point x="862" y="0" type="line"/>
      <point x="1348" y="0" type="line"/>
      <point x="1455" y="199" type="line"/>
      <point x="1455" y="200" type="line"/>
      <point x="608" y="200" type="line"/>
      <point x="608" y="199" type="line"/>
    </contour>
    <contour>
      <point x="132" y="0" type="line"/>
      <point x="608" y="0" type="line"/>
      <point x="608" y="244" type="line"/>
      <point x="25" y="244" type="line"/>
      <point x="25" y="243" type="line"/>
    </contour>
    <contour>
      <point x="25" y="244" type="line"/>
      <point x="279" y="244" type="line"/>
      <point x="279" y="530" type="line"/>
      <point x="278" y="530" type="line"/>
      <point x="25" y="423" type="line"/>
    </contour>
    <contour>
      <point x="608" y="330" type="line"/>
      <point x="1455" y="330" type="line"/>
      <point x="1455" y="331" type="line"/>
      <point x="1348" y="530" type="line"/>
      <point x="862" y="530" type="line"/>
    </contour>
    <contour>
      <point x="842" y="220" type="line"/>
      <point x="1201" y="221" type="line"/>
      <point x="1201" y="311" type="line"/>
      <point x="842" y="311" type="line"/>
    </contour>
    <contour>
      <point x="608" y="0" type="line"/>
      <point x="609" y="0" type="line"/>
      <point x="862" y="239" type="line"/>
      <point x="862" y="286" type="line"/>
      <point x="608" y="286" type="line"/>
    </contour>
    <contour>
      <point x="279" y="286" type="line"/>
      <point x="862" y="286" type="line"/>
      <point x="862" y="287" type="line"/>
      <point x="755" y="530" type="line"/>
      <point x="279" y="530" type="line"/>
    </contour>
    <contour>
      <point x="1201" y="221" type="line"/>
      <point x="1202" y="221" type="line"/>
      <point x="1455" y="298" type="line"/>
      <point x="1455" y="330" type="line"/>
      <point x="1201" y="330" type="line"/>
    </contour>
  </outline>
</glyph>
<glyph name="Racute.color3" format="2">
  <advance width="600"/>
  <unicode hex="0154"/>
  <outline>
    <contour>
      <point x="628" y="173" type="line"/>
      <point x="629" y="173" type="line"/>
      <point x="882" y="370" type="line"/>
      <point x="882" y="486" type="line"/>
      <point x="628" y="486" type="line"/>
    </contour>
  </outline>
</glyph>
<glyph name="racute" format="2">
  <advance width="642"/>
  <unicode hex="0155"/>
  <anchor x="155" y="0" name="bottom"/>
  <anchor x="362" y="530" name="top"/>
  <outline>
    <contour>
      <point x="35" y="0" type="line"/>
      <point x="289" y="0" type="line"/>
      <point x="289" y="530" type="line"/>
      <point x="288" y="530" type="line"/>
      <point x="35" y="423" type="line"/>
    </contour>
    <contour>
      <point x="289" y="286" type="line"/>
      <point x="642" y="286" type="line"/>
      <point x="642" y="287" type="line"/>
      <point x="535" y="530" type="line"/>
      <point x="289" y="530" type="line"/>
    </contour>
    <contour>
      <point x="269" y="590" type="line"/>
      <point x="415" y="590" type="line"/>
      <point x="520" y="819" type="line"/>
      <point x="520" y="820" type="line"/>
      <point x="304" y="820" type="line"/>
    </contour>
  </outline>
</glyph>
<glyph name="Rcommaaccent.color2" format="2">
  <advance width="600"/>
  <unicode hex="0156"/>
  <outline>
    <contour>
      <point x="289" y="173" type="line"/>
      <point x="628" y="173" type="line"/>
      <point x="628" y="417" type="line"/>
      <point x="289" y="417" type="line"/>
    </contour>
  </outline>
</glyph>
<glyph name="rcommaaccent.color2" format="2">
  <advance width="600"/>
  <unicode hex="0157"/>
  <outline>
    <contour>
      <point x="250" y="-260" type="line"/>
      <point x="251" y="-260" type="line"/>
      <point x="251" y="-50" type="line"/>
      <point x="59" y="-50" type="line"/>
      <point x="59" y="-158" type="line"/>
    </contour>
  </outline>
</glyph>
<glyph name="Sacute.color5" format="2">
  <advance width="600"/>
  <unicode hex="015A"/>
  <outline>
    <contour>
      <point x="347" y="760" type="line"/>
      <point x="513" y="760" type="line"/>
      <point x="628" y="899" type="line"/>
      <point x="628" y="900" type="line"/>
      <point x="382" y="900" type="line"/>
    </contour>
  </outline>
</glyph>
<glyph name="sacute.color1" format="2">
  <advance width="600"/>
  <unicode hex="015B"/>
  <outline>
    <contour>
      <point x="384" y="149" type="line"/>
      <point x="652" y="219" type="line"/>
      <point x="652" y="220" type="line"/>
      <point x="122" y="530" type="line"/>
      <point x="32" y="325" type="line"/>
    </contour>
  </outline>
</glyph>
<glyph name="sacute.color3" format="2">
  <advance width="600"/>
  <unicode hex="015B"/>
  <outline>
    <contour>
      <point x="251" y="590" type="line"/>
      <point x="397" y="590" type="line"/>
      <point x="502" y="819" type="line"/>
      <point x="502" y="820" type="line"/>
      <point x="286" y="820" type="line"/>
    </contour>
  </outline>
</glyph>
<glyph name="scircumflex.color4" format="2">
  <advance width="600"/>
  <unicode hex="015D"/>
  <outline>
    <contour>
      <point x="98" y="592" type="line"/>
      <point x="272" y="592" type="line"/>
      <point x="419" y="770" type="line"/>
      <point x="245" y="770" type="line"/>
      <point x="98" y="593" type="line"/>
    </contour>
  </outline>
</glyph>
<glyph name="Scedilla.color7" format="2">
  <advance width="600"/>
  <unicode hex="015E"/>
  <outline>
    <contour>
      <point x="310" y="-260" type="line"/>
      <point x="468" y="-260" type="line"/>
      <point x="468" y="-168" type="line"/>
      <point x="250" y="-168" type="line"/>
      <point x="250" y="-169" type="line"/>
    </contour>
  </outline>
</glyph>
<glyph name="scedilla.color3" format="2">
  <advance width="600"/>
  <unicode hex="015F"/>
  <outline>
    <contour>
      <point x="311" y="-126" type="line"/>
      <point x="471" y="-126" type="line"/>
      <point x="471" y="-125" type="line"/>
      <point x="401" y="-32" type="line"/>
      <point x="347" y="-32" type="line"/>
    </contour>
  </outline>
</glyph>
<glyph name="scedilla.color4" format="2">
  <advance width="600"/>
  <unicode hex="015F"/>
  <outline>
    <contour>
      <point x="195" y="-126" type="line"/>
      <point x="311" y="-126" type="line"/>
      <point x="387" y="-1" type="line"/>
      <point x="387" y="0" type="line"/>
      <point x="272" y="0" type="line"/>
      <point x="195" y="-125" type="line"/>
    </contour>
  </outline>
</glyph>
<glyph name="scedilla.color5" format="2">
  <advance width="600"/>
  <unicode hex="015F"/>
  <outline>
    <contour>
      <point x="205" y="-260" type="line"/>
      <point x="363" y="-260" type="line"/>
      <point x="363" y="-168" type="line"/>
      <point x="145" y="-168" type="line"/>
      <point x="145" y="-169" type="line"/>
    </contour>
  </outline>
</glyph>
<glyph name="Scaron.color3" format="2">
  <advance width="600"/>
  <unicode hex="0160"/>
  <outline>
    <contour>
      <point x="20" y="466" type="line"/>
      <point x="274" y="466" type="line"/>
      <point x="274" y="730" type="line"/>
      <point x="273" y="730" type="line"/>
      <point x="20" y="523" type="line"/>
    </contour>
  </outline>
</glyph>
<glyph name="Scaron.color6" format="2">
  <advance width="600"/>
  <unicode hex="0160"/>
  <outline>
    <contour>
      <point x="367" y="760" type="line"/>
      <point x="541" y="760" type="line"/>
      <point x="705" y="899" type="line"/>
      <point x="705" y="900" type="line"/>
      <point x="531" y="900" type="line"/>
    </contour>
  </outline>
</glyph>
<glyph name="Scaron" format="2">
  <advance width="887"/>
  <unicode hex="0160"/>
  <anchor x="447" y="0" name="bottom"/>
  <anchor x="451" y="730" name="top"/>
  <outline>
    <contour>
      <point x="274" y="486" type="line"/>
      <point x="867" y="486" type="line"/>
      <point x="867" y="487" type="line"/>
      <point x="665" y="730" type="line"/>
      <point x="274" y="730" type="line"/>
    </contour>
    <contour>
      <point x="222" y="0" type="line"/>
      <point x="613" y="0" type="line"/>
      <point x="613" y="244" type="line"/>
      <point x="20" y="244" type="line"/>
      <point x="20" y="243" type="line"/>
    </contour>
    <contour>
      <point x="222" y="262" type="line"/>
      <point x="613" y="262" type="line"/>
      <point x="613" y="466" type="line"/>
      <point x="20" y="466" type="line"/>
      <point x="20" y="465" type="line"/>
    </contour>
    <contour>
      <point x="20" y="466" type="line"/>
      <point x="274" y="466" type="line"/>
      <point x="274" y="730" type="line"/>
      <point x="273" y="730" type="line"/>
      <point x="20" y="523" type="line"/>
    </contour>
    <contour>
      <point x="613" y="0" type="line"/>
      <point x="614" y="0" type="line"/>
      <point x="867" y="193" type="line"/>
      <point x="867" y="269" type="line"/>
      <point x="614" y="466" type="line"/>
      <point x="613" y="466" type="line"/>
    </contour>
    <contour>
      <point x="367" y="760" type="line"/>
      <point x="520" y="793" type="line"/>
      <point x="376" y="900" type="line"/>
      <point x="199" y="900" type="line"/>
      <point x="199" y="899" type="line"/>
    </contour>
    <contour>
      <point x="367" y="760" type="line"/>
      <point x="541" y="760" type="line"/>
      <point x="705" y="899" type="line"/>
      <point x="705" y="900" type="line"/>
      <point x="531" y="900" type="line"/>
    </contour>
  </outline>
</glyph>
<glyph name="Tcedilla.color3" format="2">
  <advance width="600"/>
  <unicode hex="0162"/>
  <outline>
    <contour>
      <point x="402" y="-126" type="line"/>
      <point x="562" y="-126" type="line"/>
      <point x="562" y="-125" type="line"/>
      <point x="492" y="-32" type="line"/>
      <point x="438" y="-32" type="line"/>
    </contour>
  </outline>
</glyph>
<glyph name="Tcedilla.color6" format="2">
  <advance width="600"/>
  <unicode hex="0162"/>
  <outline>
    <contour>
      <point x="454" y="-260" type="line"/>
      <point x="455" y="-260" type="line"/>
      <point x="562" y="-204" type="line"/>
      <point x="562" y="-126" type="line"/>
      <point x="454" y="-126" type="line"/>
    </contour>
  </outline>
</glyph>
<glyph name="tcedilla.color0" format="2">
  <advance width="600"/>
  <unicode hex="0163"/>
  <outline>
    <contour>
      <point x="35" y="286" type="line"/>
      <point x="36" y="286" type="line"/>
      <point x="289" y="530" type="line"/>
      <point x="289" y="703" type="line"/>
      <point x="35" y="703" type="line"/>
    </contour>
  </outline>
</glyph>
<glyph name="tcedilla.color4" format="2">
  <advance width="600"/>
  <unicode hex="0163"/>
  <outline>
    <contour>
      <point x="325" y="-126" type="line"/>
      <point x="485" y="-126" type="line"/>
      <point x="485" y="-125" type="line"/>
      <point x="415" y="-32" type="line"/>
      <point x="361" y="-32" type="line"/>
    </contour>
  </outline>
</glyph>
<glyph name="tcedilla.color6" format="2">
  <advance width="600"/>
  <unicode hex="0163"/>
  <outline>
    <contour>
      <point x="219" y="-260" type="line"/>
      <point x="377" y="-260" type="line"/>
      <point x="377" y="-168" type="line"/>
      <point x="159" y="-168" type="line"/>
      <point x="159" y="-169" type="line"/>
    </contour>
  </outline>
</glyph>
<glyph name="tcedilla.color7" format="2">
  <advance width="600"/>
  <unicode hex="0163"/>
  <outline>
    <contour>
      <point x="377" y="-260" type="line"/>
      <point x="378" y="-260" type="line"/>
      <point x="485" y="-204" type="line"/>
      <point x="485" y="-126" type="line"/>
      <point x="377" y="-126" type="line"/>
    </contour>
  </outline>
</glyph>
<glyph name="Tcaron.color0" format="2">
  <advance width="600"/>
  <unicode hex="0164"/>
  <outline>
    <contour>
      <point x="305" y="0" type="line"/>
      <point x="560" y="0" type="line"/>
      <point x="560" y="730" type="line"/>
      <point x="508" y="730" type="line"/>
      <point x="306" y="486" type="line"/>
    </contour>
  </outline>
</glyph>
<glyph name="Tcaron" format="2">
  <advance width="886"/>
  <unicode hex="0164"/>
  <anchor x="433" y="0" name="bottom"/>
  <anchor x="433" y="365" name="stroke"/>
  <anchor x="436" y="730" name="top"/>
  <outline>
    <contour>
      <point x="305" y="0" type="line"/>
      <point x="560" y="0" type="line"/>
      <point x="560" y="730" type="line"/>
      <point x="508" y="730" type="line"/>
      <point x="306" y="486" type="line"/>
    </contour>
    <contour>
      <point x="25" y="486" type="line"/>
      <point x="306" y="486" type="line"/>
      <point x="508" y="730" type="line"/>
      <point x="25" y="730" type="line"/>
    </contour>
    <contour>
      <point x="560" y="486" type="line"/>
      <point x="861" y="486" type="line"/>
      <point x="861" y="730" type="line"/>
      <point x="560" y="730" type="line"/>
    </contour>
    <contour>
      <point x="352" y="760" type="line"/>
      <point x="505" y="793" type="line"/>
      <point x="361" y="900" type="line"/>
      <point x="184" y="900" type="line"/>
      <point x="184" y="899" type="line"/>
    </contour>
    <contour>
      <point x="352" y="760" type="line"/>
      <point x="526" y="760" type="line"/>
      <point x="690" y="899" type="line"/>
      <point x="690" y="900" type="line"/>
      <point x="516" y="900" type="line"/>
    </contour>
  </outline>
</glyph>
<glyph name="tbar.color2" format="2">
  <advance width="600"/>
  <unicode hex="0167"/>
  <outline>
    <contour>
      <point x="39" y="286" type="line"/>
      <point x="586" y="286" type="line"/>
      <point x="586" y="530" type="line"/>
      <point x="292" y="530" type="line"/>
    </contour>
  </outline>
</glyph>
<glyph name="utilde.color3" format="2">
  <advance width="600"/>
  <unicode hex="0169"/>
  <outline>
    <contour>
      <point x="229" y="601" type="line"/>
      <point x="369" y="601" type="line"/>
      <point x="369" y="703" type="line"/>
      <point x="229" y="722" type="line"/>
    </contour>
  </outline>
</glyph>
<glyph name="utilde" format="2">
  <advance width="887"/>
  <unicode hex="0169"/>
  <anchor x="442" y="0" name="bottom"/>
  <anchor x="812" y="530" name="horn"/>
  <anchor x="462" y="530" name="top"/>
  <outline>
    <contour>
      <point x="598" y="0" type="line"/>
      <point x="599" y="0" type="line"/>
      <point x="852" y="0" type="line"/>
      <point x="852" y="530" type="line"/>
      <point x="598" y="530" type="line"/>
    </contour>
    <contour>
      <point x="142" y="0" type="line"/>
      <point x="598" y="0" type="line"/>
      <point x="598" y="244" type="line"/>
      <point x="35" y="244" type="line"/>
      <point x="35" y="243" type="line"/>
    </contour>
    <contour>
      <point x="35" y="244" type="line"/>
      <point x="289" y="244" type="line"/>
      <point x="289" y="536" type="line"/>
      <point x="288" y="536" type="line"/>
      <point x="35" y="489" type="line"/>
    </contour>
    <contour>
      <point x="229" y="601" type="line"/>
      <point x="369" y="601" type="line"/>
      <point x="369" y="703" type="line"/>
      <point x="229" y="722" type="line"/>
    </contour>
    <contour>
      <point x="528" y="640" type="line"/>
      <point x="667" y="630" type="line"/>
      <point x="667" y="749" type="line"/>
      <point x="528" y="749" type="line"/>
    </contour>
    <contour>
      <point x="518" y="590" type="line"/>
      <point x="519" y="590" type="line"/>
      <point x="667" y="629" type="line"/>
      <point x="667" y="630" type="line"/>
      <point x="379" y="762" type="line"/>
      <point x="378" y="762" type="line"/>
      <point x="229" y="723" type="line"/>
      <point x="229" y="722" type="line"/>
    </contour>
  </outline>
</glyph>
<glyph name="Ubreve.color4" format="2">
  <advance width="600"/>
  <unicode hex="016C"/>
  <outline>
    <contour>
      <point x="250" y="860" type="line"/>
      <point x="429" y="860" type="line"/>
      <point x="392" y="900" type="line"/>
      <point x="216" y="900" type="line"/>
      <point x="216" y="898" type="line"/>
    </contour>
  </outline>
</glyph>
<glyph name="ubreve" format="2">
  <advance width="887"/>
  <unicode hex="016D"/>
  <anchor x="442" y="0" name="bottom"/>
  <anchor x="812" y="530" name="horn"/>
  <anchor x="462" y="530" name="top"/>
  <outline>
    <contour>
      <point x="598" y="0" type="line"/>
      <point x="599" y="0" type="line"/>
      <point x="852" y="0" type="line"/>
      <point x="852" y="530" type="line"/>
      <point x="598" y="530" type="line"/>
    </contour>
    <contour>
      <point x="142" y="0" type="line"/>
      <point x="598" y="0" type="line"/>
      <point x="598" y="244" type="line"/>
      <point x="35" y="244" type="line"/>
      <point x="35" y="243" type="line"/>
    </contour>
    <contour>
      <point x="35" y="244" type="line"/>
      <point x="289" y="244" type="line"/>
      <point x="289" y="536" type="line"/>
      <point x="288" y="536" type="line"/>
      <point x="35" y="489" type="line"/>
    </contour>
    <contour>
      <point x="500" y="720" type="line"/>
      <point x="636" y="720" type="line"/>
      <point x="673" y="779" type="line"/>
      <point x="673" y="780" type="line"/>
      <point x="537" y="780" type="line"/>
    </contour>
    <contour>
      <point x="239" y="720" type="line"/>
      <point x="385" y="720" type="line"/>
      <point x="348" y="780" type="line"/>
      <point x="202" y="780" type="line"/>
      <point x="202" y="778" type="line"/>
    </contour>
    <contour>
      <point x="310" y="598" type="line"/>
      <point x="565" y="598" type="line"/>
      <point x="636" y="720" type="line"/>
      <point x="239" y="720" type="line"/>
    </contour>
  </outline>
</glyph>
<glyph name="uring.color4" format="2">
  <advance width="600"/>
  <unicode hex="016F"/>
  <outline>
    <contour>
      <point x="354" y="602" type="line"/>
      <point x="524" y="602" type="line"/>
      <point x="524" y="684" type="line"/>
      <point x="294" y="684" type="line"/>
      <point x="294" y="683" type="line"/>
    </contour>
  </outline>
</glyph>
<glyph name="uring.color5" format="2">
  <advance width="600"/>
  <unicode hex="016F"/>
  <outline>
    <contour>
      <point x="294" y="684" type="line"/>
      <point x="390" y="684" type="line"/>
      <point x="390" y="820" type="line"/>
      <point x="389" y="820" type="line"/>
      <point x="294" y="758" type="line"/>
    </contour>
  </outline>
</glyph>
<glyph name="Uhungarumlaut.color4" format="2">
  <advance width="600"/>
  <unicode hex="0170"/>
  <outline>
    <contour>
      <point x="263" y="760" type="line"/>
      <point x="389" y="760" type="line"/>
      <point x="504" y="899" type="line"/>
      <point x="504" y="900" type="line"/>
      <point x="298" y="900" type="line"/>
    </contour>
  </outline>
</glyph>
<glyph name="Uogonek" format="2">
  <advance width="907"/>
  <unicode hex="0172"/>
  <anchor x="442" y="0" name="bottom"/>
  <anchor x="811" y="730" name="horn"/>
  <anchor x="476" y="730" name="top"/>
  <outline>
    <contour>
      <point x="628" y="0" type="line"/>
      <point x="629" y="0" type="line"/>
      <point x="882" y="207" type="line"/>
      <point x="882" y="730" type="line"/>
      <point x="628" y="730" type="line"/>
    </contour>
    <contour>
      <point x="237" y="0" type="line"/>
      <point x="628" y="0" type="line"/>
      <point x="628" y="244" type="line"/>
      <point x="35" y="244" type="line"/>
      <point x="35" y="243" type="line"/>
    </contour>
    <contour>
      <point x="35" y="244" type="line"/>
      <point x="289" y="244" type="line"/>
      <point x="289" y="730" type="line"/>
      <point x="35" y="730" type="line"/>
    </contour>
    <contour>
      <point x="315" y="-86" type="line"/>
      <point x="473" y="-86" type="line"/>
      <point x="557" y="-1" type="line"/>
      <point x="557" y="0" type="line"/>
      <point x="372" y="0" type="line"/>
      <point x="315" y="-85" type="line"/>
    </contour>
    <contour>
      <point x="472" y="-240" type="line"/>
      <point x="473" y="-240" type="line"/>
      <point x="473" y="-86" type="line"/>
      <point x="315" y="-86" type="line"/>
      <point x="315" y="-184" type="line"/>
    </contour>
    <contour>
      <point x="473" y="-240" type="line"/>
      <point x="581" y="-240" type="line"/>
      <point x="641" y="-129" type="line"/>
      <point x="641" y="-128" type="line"/>
      <point x="473" y="-128" type="line"/>
    </contour>
  </outline>
</glyph>
<glyph name="uogonek.color3" format="2">
  <advance width="600"/>
  <unicode hex="0173"/>
  <outline>
    <contour>
      <point x="315" y="-86" type="line"/>
      <point x="473" y="-86" type="line"/>
      <point x="557" y="-1" type="line"/>
      <point x="557" y="0" type="line"/>
      <point x="372" y="0" type="line"/>
      <point x="315" y="-85" type="line"/>
    </contour>
  </outline>
</glyph>
<glyph name="uogonek" format="2">
  <advance width="887"/>
  <unicode hex="0173"/>
  <anchor x="442" y="0" name="bottom"/>
  <anchor x="812" y="530" name="horn"/>
  <anchor x="462" y="530" name="top"/>
  <outline>
    <contour>
      <point x="598" y="0" type="line"/>
      <point x="599" y="0" type="line"/>
      <point x="852" y="0" type="line"/>
      <point x="852" y="530" type="line"/>
      <point x="598" y="530" type="line"/>
    </contour>
    <contour>
      <point x="142" y="0" type="line"/>
      <point x="598" y="0" type="line"/>
      <point x="598" y="244" type="line"/>
      <point x="35" y="244" type="line"/>
      <point x="35" y="243" type="line"/>
    </contour>
    <contour>
      <point x="35" y="244" type="line"/>
      <point x="289" y="244" type="line"/>
      <point x="289" y="536" type="line"/>
      <point x="288" y="536" type="line"/>
      <point x="35" y="489" type="line"/>
    </contour>
    <contour>
      <point x="315" y="-86" type="line"/>
      <point x="473" y="-86" type="line"/>
      <point x="557" y="-1" type="line"/>
      <point x="557" y="0" type="line"/>
      <point x="372" y="0" type="line"/>
      <point x="315" y="-85" type="line"/>
    </contour>
    <contour>
      <point x="472" y="-240" type="line"/>
      <point x="473" y="-240" type="line"/>
      <point x="473" y="-86" type="line"/>
      <point x="315" y="-86" type="line"/>
      <point x="315" y="-184" type="line"/>
    </contour>
    <contour>
      <point x="473" y="-240" type="line"/>
      <point x="581" y="-240" type="line"/>
      <point x="641" y="-129" type="line"/>
      <point x="641" y="-128" type="line"/>
      <point x="473" y="-128" type="line"/>
    </contour>
  </outline>
</glyph>
<glyph name="wcircumflex.color1" format="2">
  <advance width="600"/>
  <unicode hex="0175"/>
  <outline>
    <contour>
      <point x="142" y="1" type="line"/>
      <point x="538" y="1" type="line"/>
      <point x="538" y="245" type="line"/>
      <point x="35" y="245" type="line"/>
      <point x="35" y="244" type="line"/>
    </contour>
  </outline>
</glyph>
<glyph name="Ycircumflex" format="2">
  <advance width="840"/>
  <unicode hex="0176"/>
  <anchor x="417" y="0" name="bottom"/>
  <anchor x="443" y="730" name="top"/>
  <outline>
    <contour>
      <point x="288" y="285" type="line"/>
      <point x="289" y="285" type="line"/>
      <point x="436" y="467" type="line"/>
      <point x="273" y="730" type="line"/>
      <point x="0" y="730" type="line"/>
      <point x="0" y="729" type="line"/>
    </contour>
    <contour>
      <point x="288" y="0" type="line"/>
      <point x="552" y="0" type="line"/>
      <point x="552" y="285" type="line"/>
      <point x="288" y="285" type="line"/>
    </contour>
    <contour>
      <point x="289" y="285" type="line"/>
      <point x="552" y="285" type="line"/>
      <point x="840" y="729" type="line"/>
      <point x="840" y="730" type="line"/>
      <point x="566" y="730" type="line"/>
    </contour>
    <contour>
      <point x="526" y="760" type="line"/>
      <point x="703" y="760" type="line"/>
      <point x="703" y="761" type="line"/>
      <point x="535" y="900" type="line"/>
      <point x="382" y="867" type="line"/>
    </contour>
    <contour>
      <point x="197" y="760" type="line"/>
      <point x="371" y="760" type="line"/>
      <point x="535" y="900" type="line"/>
      <point x="351" y="900" type="line"/>
      <point x="197" y="761" type="line"/>
    </contour>
  </outline>
</glyph>
<glyph name="ycircumflex.color5" format="2">
  <advance width="600"/>
  <unicode hex="0177"/>
  <outline>
    <contour>
      <point x="196" y="592" type="line"/>
      <point x="370" y="592" type="line"/>
      <point x="517" y="770" type="line"/>
      <point x="343" y="770" type="line"/>
      <point x="196" y="593" type="line"/>
    </contour>
  </outline>
</glyph>
<glyph name="Ydieresis.color3" format="2">
  <advance width="600"/>
  <unicode hex="0178"/>
  <outline>
    <contour>
      <point x="495" y="788" type="line"/>
      <point x="641" y="788" type="line"/>
      <point x="641" y="900" type="line"/>
      <point x="495" y="900" type="line"/>
    </contour>
  </outline>
</glyph>
<glyph name="Zacute.color3" format="2">
  <advance width="600"/>
  <unicode hex="0179"/>
  <outline>
    <contour>
      <point x="282" y="760" type="line"/>
      <point x="448" y="760" type="line"/>
      <point x="563" y="899" type="line"/>
      <point x="563" y="900" type="line"/>
      <point x="317" y="900" type="line"/>
    </contour>
  </outline>
</glyph>
<glyph name="zacute.color3" format="2">
  <advance width="600"/>
  <unicode hex="017A"/>
  <outline>
    <contour>
      <point x="324" y="590" type="line"/>
      <point x="470" y="590" type="line"/>
      <point x="575" y="819" type="line"/>
      <point x="575" y="820" type="line"/>
      <point x="359" y="820" type="line"/>
    </contour>
  </outline>
</glyph>
<glyph name="Zdotaccent" format="2">
  <advance width="825"/>
  <unicode hex="017B"/>
  <anchor x="386" y="900" name="top"/>
  <outline>
    <contour>
      <point x="35" y="486" type="line"/>
      <point x="618" y="486" type="line"/>
      <point x="644" y="730" type="line"/>
      <point x="35" y="730" type="line"/>
    </contour>
    <contour>
      <point x="244" y="119" type="line"/>
      <point x="784" y="535" type="line"/>
      <point x="644" y="730" type="line"/>
      <point x="41" y="245" type="line"/>
      <point x="41" y="244" type="line"/>
    </contour>
    <contour>
      <point x="41" y="0" type="line"/>
      <point x="790" y="0" type="line"/>
      <point x="790" y="244" type="line"/>
      <point x="41" y="244" type="line"/>
    </contour>
    <contour>
      <point x="298" y="768" type="line"/>
      <point x="474" y="768" type="line"/>
      <point x="474" y="900" type="line"/>
      <point x="298" y="900" type="line"/>
    </contour>
  </outline>
</glyph>
<glyph name="zdotaccent.color3" format="2">
  <advance width="600"/>
  <unicode hex="017C"/>
  <outline>
    <contour>
      <point x="290" y="640" type="line"/>
      <point x="544" y="640" type="line"/>
      <point x="544" y="812" type="line"/>
      <point x="290" y="812" type="line"/>
    </contour>
  </outline>
</glyph>
<glyph name="Zcaron.color2" format="2">
  <advance width="600"/>
  <unicode hex="017D"/>
  <outline>
    <contour>
      <point x="41" y="0" type="line"/>
      <point x="790" y="0" type="line"/>
      <point x="790" y="244" type="line"/>
      <point x="41" y="244" type="line"/>
    </contour>
  </outline>
</glyph>
<glyph name="zcaron.color3" format="2">
  <advance width="600"/>
  <unicode hex="017E"/>
  <outline>
    <contour>
      <point x="316" y="582" type="line"/>
      <point x="459" y="613" type="line"/>
      <point x="345" y="750" type="line"/>
      <point x="168" y="750" type="line"/>
      <point x="168" y="749" type="line"/>
    </contour>
  </outline>
</glyph>
<glyph name="Schwa.color4" format="2">
  <advance width="600"/>
  <unicode hex="018F"/>
  <outline>
    <contour>
      <point x="537" y="0" type="line"/>
      <point x="538" y="0" type="line"/>
      <point x="791" y="202" type="line"/>
      <point x="791" y="486" type="line"/>
      <point x="537" y="486" type="line"/>
    </contour>
  </outline>
</glyph>
<glyph name="florin" format="2">
  <advance width="813"/>
  <unicode hex="0192"/>
  <outline>
    <contour>
      <point x="219" y="173" type="line"/>
      <point x="220" y="173" type="line"/>
      <point x="473" y="417" type="line"/>
      <point x="473" y="700" type="line"/>
      <point x="219" y="496" type="line"/>
    </contour>
    <contour>
      <point x="-19" y="-206" type="line"/>
      <point x="219" y="-206" type="line"/>
      <point x="219" y="38" type="line"/>
      <point x="-20" y="38" type="line"/>
    </contour>
    <contour>
      <point x="219" y="-206" type="line"/>
      <point x="473" y="-2" type="line"/>
      <point x="473" y="173" type="line"/>
      <point x="219" y="173" type="line"/>
    </contour>
    <contour>
      <point x="60" y="173" type="line"/>
      <point x="219" y="173" type="line"/>
      <point x="219" y="417" type="line"/>
      <point x="59" y="417" type="line"/>
    </contour>
    <contour>
      <point x="220" y="173" type="line"/>
      <point x="733" y="173" type="line"/>
      <point x="733" y="417" type="line"/>
      <point x="473" y="417" type="line"/>
    </contour>
    <contour>
      <point x="473" y="456" type="line"/>
      <point x="813" y="456" type="line"/>
      <point x="813" y="700" type="line"/>
      <point x="473" y="700" type="line"/>
    </contour>
  </outline>
</glyph>
<glyph name="DZcaron.color2" format="2">
  <advance width="600"/>
  <unicode hex="01C4"/>
  <outline>
    <contour>
      <point x="35" y="240" type="line"/>
      <point x="289" y="240" type="line"/>
      <point x="289" y="730" type="line"/>
      <point x="35" y="730" type="line"/>
    </contour>
  </outline>
</glyph>
<glyph name="Dzcaron.color4" format="2">
  <advance width="600"/>
  <unicode hex="01C5"/>
  <outline>
    <contour>
      <point x="983" y="311" type="line"/>
      <point x="1594" y="311" type="line"/>
      <point x="1620" y="530" type="line"/>
      <point x="1090" y="530" type="line"/>
      <point x="983" y="312" type="line"/>
    </contour>
  </outline>
</glyph>
<glyph name="Dzcaron.color6" format="2">
  <advance width="600"/>
  <unicode hex="01C5"/>
  <outline>
    <contour>
      <point x="1084" y="0" type="line"/>
      <point x="1704" y="0" type="line"/>
      <point x="1704" y="219" type="line"/>
      <point x="977" y="219" type="line"/>
    </contour>
  </outline>
</glyph>
<glyph name="Dzcaron.color8" format="2">
  <advance width="600"/>
  <unicode hex="01C5"/>
  <outline>
    <contour>
      <point x="1263" y="582" type="line"/>
      <point x="1427" y="582" type="line"/>
      <point x="1581" y="749" type="line"/>
      <point x="1581" y="750" type="line"/>
      <point x="1407" y="750" type="line"/>
    </contour>
  </outline>
</glyph>
<glyph name="Dzcaron" format="2">
  <advance width="1740"/>
  <unicode hex="01C5"/>
  <anchor x="166" y="361" name="stroke"/>
  <anchor x="1364" y="530" name="top"/>
  <outline>
    <contour>
      <point x="289" y="486" type="line"/>
      <point x="922" y="486" type="line"/>
      <point x="922" y="487" type="line"/>
      <point x="720" y="730" type="line"/>
      <point x="289" y="730" type="line"/>
    </contour>
    <contour>
      <point x="35" y="-4" type="line"/>
      <point x="668" y="-4" type="line"/>
      <point x="668" y="240" type="line"/>
      <point x="35" y="240" type="line"/>
    </contour>
    <contour>
      <point x="35" y="240" type="line"/>
      <point x="289" y="240" type="line"/>
      <point x="289" y="730" type="line"/>
      <point x="35" y="730" type="line"/>
    </contour>
    <contour>
      <point x="668" y="-4" type="line"/>
      <point x="669" y="-4" type="line"/>
      <point x="922" y="193" type="line"/>
      <point x="922" y="486" type="line"/>
      <point x="668" y="486" type="line"/>
    </contour>
    <contour>
      <point x="983" y="311" type="line"/>
      <point x="1594" y="311" type="line"/>
      <point x="1620" y="530" type="line"/>
      <point x="1090" y="530" type="line"/>
      <point x="983" y="312" type="line"/>
    </contour>
    <contour>
      <point x="1340" y="149" type="line"/>
      <point x="1710" y="325" type="line"/>
      <point x="1620" y="530" type="line"/>
      <point x="977" y="220" type="line"/>
      <point x="977" y="219" type="line"/>
    </contour>
    <contour>
      <point x="1084" y="0" type="line"/>
      <point x="1704" y="0" type="line"/>
      <point x="1704" y="219" type="line"/>
      <point x="977" y="219" type="line"/>
    </contour>
    <contour>
      <point x="1263" y="582" type="line"/>
      <point x="1406" y="613" type="line"/>
      <point x="1292" y="750" type="line"/>
      <point x="1115" y="750" type="line"/>
      <point x="1115" y="749" type="line"/>
    </contour>
    <contour>
      <point x="1263" y="582" type="line"/>
      <point x="1427" y="582" type="line"/>
      <point x="1581" y="749" type="line"/>
      <point x="1581" y="750" type="line"/>
      <point x="1407" y="750" type="line"/>
    </contour>
  </outline>
</glyph>
<glyph name="dzcaron.color9" format="2">
  <advance width="600"/>
  <unicode hex="01C6"/>
  <outline>
    <contour>
      <point x="1181" y="582" type="line"/>
      <point x="1345" y="582" type="line"/>
      <point x="1499" y="749" type="line"/>
      <point x="1499" y="750" type="line"/>
      <point x="1325" y="750" type="line"/>
    </contour>
  </outline>
</glyph>
<glyph name="LJ.color3" format="2">
  <advance width="600"/>
  <unicode hex="01C7"/>
  <outline>
    <contour>
      <point x="840" y="-4" type="line"/>
      <point x="1091" y="-4" type="line"/>
      <point x="1293" y="239" type="line"/>
      <point x="1293" y="240" type="line"/>
      <point x="840" y="240" type="line"/>
    </contour>
  </outline>
</glyph>
<glyph name="LJ.color4" format="2">
  <advance width="600"/>
  <unicode hex="01C7"/>
  <outline>
    <contour>
      <point x="818" y="486" type="line"/>
      <point x="1039" y="486" type="line"/>
      <point x="1241" y="730" type="line"/>
      <point x="818" y="730" type="line"/>
    </contour>
  </outline>
</glyph>
<glyph name="Lj.color2" format="2">
  <advance width="600"/>
  <unicode hex="01C8"/>
  <outline>
    <contour>
      <point x="855" y="-206" type="line"/>
      <point x="856" y="-206" type="line"/>
      <point x="1089" y="-99" type="line"/>
      <point x="1089" y="503" type="line"/>
      <point x="1088" y="503" type="line"/>
      <point x="855" y="393" type="line"/>
    </contour>
  </outline>
</glyph>
<glyph name="Lj.color4" format="2">
  <advance width="600"/>
  <unicode hex="01C8"/>
  <outline>
    <contour>
      <point x="855" y="469" type="line"/>
      <point x="856" y="469" type="line"/>
      <point x="1089" y="576" type="line"/>
      <point x="1089" y="682" type="line"/>
      <point x="855" y="682" type="line"/>
    </contour>
  </outline>
</glyph>
<glyph name="lj.color1" format="2">
  <advance width="600"/>
  <unicode hex="01C9"/>
  <outline>
    <contour>
      <point x="289" y="0" type="line"/>
      <point x="501" y="0" type="line"/>
      <point x="501" y="244" type="line"/>
      <point x="289" y="244" type="line"/>
    </contour>
  </outline>
</glyph>
<glyph name="NJ.color3" format="2">
  <advance width="600"/>
  <unicode hex="01CA"/>
  <outline>
    <contour>
      <point x="1143" y="240" type="line"/>
      <point x="1397" y="240" type="line"/>
      <point x="1397" y="730" type="line"/>
      <point x="1345" y="730" type="line"/>
      <point x="1143" y="486" type="line"/>
    </contour>
  </outline>
</glyph>
<glyph name="NJ" format="2">
  <advance width="1594"/>
  <unicode hex="01CA"/>
  <anchor x="445" y="0" name="bottom"/>
  <anchor x="1263" y="730" name="top"/>
  <outline>
    <contour>
      <point x="862" y="172" type="line"/>
      <point x="862" y="730" type="line"/>
      <point x="608" y="730" type="line"/>
      <point x="608" y="397" type="line"/>
    </contour>
    <contour>
      <point x="35" y="0" type="line"/>
      <point x="289" y="0" type="line"/>
      <point x="289" y="345" type="line"/>
      <point x="35" y="571" type="line"/>
    </contour>
    <contour>
      <point x="682" y="-6" type="line"/>
      <point x="683" y="-6" type="line"/>
      <point x="862" y="171" type="line"/>
      <point x="862" y="172" type="line"/>
      <point x="228" y="736" type="line"/>
      <point x="227" y="736" type="line"/>
      <point x="35" y="572" type="line"/>
      <point x="35" y="571" type="line"/>
    </contour>
    <contour>
      <point x="1143" y="240" type="line"/>
      <point x="1397" y="240" type="line"/>
      <point x="1397" y="730" type="line"/>
      <point x="1345" y="730" type="line"/>
      <point x="1143" y="486" type="line"/>
    </contour>
    <contour>
      <point x="944" y="-4" type="line"/>
      <point x="1195" y="-4" type="line"/>
      <point x="1397" y="239" type="line"/>
      <point x="1397" y="240" type="line"/>
      <point x="944" y="240" type="line"/>
    </contour>
    <contour>
      <point x="922" y="486" type="line"/>
      <point x="1143" y="486" type="line"/>
      <point x="1345" y="730" type="line"/>
      <point x="922" y="730" type="line"/>
    </contour>
    <contour>
      <point x="1397" y="486" type="line"/>
      <point x="1568" y="486" type="line"/>
      <point x="1568" y="730" type="line"/>
      <point x="1397" y="730" type="line"/>
    </contour>
  </outline>
</glyph>
<glyph name="Nj.color0" format="2">
  <advance width="600"/>
  <unicode hex="01CB"/>
  <outline>
    <contour>
      <point x="862" y="172" type="line"/>
      <point x="862" y="730" type="line"/>
      <point x="608" y="730" type="line"/>
      <point x="608" y="397" type="line"/>
    </contour>
  </outline>
</glyph>
<glyph name="Gcaron.color4" format="2">
  <advance width="600"/>
  <unicode hex="01E6"/>
  <outline>
    <contour>
      <point x="728" y="0" type="line"/>
      <point x="729" y="0" type="line"/>
      <point x="982" y="197" type="line"/>
      <point x="982" y="254" type="line"/>
      <point x="729" y="467" type="line"/>
      <point x="728" y="467" type="line"/>
    </contour>
  </outline>
</glyph>
<glyph name="Gcaron.color5" format="2">
  <advance width="600"/>
  <unicode hex="01E6"/>
  <outline>
    <contour>
      <point x="439" y="760" type="line"/>
      <point x="592" y="793" type="line"/>
      <point x="448" y="900" type="line"/>
      <point x="271" y="900" type="line"/>
      <point x="271" y="899" type="line"/>
    </contour>
  </outline>
</glyph>
<glyph name="gcaron.color3" format="2">
  <advance width="600"/>
  <unicode hex="01E7"/>
  <outline>
    <contour>
      <point x="35" y="266" type="line"/>
      <point x="289" y="266" type="line"/>
      <point x="289" y="530" type="line"/>
      <point x="288" y="530" type="line"/>
      <point x="35" y="423" type="line"/>
    </contour>
  </outline>
</glyph>
<glyph name="Oogonek.color5" format="2">
  <advance width="600"/>
  <unicode hex="01EA"/>
  <outline>
    <contour>
      <point x="482" y="-240" type="line"/>
      <point x="483" y="-240" type="line"/>
      <point x="483" y="-86" type="line"/>
      <point x="325" y="-86" type="line"/>
      <point x="325" y="-184" type="line"/>
    </contour>
  </outline>
</glyph>
<glyph name="oogonek.color6" format="2">
  <advance width="600"/>
  <unicode hex="01EB"/>
  <outline>
    <contour>
      <point x="493" y="-240" type="line"/>
      <point x="601" y="-240" type="line"/>
      <point x="661" y="-129" type="line"/>
      <point x="661" y="-128" type="line"/>
      <point x="493" y="-128" type="line"/>
    </contour>
  </outline>
</glyph>
<glyph name="oogonek" format="2">
  <advance width="917"/>
  <unicode hex="01EB"/>
  <anchor x="462" y="0" name="bottom"/>
  <anchor x="745" y="530" name="horn"/>
  <anchor x="492" y="530" name="top"/>
  <outline>
    <contour>
      <point x="279" y="286" type="line"/>
      <point x="892" y="286" type="line"/>
      <point x="892" y="287" type="line"/>
      <point x="785" y="530" type="line"/>
      <point x="279" y="530" type="line"/>
    </contour>
    <contour>
      <point x="132" y="0" type="line"/>
      <point x="638" y="0" type="line"/>
      <point x="638" y="244" type="line"/>
      <point x="25" y="244" type="line"/>
      <point x="25" y="243" type="line"/>
    </contour>
    <contour>
      <point x="25" y="244" type="line"/>
      <point x="279" y="244" type="line"/>
      <point x="279" y="530" type="line"/>
      <point x="278" y="530" type="line"/>
      <point x="25" y="423" type="line"/>
    </contour>
    <contour>
      <point x="638" y="0" type="line"/>
      <point x="639" y="0" type="line"/>
      <point x="892" y="107" type="line"/>
      <point x="892" y="286" type="line"/>
      <point x="638" y="286" type="line"/>
    </contour>
    <contour>
      <point x="335" y="-86" type="line"/>
      <point x="493" y="-86" type="line"/>
      <point x="577" y="-1" type="line"/>
      <point x="577" y="0" type="line"/>
      <point x="392" y="0" type="line"/>
      <point x="335" y="-85" type="line"/>
    </contour>
    <contour>
      <point x="492" y="-240" type="line"/>
      <point x="493" y="-240" type="line"/>
      <point x="493" y="-86" type="line"/>
      <point x="335" y="-86" type="line"/>
      <point x="335" y="-184" type="line"/>
    </contour>
    <contour>
      <point x="493" y="-240" type="line"/>
      <point x="601" y="-240" type="line"/>
      <point x="661" y="-129" type="line"/>
      <point x="661" y="-128" type="line"/>
      <point x="493" y="-128" type="line"/>
    </contour>
  </outline>
</glyph>
<glyph name="Aringacute.color0" format="2">
  <advance width="600"/>
  <unicode hex="01FA"/>
  <outline>
    <contour>
      <point x="393" y="939" type="line"/>
      <point x="509" y="939" type="line"/>
      <point x="654" y="1028" type="line"/>
      <point x="654" y="1029" type="line"/>
      <point x="448" y="1029" type="line"/>
    </contour>
  </outline>
</glyph>
<glyph name="Aringacute.color7" format="2">
  <advance width="600"/>
  <unicode hex="01FA"/>
  <outline>
    <contour>
      <point x="539" y="751" type="line"/>
      <point x="540" y="751" type="line"/>
      <point x="620" y="807" type="line"/>
      <point x="620" y="845" type="line"/>
      <point x="539" y="845" type="line"/>
    </contour>
  </outline>
</glyph>
<glyph name="Aringacute.color8" format="2">
  <advance width="600"/>
  <unicode hex="01FA"/>
  <outline>
    <contour>
      <point x="385" y="845" type="line"/>
      <point x="620" y="845" type="line"/>
      <point x="620" y="846" type="line"/>
      <point x="560" y="914" type="line"/>
      <point x="385" y="914" type="line"/>
    </contour>
  </outline>
</glyph>
<glyph name="aringacute.color3" format="2">
  <advance width="600"/>
  <unicode hex="01FB"/>
  <outline>
    <contour>
      <point x="25" y="244" type="line"/>
      <point x="279" y="244" type="line"/>
      <point x="279" y="530" type="line"/>
      <point x="278" y="530" type="line"/>
      <point x="25" y="423" type="line"/>
    </contour>
  </outline>
</glyph>
<glyph name="AEacute.color0" format="2">
  <advance width="600"/>
  <unicode hex="01FC"/>
  <outline>
    <contour>
      <point x="35" y="0" type="line"/>
      <point x="289" y="0" type="line"/>
      <point x="289" y="730" type="line"/>
      <point x="288" y="730" type="line"/>
      <point x="35" y="523" type="line"/>
    </contour>
  </outline>
</glyph>
<glyph name="AEacute.color2" format="2">
  <advance width="600"/>
  <unicode hex="01FC"/>
  <outline>
    <contour>
      <point x="800" y="0" type="line"/>
      <point x="1325" y="0" type="line"/>
      <point x="1325" y="244" type="line"/>
      <point x="598" y="244" type="line"/>
      <point x="598" y="243" type="line"/>
    </contour>
  </outline>
</glyph>
<glyph name="AEacute.color7" format="2">
  <advance width="600"/>
  <unicode hex="01FC"/>
  <outline>
    <contour>
      <point x="382" y="760" type="line"/>
      <point x="548" y="760" type="line"/>
      <point x="663" y="899" type="line"/>
      <point x="663" y="900" type="line"/>
      <point x="417" y="900" type="line"/>
    </contour>
  </outline>
</glyph>
<glyph name="aeacute.color3" format="2">
  <advance width="600"/>
  <unicode hex="01FD"/>
  <outline>
    <contour>
      <point x="862" y="0" type="line"/>
      <point x="862" y="286" type="line"/>
      <point x="608" y="286" type="line"/>
      <point x="608" y="239" type="line"/>
    </contour>
  </outline>
</glyph>
<glyph name="aeacute" format="2">
  <advance width="1485"/>
  <unicode hex="01FD"/>
  <anchor x="442" y="530" name="top"/>
  <outline>
    <contour>
      <point x="132" y="0" type="line"/>
      <point x="862" y="0" type="line"/>
      <point x="608" y="244" type="line"/>
      <point x="25" y="244" type="line"/>
      <point x="25" y="243" type="line"/>
    </contour>
    <contour>
      <point x="608" y="330" type="line"/>
      <point x="1455" y="330" type="line"/>
      <point x="1455" y="331" type="line"/>
      <point x="1348" y="530" type="line"/>
      <point x="862" y="530" type="line"/>
    </contour>
    <contour>
      <point x="25" y="244" type="line"/>
      <point x="279" y="244" type="line"/>
      <point x="279" y="530" type="line"/>
      <point x="278" y="530" type="line"/>
      <point x="25" y="423" type="line"/>
    </contour>
    <contour>
      <point x="862" y="0" type="line"/>
      <point x="862" y="286" type="line"/>
      <point x="608" y="286" type="line"/>
      <point x="608" y="239" type="line"/>
    </contour>
    <contour>
      <point x="279" y="286" type="line"/>
      <point x="862" y="286" type="line"/>
      <point x="862" y="287" type="line"/>
      <point x="755" y="530" type="line"/>
      <point x="279" y="530" type="line"/>
    </contour>
    <contour>
      <point x="862" y="0" type="line"/>
      <point x="1348" y="0" type="line"/>
      <point x="1455" y="199" type="line"/>
      <point x="1455" y="200" type="line"/>
      <point x="862" y="200" type="line"/>
    </contour>
    <contour>
      <point x="862" y="220" type="line"/>
      <point x="1201" y="221" type="line"/>
      <point x="1201" y="311" type="line"/>
      <point x="851" y="311" type="line"/>
    </contour>
    <contour>
      <point x="1201" y="221" type="line"/>
      <point x="1202" y="221" type="line"/>
      <point x="1455" y="298" type="line"/>
      <point x="1455" y="330" type="line"/>
      <point x="1201" y="330" type="line"/>
    </contour>
    <contour>
      <point x="349" y="590" type="line"/>
      <point x="495" y="590" type="line"/>
      <point x="600" y="819" type="line"/>
      <point x="600" y="820" type="line"/>
      <point x="384" y="820" type="line"/>
    </contour>
  </outline>
</glyph>
<glyph name="oslashacute.color2" format="2">
  <advance width="600"/>
  <unicode hex="01FF"/>
  <outline>
    <contour>
      <point x="178" y="0" type="line"/>
      <point x="684" y="0" type="line"/>
      <point x="684" y="244" type="line"/>
      <point x="71" y="244" type="line"/>
      <point x="71" y="243" type="line"/>
    </contour>
  </outline>
</glyph>
<glyph name="oslashacute.color5" format="2">
  <advance width="600"/>
  <unicode hex="01FF"/>
  <outline>
    <contour>
      <point x="445" y="590" type="line"/>
      <point x="591" y="590" type="line"/>
      <point x="696" y="819" type="line"/>
      <point x="696" y="820" type="line"/>
      <point x="480" y="820" type="line"/>
    </contour>
  </outline>
</glyph>
<glyph name="Ainvertedbreve.color0" format="2">
  <advance width="600"/>
  <unicode hex="0202"/>
  <outline>
    <contour>
      <point x="35" y="0" type="line"/>
      <point x="289" y="0" type="line"/>
      <point x="289" y="730" type="line"/>
      <point x="288" y="730" type="line"/>
      <point x="35" y="523" type="line"/>
    </contour>
  </outline>
</glyph>
<glyph name="einvertedbreve.color5" format="2">
  <advance width="600"/>
  <unicode hex="0207"/>
  <outline>
    <contour>
      <point x="289" y="698" type="line"/>
      <point x="616" y="698" type="line"/>
      <point x="555" y="800" type="line"/>
      <point x="350" y="800" type="line"/>
    </contour>
  </outline>
</glyph>
<glyph name="einvertedbreve.color6" format="2">
  <advance width="600"/>
  <unicode hex="0207"/>
  <outline>
    <contour>
      <point x="242" y="618" type="line"/>
      <point x="368" y="618" type="line"/>
      <point x="415" y="698" type="line"/>
      <point x="289" y="698" type="line"/>
      <point x="242" y="620" type="line"/>
    </contour>
  </outline>
</glyph>
<glyph name="idblgrave.color0" format="2">
  <advance width="600"/>
  <unicode hex="0209"/>
  <outline>
    <contour>
      <point x="245" y="590" type="line"/>
      <point x="346" y="590" type="line"/>
      <point x="301" y="820" type="line"/>
      <point x="140" y="820" type="line"/>
      <point x="140" y="819" type="line"/>
    </contour>
  </outline>
</glyph>
<glyph name="iinvertedbreve.color0" format="2">
  <advance width="600"/>
  <unicode hex="020B"/>
  <outline>
    <contour>
      <point x="55" y="678" type="line"/>
      <point x="372" y="678" type="line"/>
      <point x="311" y="780" type="line"/>
      <point x="116" y="780" type="line"/>
    </contour>
  </outline>
</glyph>
<glyph name="oinvertedbreve.color4" format="2">
  <advance width="600"/>
  <unicode hex="020F"/>
  <outline>
    <contour>
      <point x="309" y="698" type="line"/>
      <point x="636" y="698" type="line"/>
      <point x="575" y="800" type="line"/>
      <point x="370" y="800" type="line"/>
    </contour>
  </outline>
</glyph>
<glyph name="oinvertedbreve.color5" format="2">
  <advance width="600"/>
  <unicode hex="020F"/>
  <outline>
    <contour>
      <point x="262" y="618" type="line"/>
      <point x="388" y="618" type="line"/>
      <point x="435" y="698" type="line"/>
      <point x="309" y="698" type="line"/>
      <point x="262" y="620" type="line"/>
    </contour>
  </outline>
</glyph>
<glyph name="Rinvertedbreve.color7" format="2">
  <advance width="600"/>
  <unicode hex="0212"/>
  <outline>
    <contour>
      <point x="511" y="760" type="line"/>
      <point x="667" y="760" type="line"/>
      <point x="667" y="761" type="line"/>
      <point x="613" y="820" type="line"/>
      <point x="454" y="820" type="line"/>
    </contour>
  </outline>
</glyph>
<glyph name="udblgrave.color3" format="2">
  <advance width="600"/>
  <unicode hex="0215"/>
  <outline>
    <contour>
      <point x="534" y="590" type="line"/>
      <point x="630" y="590" type="line"/>
      <point x="595" y="820" type="line"/>
      <point x="419" y="820" type="line"/>
      <point x="419" y="819" type="line"/>
    </contour>
  </outline>
</glyph>
<glyph name="Uinvertedbreve.color3" format="2">
  <advance width="600"/>
  <unicode hex="0216"/>
  <outline>
    <contour>
      <point x="280" y="820" type="line"/>
      <point x="673" y="820" type="line"/>
      <point x="599" y="900" type="line"/>
      <point x="354" y="900" type="line"/>
    </contour>
  </outline>
</glyph>
<glyph name="Uinvertedbreve.color5" format="2">
  <advance width="600"/>
  <unicode hex="0216"/>
  <outline>
    <contour>
      <point x="571" y="760" type="line"/>
      <point x="727" y="760" type="line"/>
      <point x="727" y="761" type="line"/>
      <point x="673" y="820" type="line"/>
      <point x="514" y="820" type="line"/>
    </contour>
  </outline>
</glyph>
<glyph name="uinvertedbreve.color3" format="2">
  <advance width="600"/>
  <unicode hex="0217"/>
  <outline>
    <contour>
      <point x="279" y="698" type="line"/>
      <point x="606" y="698" type="line"/>
      <point x="545" y="800" type="line"/>
      <point x="340" y="800" type="line"/>
    </contour>
  </outline>
</glyph>
<glyph name="uinvertedbreve.color4" format="2">
  <advance width="600"/>
  <unicode hex="0217"/>
  <outline>
    <contour>
      <point x="232" y="618" type="line"/>
      <point x="358" y="618" type="line"/>
      <point x="405" y="698" type="line"/>
      <point x="279" y="698" type="line"/>
      <point x="232" y="620" type="line"/>
    </contour>
  </outline>
</glyph>
<glyph name="uinvertedbreve.color5" format="2">
  <advance width="600"/>
  <unicode hex="0217"/>
  <outline>
    <contour>
      <point x="537" y="618" type="line"/>
      <point x="653" y="618" type="line"/>
      <point x="653" y="619" type="line"/>
      <point x="606" y="698" type="line"/>
      <point x="490" y="698" type="line"/>
    </contour>
  </outline>
</glyph>
<glyph name="Scommaaccent.color1" format="2">
  <advance width="600"/>
  <unicode hex="0218"/>
  <outline>
    <contour>
      <point x="222" y="0" type="line"/>
      <point x="613" y="0" type="line"/>
      <point x="613" y="244" type="line"/>
      <point x="20" y="244" type="line"/>
      <point x="20" y="243" type="line"/>
    </contour>
  </outline>
</glyph>
